%TF.GenerationSoftware,KiCad,Pcbnew,9.0.3*%
%TF.CreationDate,2025-11-09T14:41:51-05:00*%
%TF.ProjectId,DarkQuest_SiPM_Motherboard_11.3,4461726b-5175-4657-9374-5f5369504d5f,11.3*%
%TF.SameCoordinates,Original*%
%TF.FileFunction,Copper,L4,Bot*%
%TF.FilePolarity,Positive*%
%FSLAX46Y46*%
G04 Gerber Fmt 4.6, Leading zero omitted, Abs format (unit mm)*
G04 Created by KiCad (PCBNEW 9.0.3) date 2025-11-09 14:41:51*
%MOMM*%
%LPD*%
G01*
G04 APERTURE LIST*
G04 Aperture macros list*
%AMRoundRect*
0 Rectangle with rounded corners*
0 $1 Rounding radius*
0 $2 $3 $4 $5 $6 $7 $8 $9 X,Y pos of 4 corners*
0 Add a 4 corners polygon primitive as box body*
4,1,4,$2,$3,$4,$5,$6,$7,$8,$9,$2,$3,0*
0 Add four circle primitives for the rounded corners*
1,1,$1+$1,$2,$3*
1,1,$1+$1,$4,$5*
1,1,$1+$1,$6,$7*
1,1,$1+$1,$8,$9*
0 Add four rect primitives between the rounded corners*
20,1,$1+$1,$2,$3,$4,$5,0*
20,1,$1+$1,$4,$5,$6,$7,0*
20,1,$1+$1,$6,$7,$8,$9,0*
20,1,$1+$1,$8,$9,$2,$3,0*%
G04 Aperture macros list end*
%TA.AperFunction,SMDPad,CuDef*%
%ADD10RoundRect,0.250000X-0.650000X0.412500X-0.650000X-0.412500X0.650000X-0.412500X0.650000X0.412500X0*%
%TD*%
%TA.AperFunction,ComponentPad*%
%ADD11R,1.700000X1.700000*%
%TD*%
%TA.AperFunction,ComponentPad*%
%ADD12C,1.700000*%
%TD*%
%TA.AperFunction,ComponentPad*%
%ADD13C,16.800000*%
%TD*%
%TA.AperFunction,ComponentPad*%
%ADD14C,12.000000*%
%TD*%
%TA.AperFunction,WasherPad*%
%ADD15C,3.650000*%
%TD*%
%TA.AperFunction,ComponentPad*%
%ADD16C,1.500000*%
%TD*%
%TA.AperFunction,ComponentPad*%
%ADD17C,2.500000*%
%TD*%
%TA.AperFunction,ViaPad*%
%ADD18C,0.600000*%
%TD*%
%TA.AperFunction,Conductor*%
%ADD19C,0.635000*%
%TD*%
%TA.AperFunction,Conductor*%
%ADD20C,0.200000*%
%TD*%
G04 APERTURE END LIST*
D10*
%TO.P,C4,1*%
%TO.N,GND*%
X79832200Y-70548100D03*
%TO.P,C4,2*%
%TO.N,/K4*%
X79832200Y-73673100D03*
%TD*%
%TO.P,C3,1*%
%TO.N,GND*%
X135178800Y-70522700D03*
%TO.P,C3,2*%
%TO.N,/K3*%
X135178800Y-73647700D03*
%TD*%
D11*
%TO.P,J19,1,Pin_1*%
%TO.N,unconnected-(J19-Pin_1-Pad1)*%
X139146000Y-83820000D03*
D12*
%TO.P,J19,2,Pin_2*%
%TO.N,unconnected-(J19-Pin_2-Pad2)*%
X139146000Y-81280000D03*
%TO.P,J19,3,Pin_3*%
%TO.N,unconnected-(J19-Pin_3-Pad3)*%
X139146000Y-78740000D03*
%TO.P,J19,4,Pin_4*%
%TO.N,unconnected-(J19-Pin_4-Pad4)*%
X139146000Y-76200000D03*
%TO.P,J19,5,Pin_5*%
%TO.N,/K3*%
X139146000Y-73660000D03*
%TO.P,J19,6,Pin_6*%
%TO.N,unconnected-(J19-Pin_6-Pad6)*%
X139146000Y-71120000D03*
%TO.P,J19,7,Pin_7*%
%TO.N,unconnected-(J19-Pin_7-Pad7)*%
X139146000Y-68580000D03*
%TO.P,J19,8,Pin_8*%
%TO.N,unconnected-(J19-Pin_8-Pad8)*%
X139146000Y-66040000D03*
%TO.P,J19,9,Pin_9*%
%TO.N,unconnected-(J19-Pin_9-Pad9)*%
X139146000Y-63500000D03*
%TO.P,J19,10,Pin_10*%
%TO.N,unconnected-(J19-Pin_10-Pad10)*%
X139146000Y-60960000D03*
%TD*%
D11*
%TO.P,J20,1,Pin_1*%
%TO.N,unconnected-(J20-Pin_1-Pad1)*%
X83774000Y-83820000D03*
D12*
%TO.P,J20,2,Pin_2*%
%TO.N,unconnected-(J20-Pin_2-Pad2)*%
X83774000Y-81280000D03*
%TO.P,J20,3,Pin_3*%
%TO.N,unconnected-(J20-Pin_3-Pad3)*%
X83774000Y-78740000D03*
%TO.P,J20,4,Pin_4*%
%TO.N,unconnected-(J20-Pin_4-Pad4)*%
X83774000Y-76200000D03*
%TO.P,J20,5,Pin_5*%
%TO.N,/K4*%
X83774000Y-73660000D03*
%TO.P,J20,6,Pin_6*%
%TO.N,unconnected-(J20-Pin_6-Pad6)*%
X83774000Y-71120000D03*
%TO.P,J20,7,Pin_7*%
%TO.N,unconnected-(J20-Pin_7-Pad7)*%
X83774000Y-68580000D03*
%TO.P,J20,8,Pin_8*%
%TO.N,unconnected-(J20-Pin_8-Pad8)*%
X83774000Y-66040000D03*
%TO.P,J20,9,Pin_9*%
%TO.N,unconnected-(J20-Pin_9-Pad9)*%
X83774000Y-63500000D03*
%TO.P,J20,10,Pin_10*%
%TO.N,unconnected-(J20-Pin_10-Pad10)*%
X83774000Y-60960000D03*
%TD*%
D11*
%TO.P,J18,1,Pin_1*%
%TO.N,unconnected-(J18-Pin_1-Pad1)*%
X83774000Y-139192000D03*
D12*
%TO.P,J18,2,Pin_2*%
%TO.N,unconnected-(J18-Pin_2-Pad2)*%
X83774000Y-136652000D03*
%TO.P,J18,3,Pin_3*%
%TO.N,unconnected-(J18-Pin_3-Pad3)*%
X83774000Y-134112000D03*
%TO.P,J18,4,Pin_4*%
%TO.N,unconnected-(J18-Pin_4-Pad4)*%
X83774000Y-131572000D03*
%TO.P,J18,5,Pin_5*%
%TO.N,/K2*%
X83774000Y-129032000D03*
%TO.P,J18,6,Pin_6*%
%TO.N,unconnected-(J18-Pin_6-Pad6)*%
X83774000Y-126492000D03*
%TO.P,J18,7,Pin_7*%
%TO.N,unconnected-(J18-Pin_7-Pad7)*%
X83774000Y-123952000D03*
%TO.P,J18,8,Pin_8*%
%TO.N,unconnected-(J18-Pin_8-Pad8)*%
X83774000Y-121412000D03*
%TO.P,J18,9,Pin_9*%
%TO.N,unconnected-(J18-Pin_9-Pad9)*%
X83774000Y-118872000D03*
%TO.P,J18,10,Pin_10*%
%TO.N,unconnected-(J18-Pin_10-Pad10)*%
X83774000Y-116332000D03*
%TD*%
D11*
%TO.P,J17,1,Pin_1*%
%TO.N,unconnected-(J17-Pin_1-Pad1)*%
X139146000Y-139192000D03*
D12*
%TO.P,J17,2,Pin_2*%
%TO.N,unconnected-(J17-Pin_2-Pad2)*%
X139146000Y-136652000D03*
%TO.P,J17,3,Pin_3*%
%TO.N,unconnected-(J17-Pin_3-Pad3)*%
X139146000Y-134112000D03*
%TO.P,J17,4,Pin_4*%
%TO.N,unconnected-(J17-Pin_4-Pad4)*%
X139146000Y-131572000D03*
%TO.P,J17,5,Pin_5*%
%TO.N,/K1*%
X139146000Y-129032000D03*
%TO.P,J17,6,Pin_6*%
%TO.N,unconnected-(J17-Pin_6-Pad6)*%
X139146000Y-126492000D03*
%TO.P,J17,7,Pin_7*%
%TO.N,unconnected-(J17-Pin_7-Pad7)*%
X139146000Y-123952000D03*
%TO.P,J17,8,Pin_8*%
%TO.N,unconnected-(J17-Pin_8-Pad8)*%
X139146000Y-121412000D03*
%TO.P,J17,9,Pin_9*%
%TO.N,unconnected-(J17-Pin_9-Pad9)*%
X139146000Y-118872000D03*
%TO.P,J17,10,Pin_10*%
%TO.N,unconnected-(J17-Pin_10-Pad10)*%
X139146000Y-116332000D03*
%TD*%
D11*
%TO.P,J8,1,Pin_1*%
%TO.N,unconnected-(J8-Pin_1-Pad1)*%
X60914000Y-83820000D03*
D12*
%TO.P,J8,2,Pin_2*%
%TO.N,unconnected-(J8-Pin_2-Pad2)*%
X60914000Y-81280000D03*
%TO.P,J8,3,Pin_3*%
%TO.N,unconnected-(J8-Pin_3-Pad3)*%
X60914000Y-78740000D03*
%TO.P,J8,4,Pin_4*%
%TO.N,N/C*%
X60914000Y-76200000D03*
%TO.P,J8,5,Pin_5*%
%TO.N,/A4*%
X60914000Y-73660000D03*
%TO.P,J8,6,Pin_6*%
%TO.N,N/C*%
X60914000Y-71120000D03*
%TO.P,J8,7,Pin_7*%
%TO.N,unconnected-(J8-Pin_7-Pad7)*%
X60914000Y-68580000D03*
%TO.P,J8,8,Pin_8*%
%TO.N,unconnected-(J8-Pin_8-Pad8)*%
X60914000Y-66040000D03*
%TO.P,J8,9,Pin_9*%
%TO.N,unconnected-(J8-Pin_9-Pad9)*%
X60914000Y-63500000D03*
%TO.P,J8,10,Pin_10*%
%TO.N,unconnected-(J8-Pin_10-Pad10)*%
X60914000Y-60960000D03*
%TD*%
D11*
%TO.P,J7,1,Pin_1*%
%TO.N,unconnected-(J7-Pin_1-Pad1)*%
X116286000Y-83820000D03*
D12*
%TO.P,J7,2,Pin_2*%
%TO.N,unconnected-(J7-Pin_2-Pad2)*%
X116286000Y-81280000D03*
%TO.P,J7,3,Pin_3*%
%TO.N,unconnected-(J7-Pin_3-Pad3)*%
X116286000Y-78740000D03*
%TO.P,J7,4,Pin_4*%
%TO.N,N/C*%
X116286000Y-76200000D03*
%TO.P,J7,5,Pin_5*%
%TO.N,/A3*%
X116286000Y-73660000D03*
%TO.P,J7,6,Pin_6*%
%TO.N,N/C*%
X116286000Y-71120000D03*
%TO.P,J7,7,Pin_7*%
%TO.N,unconnected-(J7-Pin_7-Pad7)*%
X116286000Y-68580000D03*
%TO.P,J7,8,Pin_8*%
%TO.N,unconnected-(J7-Pin_8-Pad8)*%
X116286000Y-66040000D03*
%TO.P,J7,9,Pin_9*%
%TO.N,unconnected-(J7-Pin_9-Pad9)*%
X116286000Y-63500000D03*
%TO.P,J7,10,Pin_10*%
%TO.N,unconnected-(J7-Pin_10-Pad10)*%
X116286000Y-60960000D03*
%TD*%
D11*
%TO.P,J6,1,Pin_1*%
%TO.N,unconnected-(J6-Pin_1-Pad1)*%
X60914000Y-139192000D03*
D12*
%TO.P,J6,2,Pin_2*%
%TO.N,unconnected-(J6-Pin_2-Pad2)*%
X60914000Y-136652000D03*
%TO.P,J6,3,Pin_3*%
%TO.N,unconnected-(J6-Pin_3-Pad3)*%
X60914000Y-134112000D03*
%TO.P,J6,4,Pin_4*%
%TO.N,N/C*%
X60914000Y-131572000D03*
%TO.P,J6,5,Pin_5*%
%TO.N,/A2*%
X60914000Y-129032000D03*
%TO.P,J6,6,Pin_6*%
%TO.N,N/C*%
X60914000Y-126492000D03*
%TO.P,J6,7,Pin_7*%
%TO.N,unconnected-(J6-Pin_7-Pad7)*%
X60914000Y-123952000D03*
%TO.P,J6,8,Pin_8*%
%TO.N,unconnected-(J6-Pin_8-Pad8)*%
X60914000Y-121412000D03*
%TO.P,J6,9,Pin_9*%
%TO.N,unconnected-(J6-Pin_9-Pad9)*%
X60914000Y-118872000D03*
%TO.P,J6,10,Pin_10*%
%TO.N,unconnected-(J6-Pin_10-Pad10)*%
X60914000Y-116332000D03*
%TD*%
D13*
%TO.P,H2,1*%
%TO.N,N/C*%
X100000000Y-100000000D03*
%TD*%
D14*
%TO.P,H3,1*%
%TO.N,N/C*%
X100000000Y-137000000D03*
%TD*%
%TO.P,H4,1*%
%TO.N,N/C*%
X137000000Y-100000000D03*
%TD*%
%TO.P,H5,1*%
%TO.N,N/C*%
X63000000Y-100000000D03*
%TD*%
%TO.P,H1,1*%
%TO.N,N/C*%
X100000000Y-63000000D03*
%TD*%
D15*
%TO.P,J21,*%
%TO.N,*%
X96800000Y-124590000D03*
X96800000Y-113160000D03*
D16*
%TO.P,J21,1*%
%TO.N,/K1*%
X103150000Y-123320000D03*
%TO.P,J21,2*%
%TO.N,/A1*%
X105690000Y-122050000D03*
%TO.P,J21,3*%
%TO.N,/K2*%
X103150000Y-120780000D03*
%TO.P,J21,4*%
%TO.N,/A3*%
X105690000Y-119510000D03*
%TO.P,J21,5*%
%TO.N,/K3*%
X103150000Y-118240000D03*
%TO.P,J21,6*%
%TO.N,/A2*%
X105690000Y-116970000D03*
%TO.P,J21,7*%
%TO.N,/K4*%
X103150000Y-115700000D03*
%TO.P,J21,8*%
%TO.N,/A4*%
X105690000Y-114430000D03*
D17*
%TO.P,J21,SH*%
%TO.N,GND*%
X99850000Y-126750000D03*
X99850000Y-111000000D03*
%TD*%
D10*
%TO.P,C2,1*%
%TO.N,GND*%
X79730600Y-125920100D03*
%TO.P,C2,2*%
%TO.N,/K2*%
X79730600Y-129045100D03*
%TD*%
%TO.P,C1,1*%
%TO.N,GND*%
X135102600Y-125920100D03*
%TO.P,C1,2*%
%TO.N,/K1*%
X135102600Y-129045100D03*
%TD*%
D11*
%TO.P,J5,1,Pin_1*%
%TO.N,unconnected-(J5-Pin_1-Pad1)*%
X116286000Y-139192000D03*
D12*
%TO.P,J5,2,Pin_2*%
%TO.N,unconnected-(J5-Pin_2-Pad2)*%
X116286000Y-136652000D03*
%TO.P,J5,3,Pin_3*%
%TO.N,unconnected-(J5-Pin_3-Pad3)*%
X116286000Y-134112000D03*
%TO.P,J5,4,Pin_4*%
%TO.N,N/C*%
X116286000Y-131572000D03*
%TO.P,J5,5,Pin_5*%
%TO.N,/A1*%
X116286000Y-129032000D03*
%TO.P,J5,6,Pin_6*%
%TO.N,N/C*%
X116286000Y-126492000D03*
%TO.P,J5,7,Pin_7*%
%TO.N,unconnected-(J5-Pin_7-Pad7)*%
X116286000Y-123952000D03*
%TO.P,J5,8,Pin_8*%
%TO.N,unconnected-(J5-Pin_8-Pad8)*%
X116286000Y-121412000D03*
%TO.P,J5,9,Pin_9*%
%TO.N,unconnected-(J5-Pin_9-Pad9)*%
X116286000Y-118872000D03*
%TO.P,J5,10,Pin_10*%
%TO.N,unconnected-(J5-Pin_10-Pad10)*%
X116286000Y-116332000D03*
%TD*%
D18*
%TO.N,/K1*%
X135000000Y-132600000D03*
%TO.N,/K2*%
X79800000Y-133600000D03*
%TO.N,/K3*%
X98425000Y-118745000D03*
X135400000Y-77800000D03*
X99695000Y-114935000D03*
%TO.N,/K4*%
X80000000Y-77000000D03*
%TO.N,/A3*%
X113030000Y-104775000D03*
X113030000Y-100965000D03*
%TD*%
D19*
%TO.N,/K4*%
X83760900Y-73673100D02*
X83774000Y-73660000D01*
X79832200Y-73673100D02*
X83760900Y-73673100D01*
D20*
X79832200Y-76832200D02*
X80000000Y-77000000D01*
D19*
X79832200Y-73673100D02*
X79832200Y-76832200D01*
%TO.N,/K1*%
X139146000Y-129032000D02*
X135115700Y-129032000D01*
X135102600Y-132497400D02*
X135000000Y-132600000D01*
X135102600Y-129045100D02*
X135102600Y-132497400D01*
X135115700Y-129032000D02*
X135102600Y-129045100D01*
X103150000Y-123320000D02*
X103150000Y-123368400D01*
%TO.N,/A1*%
X105690000Y-122073000D02*
X105690000Y-122050000D01*
%TO.N,/K2*%
X79730600Y-129045100D02*
X79730600Y-133530600D01*
X79730600Y-133530600D02*
X79800000Y-133600000D01*
X83760900Y-129045100D02*
X83774000Y-129032000D01*
X79730600Y-129045100D02*
X83760900Y-129045100D01*
%TO.N,/K3*%
X135178800Y-77578800D02*
X135400000Y-77800000D01*
X135191100Y-73660000D02*
X135178800Y-73647700D01*
X98425000Y-116205000D02*
X98425000Y-118745000D01*
X135178800Y-73647700D02*
X135178800Y-77578800D01*
X99695000Y-114935000D02*
X98425000Y-116205000D01*
X139146000Y-73660000D02*
X135191100Y-73660000D01*
%TO.N,/A3*%
X113030000Y-100965000D02*
X113030000Y-104591500D01*
%TD*%
%TA.AperFunction,Conductor*%
%TO.N,GND*%
G36*
X148942121Y-51020002D02*
G01*
X148988614Y-51073658D01*
X149000000Y-51126000D01*
X149000000Y-148874000D01*
X148979998Y-148942121D01*
X148926342Y-148988614D01*
X148874000Y-149000000D01*
X51126000Y-149000000D01*
X51057879Y-148979998D01*
X51011386Y-148926342D01*
X51000000Y-148874000D01*
X51000000Y-116209660D01*
X59047500Y-116209660D01*
X59047500Y-116454339D01*
X59079434Y-116696910D01*
X59091417Y-116741630D01*
X59142762Y-116933254D01*
X59236395Y-117159303D01*
X59236396Y-117159304D01*
X59236401Y-117159315D01*
X59358729Y-117371193D01*
X59476976Y-117525296D01*
X59502576Y-117591517D01*
X59488311Y-117661065D01*
X59476976Y-117678704D01*
X59358729Y-117832806D01*
X59236401Y-118044684D01*
X59236396Y-118044695D01*
X59236395Y-118044697D01*
X59203457Y-118124217D01*
X59142762Y-118270746D01*
X59079434Y-118507089D01*
X59047500Y-118749660D01*
X59047500Y-118994339D01*
X59079434Y-119236910D01*
X59079436Y-119236917D01*
X59142762Y-119473254D01*
X59236395Y-119699303D01*
X59236396Y-119699304D01*
X59236401Y-119699315D01*
X59358729Y-119911193D01*
X59476976Y-120065296D01*
X59502576Y-120131517D01*
X59488311Y-120201065D01*
X59476976Y-120218704D01*
X59358729Y-120372806D01*
X59236401Y-120584684D01*
X59236396Y-120584695D01*
X59236395Y-120584697D01*
X59203457Y-120664217D01*
X59142762Y-120810746D01*
X59079434Y-121047089D01*
X59047500Y-121289660D01*
X59047500Y-121534339D01*
X59079434Y-121776910D01*
X59099509Y-121851831D01*
X59142762Y-122013254D01*
X59236395Y-122239303D01*
X59236396Y-122239304D01*
X59236401Y-122239315D01*
X59358729Y-122451193D01*
X59476976Y-122605296D01*
X59502576Y-122671517D01*
X59488311Y-122741065D01*
X59476976Y-122758704D01*
X59358729Y-122912806D01*
X59236401Y-123124684D01*
X59236396Y-123124695D01*
X59236395Y-123124697D01*
X59199675Y-123213347D01*
X59142762Y-123350746D01*
X59079434Y-123587089D01*
X59047500Y-123829660D01*
X59047500Y-124074339D01*
X59079434Y-124316910D01*
X59079435Y-124316912D01*
X59079436Y-124316917D01*
X59142762Y-124553254D01*
X59236395Y-124779303D01*
X59236396Y-124779304D01*
X59236401Y-124779315D01*
X59358729Y-124991193D01*
X59476976Y-125145296D01*
X59502576Y-125211517D01*
X59488311Y-125281065D01*
X59476976Y-125298704D01*
X59358729Y-125452806D01*
X59236401Y-125664684D01*
X59236396Y-125664695D01*
X59236395Y-125664697D01*
X59142762Y-125890746D01*
X59079434Y-126127089D01*
X59047500Y-126369660D01*
X59047500Y-126614339D01*
X59079434Y-126856910D01*
X59079436Y-126856917D01*
X59142762Y-127093254D01*
X59236395Y-127319303D01*
X59236396Y-127319304D01*
X59236401Y-127319315D01*
X59358729Y-127531193D01*
X59476976Y-127685296D01*
X59502576Y-127751517D01*
X59488311Y-127821065D01*
X59476976Y-127838704D01*
X59358729Y-127992806D01*
X59236401Y-128204684D01*
X59236396Y-128204695D01*
X59236395Y-128204697D01*
X59233117Y-128212611D01*
X59142762Y-128430746D01*
X59079434Y-128667089D01*
X59047500Y-128909660D01*
X59047500Y-129154339D01*
X59079434Y-129396910D01*
X59079436Y-129396917D01*
X59142762Y-129633254D01*
X59236395Y-129859303D01*
X59236396Y-129859304D01*
X59236401Y-129859315D01*
X59358729Y-130071193D01*
X59476976Y-130225296D01*
X59502576Y-130291517D01*
X59488311Y-130361065D01*
X59476976Y-130378704D01*
X59358729Y-130532806D01*
X59236401Y-130744684D01*
X59236396Y-130744695D01*
X59142762Y-130970746D01*
X59079434Y-131207089D01*
X59047500Y-131449660D01*
X59047500Y-131694339D01*
X59079434Y-131936910D01*
X59079436Y-131936917D01*
X59142762Y-132173254D01*
X59236395Y-132399303D01*
X59236396Y-132399304D01*
X59236401Y-132399315D01*
X59358729Y-132611193D01*
X59476976Y-132765296D01*
X59502576Y-132831517D01*
X59488311Y-132901065D01*
X59476976Y-132918704D01*
X59358729Y-133072806D01*
X59236401Y-133284684D01*
X59236396Y-133284695D01*
X59236395Y-133284697D01*
X59178026Y-133425612D01*
X59142762Y-133510746D01*
X59079434Y-133747089D01*
X59047500Y-133989660D01*
X59047500Y-134234339D01*
X59079434Y-134476910D01*
X59079436Y-134476917D01*
X59142762Y-134713254D01*
X59236395Y-134939303D01*
X59236396Y-134939304D01*
X59236401Y-134939315D01*
X59358729Y-135151193D01*
X59476976Y-135305296D01*
X59502576Y-135371517D01*
X59488311Y-135441065D01*
X59476976Y-135458704D01*
X59358729Y-135612806D01*
X59236401Y-135824684D01*
X59236396Y-135824695D01*
X59142762Y-136050746D01*
X59079434Y-136287089D01*
X59047500Y-136529660D01*
X59047500Y-136774339D01*
X59079434Y-137016910D01*
X59079436Y-137016917D01*
X59142762Y-137253254D01*
X59236395Y-137479303D01*
X59236396Y-137479304D01*
X59236401Y-137479314D01*
X59283899Y-137561583D01*
X59300637Y-137630578D01*
X59277417Y-137697670D01*
X59272180Y-137704515D01*
X59214727Y-137774523D01*
X59214721Y-137774531D01*
X59120334Y-137951116D01*
X59120332Y-137951122D01*
X59062206Y-138142736D01*
X59062206Y-138142739D01*
X59047500Y-138292057D01*
X59047500Y-140091942D01*
X59062206Y-140241260D01*
X59062206Y-140241263D01*
X59120332Y-140432877D01*
X59120334Y-140432883D01*
X59214720Y-140609466D01*
X59214722Y-140609469D01*
X59341748Y-140764252D01*
X59496531Y-140891278D01*
X59673120Y-140985667D01*
X59864731Y-141043792D01*
X59864736Y-141043792D01*
X59864738Y-141043793D01*
X59974069Y-141054560D01*
X60014066Y-141058500D01*
X60014075Y-141058500D01*
X61813925Y-141058500D01*
X61813934Y-141058500D01*
X61911179Y-141048922D01*
X61963260Y-141043793D01*
X61963263Y-141043793D01*
X61963264Y-141043792D01*
X61963269Y-141043792D01*
X62154880Y-140985667D01*
X62331469Y-140891278D01*
X62486252Y-140764252D01*
X62613278Y-140609469D01*
X62707667Y-140432880D01*
X62765792Y-140241269D01*
X62780500Y-140091934D01*
X62780500Y-138292066D01*
X62765793Y-138142739D01*
X62765793Y-138142736D01*
X62765792Y-138142733D01*
X62765792Y-138142731D01*
X62707667Y-137951120D01*
X62613278Y-137774531D01*
X62555817Y-137704514D01*
X62528065Y-137639169D01*
X62540047Y-137569190D01*
X62544088Y-137561604D01*
X62591605Y-137479303D01*
X62685238Y-137253254D01*
X62748564Y-137016917D01*
X62780500Y-136774337D01*
X62780500Y-136529663D01*
X62748564Y-136287083D01*
X62685238Y-136050746D01*
X62591605Y-135824697D01*
X62591599Y-135824688D01*
X62591598Y-135824684D01*
X62469267Y-135612801D01*
X62351024Y-135458704D01*
X62325423Y-135392484D01*
X62339688Y-135322935D01*
X62351024Y-135305296D01*
X62469267Y-135151198D01*
X62591598Y-134939315D01*
X62591597Y-134939315D01*
X62591605Y-134939303D01*
X62685238Y-134713254D01*
X62748564Y-134476917D01*
X62749601Y-134469044D01*
X62751637Y-134453567D01*
X62780500Y-134234337D01*
X62780500Y-133989663D01*
X62748564Y-133747083D01*
X62685238Y-133510746D01*
X62591605Y-133284697D01*
X62591599Y-133284688D01*
X62591598Y-133284684D01*
X62469267Y-133072801D01*
X62351024Y-132918704D01*
X62325423Y-132852484D01*
X62339688Y-132782935D01*
X62351024Y-132765296D01*
X62469267Y-132611198D01*
X62474354Y-132602388D01*
X62591605Y-132399303D01*
X62685238Y-132173254D01*
X62748564Y-131936917D01*
X62780500Y-131694337D01*
X62780500Y-131449663D01*
X62748564Y-131207083D01*
X62685238Y-130970746D01*
X62591605Y-130744697D01*
X62591599Y-130744688D01*
X62591598Y-130744684D01*
X62469267Y-130532801D01*
X62351024Y-130378704D01*
X62325423Y-130312484D01*
X62339688Y-130242935D01*
X62351024Y-130225296D01*
X62406765Y-130152651D01*
X62469268Y-130071197D01*
X62591605Y-129859303D01*
X62685238Y-129633254D01*
X62748564Y-129396917D01*
X62780500Y-129154337D01*
X62780500Y-128909663D01*
X62748564Y-128667083D01*
X62721896Y-128567558D01*
X77814100Y-128567558D01*
X77814100Y-129522642D01*
X77824637Y-129656525D01*
X77824637Y-129656528D01*
X77824638Y-129656529D01*
X77880339Y-129877585D01*
X77880342Y-129877594D01*
X77974618Y-130085149D01*
X77974620Y-130085152D01*
X77974621Y-130085154D01*
X78052188Y-130197116D01*
X78104449Y-130272551D01*
X78104457Y-130272560D01*
X78265639Y-130433742D01*
X78265646Y-130433748D01*
X78265650Y-130433752D01*
X78342355Y-130486892D01*
X78386959Y-130542126D01*
X78396600Y-130590464D01*
X78396600Y-133425612D01*
X78396600Y-133635588D01*
X78428385Y-133836266D01*
X78429449Y-133842983D01*
X78477110Y-133989670D01*
X78494334Y-134042678D01*
X78529696Y-134112079D01*
X78589663Y-134229771D01*
X78592982Y-134234339D01*
X78713082Y-134399643D01*
X78713084Y-134399645D01*
X78713086Y-134399648D01*
X78930955Y-134617517D01*
X79007920Y-134673434D01*
X79100832Y-134740938D01*
X79287921Y-134836266D01*
X79487614Y-134901150D01*
X79487615Y-134901150D01*
X79487620Y-134901152D01*
X79695012Y-134934000D01*
X79695015Y-134934000D01*
X79904984Y-134934000D01*
X79904987Y-134934000D01*
X80112379Y-134901152D01*
X80312078Y-134836266D01*
X80499168Y-134740938D01*
X80669042Y-134617518D01*
X80817518Y-134469042D01*
X80940938Y-134299168D01*
X81036266Y-134112078D01*
X81101152Y-133912379D01*
X81134000Y-133704987D01*
X81134000Y-133495012D01*
X81101152Y-133287620D01*
X81070767Y-133194104D01*
X81064600Y-133155168D01*
X81064600Y-130590464D01*
X81065734Y-130586600D01*
X81064841Y-130582675D01*
X81075654Y-130552817D01*
X81084602Y-130522343D01*
X81088040Y-130518614D01*
X81089016Y-130515921D01*
X81103722Y-130501608D01*
X81114132Y-130490321D01*
X81116438Y-130488559D01*
X81195550Y-130433752D01*
X81219241Y-130410060D01*
X81225925Y-130404957D01*
X81251533Y-130395126D01*
X81275610Y-130381979D01*
X81289736Y-130380460D01*
X81292205Y-130379513D01*
X81294370Y-130379962D01*
X81302393Y-130379100D01*
X82089234Y-130379100D01*
X82157355Y-130399102D01*
X82203848Y-130452758D01*
X82213952Y-130523032D01*
X82198353Y-130568100D01*
X82096401Y-130744684D01*
X82096396Y-130744695D01*
X82002762Y-130970746D01*
X81939434Y-131207089D01*
X81907500Y-131449660D01*
X81907500Y-131694339D01*
X81939434Y-131936910D01*
X81939436Y-131936917D01*
X82002762Y-132173254D01*
X82096395Y-132399303D01*
X82096396Y-132399304D01*
X82096401Y-132399315D01*
X82218729Y-132611193D01*
X82336976Y-132765296D01*
X82362576Y-132831517D01*
X82348311Y-132901065D01*
X82336976Y-132918704D01*
X82218729Y-133072806D01*
X82096401Y-133284684D01*
X82096396Y-133284695D01*
X82096395Y-133284697D01*
X82038026Y-133425612D01*
X82002762Y-133510746D01*
X81939434Y-133747089D01*
X81907500Y-133989660D01*
X81907500Y-134234339D01*
X81939434Y-134476910D01*
X81939436Y-134476917D01*
X82002762Y-134713254D01*
X82096395Y-134939303D01*
X82096396Y-134939304D01*
X82096401Y-134939315D01*
X82218729Y-135151193D01*
X82336976Y-135305296D01*
X82362576Y-135371517D01*
X82348311Y-135441065D01*
X82336976Y-135458704D01*
X82218729Y-135612806D01*
X82096401Y-135824684D01*
X82096396Y-135824695D01*
X82002762Y-136050746D01*
X81939434Y-136287089D01*
X81907500Y-136529660D01*
X81907500Y-136774339D01*
X81939434Y-137016910D01*
X81939436Y-137016917D01*
X82002762Y-137253254D01*
X82096395Y-137479303D01*
X82096396Y-137479304D01*
X82096401Y-137479314D01*
X82143899Y-137561583D01*
X82160637Y-137630578D01*
X82137417Y-137697670D01*
X82132180Y-137704515D01*
X82074727Y-137774523D01*
X82074721Y-137774531D01*
X81980334Y-137951116D01*
X81980332Y-137951122D01*
X81922206Y-138142736D01*
X81922206Y-138142739D01*
X81907500Y-138292057D01*
X81907500Y-140091942D01*
X81922206Y-140241260D01*
X81922206Y-140241263D01*
X81980332Y-140432877D01*
X81980334Y-140432883D01*
X82074720Y-140609466D01*
X82074722Y-140609469D01*
X82201748Y-140764252D01*
X82356531Y-140891278D01*
X82533120Y-140985667D01*
X82724731Y-141043792D01*
X82724736Y-141043792D01*
X82724738Y-141043793D01*
X82834069Y-141054560D01*
X82874066Y-141058500D01*
X82874075Y-141058500D01*
X84673925Y-141058500D01*
X84673934Y-141058500D01*
X84771179Y-141048922D01*
X84823260Y-141043793D01*
X84823263Y-141043793D01*
X84823264Y-141043792D01*
X84823269Y-141043792D01*
X85014880Y-140985667D01*
X85191469Y-140891278D01*
X85346252Y-140764252D01*
X85473278Y-140609469D01*
X85567667Y-140432880D01*
X85625792Y-140241269D01*
X85640500Y-140091934D01*
X85640500Y-138292066D01*
X85625793Y-138142739D01*
X85625793Y-138142736D01*
X85625792Y-138142733D01*
X85625792Y-138142731D01*
X85567667Y-137951120D01*
X85473278Y-137774531D01*
X85415817Y-137704514D01*
X85388065Y-137639169D01*
X85400047Y-137569190D01*
X85404088Y-137561604D01*
X85451605Y-137479303D01*
X85545238Y-137253254D01*
X85608564Y-137016917D01*
X85640500Y-136774337D01*
X85640500Y-136749405D01*
X92983500Y-136749405D01*
X92983500Y-137250595D01*
X92992841Y-137381204D01*
X93019252Y-137750497D01*
X93019255Y-137750526D01*
X93090578Y-138246581D01*
X93090580Y-138246594D01*
X93090581Y-138246596D01*
X93197116Y-138736333D01*
X93338318Y-139217221D01*
X93513466Y-139686810D01*
X93698483Y-140091942D01*
X93721672Y-140142717D01*
X93880111Y-140432877D01*
X93961862Y-140582593D01*
X94232826Y-141004220D01*
X94533178Y-141405444D01*
X94861388Y-141784218D01*
X94861393Y-141784223D01*
X94861400Y-141784231D01*
X95215768Y-142138599D01*
X95215775Y-142138605D01*
X95215782Y-142138612D01*
X95594556Y-142466822D01*
X95995780Y-142767174D01*
X96417407Y-143038138D01*
X96857291Y-143278332D01*
X97313190Y-143486534D01*
X97782779Y-143661682D01*
X98263667Y-143802884D01*
X98753404Y-143909419D01*
X98753418Y-143909421D01*
X99249473Y-143980744D01*
X99249502Y-143980747D01*
X99448925Y-143995009D01*
X99749405Y-144016500D01*
X99749411Y-144016500D01*
X100250589Y-144016500D01*
X100250595Y-144016500D01*
X100584528Y-143992616D01*
X100750497Y-143980747D01*
X100750503Y-143980746D01*
X100750508Y-143980746D01*
X100750511Y-143980745D01*
X100750526Y-143980744D01*
X101142212Y-143924427D01*
X101246596Y-143909419D01*
X101736333Y-143802884D01*
X102217221Y-143661682D01*
X102686810Y-143486534D01*
X103142709Y-143278332D01*
X103582593Y-143038138D01*
X104004220Y-142767174D01*
X104405444Y-142466822D01*
X104784218Y-142138612D01*
X105138612Y-141784218D01*
X105466822Y-141405444D01*
X105767174Y-141004220D01*
X106038138Y-140582593D01*
X106278332Y-140142709D01*
X106486534Y-139686810D01*
X106661682Y-139217221D01*
X106802884Y-138736333D01*
X106909419Y-138246596D01*
X106951902Y-137951122D01*
X106980744Y-137750526D01*
X106980747Y-137750497D01*
X107000142Y-137479312D01*
X107016500Y-137250595D01*
X107016500Y-136749405D01*
X106980746Y-136249492D01*
X106980745Y-136249491D01*
X106980744Y-136249473D01*
X106909421Y-135753418D01*
X106909419Y-135753404D01*
X106802884Y-135263667D01*
X106661682Y-134782779D01*
X106486534Y-134313190D01*
X106278332Y-133857291D01*
X106038138Y-133417407D01*
X105767174Y-132995780D01*
X105466822Y-132594556D01*
X105138612Y-132215782D01*
X105138605Y-132215775D01*
X105138599Y-132215768D01*
X104784231Y-131861400D01*
X104784223Y-131861393D01*
X104784218Y-131861388D01*
X104405444Y-131533178D01*
X104004220Y-131232826D01*
X103582593Y-130961862D01*
X103142716Y-130721672D01*
X103142717Y-130721672D01*
X103142712Y-130721670D01*
X103142709Y-130721668D01*
X102686810Y-130513466D01*
X102686803Y-130513463D01*
X102217222Y-130338318D01*
X101736344Y-130197119D01*
X101736340Y-130197118D01*
X101736333Y-130197116D01*
X101246596Y-130090581D01*
X101246594Y-130090580D01*
X101246581Y-130090578D01*
X100750526Y-130019255D01*
X100750497Y-130019252D01*
X100381204Y-129992841D01*
X100250595Y-129983500D01*
X99749405Y-129983500D01*
X99624246Y-129992451D01*
X99249502Y-130019252D01*
X99249473Y-130019255D01*
X98753418Y-130090578D01*
X98753394Y-130090583D01*
X98601381Y-130123651D01*
X98263667Y-130197116D01*
X98263661Y-130197117D01*
X98263655Y-130197119D01*
X97782777Y-130338318D01*
X97313196Y-130513463D01*
X97313189Y-130513466D01*
X96857282Y-130721672D01*
X96417404Y-130961863D01*
X95995781Y-131232825D01*
X95594558Y-131533176D01*
X95215768Y-131861400D01*
X94861400Y-132215768D01*
X94533176Y-132594558D01*
X94232825Y-132995781D01*
X93961863Y-133417404D01*
X93721672Y-133857282D01*
X93513466Y-134313189D01*
X93513463Y-134313196D01*
X93338318Y-134782777D01*
X93197119Y-135263655D01*
X93197117Y-135263661D01*
X93197116Y-135263667D01*
X93169094Y-135392484D01*
X93090583Y-135753394D01*
X93090578Y-135753418D01*
X93019255Y-136249473D01*
X93019252Y-136249502D01*
X92991284Y-136640564D01*
X92983500Y-136749405D01*
X85640500Y-136749405D01*
X85640500Y-136529663D01*
X85608564Y-136287083D01*
X85545238Y-136050746D01*
X85451605Y-135824697D01*
X85451599Y-135824688D01*
X85451598Y-135824684D01*
X85329267Y-135612801D01*
X85211024Y-135458704D01*
X85185423Y-135392484D01*
X85199688Y-135322935D01*
X85211024Y-135305296D01*
X85329267Y-135151198D01*
X85451598Y-134939315D01*
X85451597Y-134939315D01*
X85451605Y-134939303D01*
X85545238Y-134713254D01*
X85608564Y-134476917D01*
X85609601Y-134469044D01*
X85611637Y-134453567D01*
X85640500Y-134234337D01*
X85640500Y-133989663D01*
X85608564Y-133747083D01*
X85545238Y-133510746D01*
X85451605Y-133284697D01*
X85451599Y-133284688D01*
X85451598Y-133284684D01*
X85329267Y-133072801D01*
X85211024Y-132918704D01*
X85185423Y-132852484D01*
X85199688Y-132782935D01*
X85211024Y-132765296D01*
X85329267Y-132611198D01*
X85334354Y-132602388D01*
X85451605Y-132399303D01*
X85545238Y-132173254D01*
X85608564Y-131936917D01*
X85640500Y-131694337D01*
X85640500Y-131449663D01*
X85608564Y-131207083D01*
X85545238Y-130970746D01*
X85451605Y-130744697D01*
X85451599Y-130744688D01*
X85451598Y-130744684D01*
X85329267Y-130532801D01*
X85211024Y-130378704D01*
X85185423Y-130312484D01*
X85199688Y-130242935D01*
X85211024Y-130225296D01*
X85266765Y-130152651D01*
X85329268Y-130071197D01*
X85451605Y-129859303D01*
X85545238Y-129633254D01*
X85608564Y-129396917D01*
X85640500Y-129154337D01*
X85640500Y-128909663D01*
X85608564Y-128667083D01*
X85545238Y-128430746D01*
X85451605Y-128204697D01*
X85451599Y-128204688D01*
X85451598Y-128204684D01*
X85329267Y-127992801D01*
X85211024Y-127838704D01*
X85185423Y-127772484D01*
X85199688Y-127702935D01*
X85211024Y-127685296D01*
X85329267Y-127531198D01*
X85331912Y-127526618D01*
X85451605Y-127319303D01*
X85545238Y-127093254D01*
X85608564Y-126856917D01*
X85640500Y-126614337D01*
X85640500Y-126369663D01*
X85608564Y-126127083D01*
X85545238Y-125890746D01*
X85451605Y-125664697D01*
X85451599Y-125664688D01*
X85451598Y-125664684D01*
X85329267Y-125452801D01*
X85211024Y-125298704D01*
X85185423Y-125232484D01*
X85199688Y-125162935D01*
X85211024Y-125145296D01*
X85325321Y-124996341D01*
X85329268Y-124991197D01*
X85451605Y-124779303D01*
X85545238Y-124553254D01*
X85578150Y-124430423D01*
X93958500Y-124430423D01*
X93958500Y-124749576D01*
X93994234Y-125066722D01*
X94021301Y-125185310D01*
X94065251Y-125377867D01*
X94065253Y-125377873D01*
X94065252Y-125377873D01*
X94170653Y-125679090D01*
X94170664Y-125679117D01*
X94309135Y-125966656D01*
X94478930Y-126236882D01*
X94677922Y-126486410D01*
X94903589Y-126712077D01*
X95153117Y-126911069D01*
X95423343Y-127080864D01*
X95423346Y-127080865D01*
X95423347Y-127080866D01*
X95710892Y-127219340D01*
X95710908Y-127219345D01*
X95710909Y-127219346D01*
X96012126Y-127324747D01*
X96012129Y-127324747D01*
X96012133Y-127324749D01*
X96323281Y-127395766D01*
X96548164Y-127421104D01*
X96640423Y-127431500D01*
X96640425Y-127431500D01*
X96959577Y-127431500D01*
X97040120Y-127422424D01*
X97276719Y-127395766D01*
X97587867Y-127324749D01*
X97587873Y-127324747D01*
X97884502Y-127220952D01*
X97955406Y-127217332D01*
X98017011Y-127252621D01*
X98047824Y-127307270D01*
X98061206Y-127357213D01*
X98155767Y-127585504D01*
X98155773Y-127585515D01*
X98279313Y-127799493D01*
X98349641Y-127891147D01*
X99094227Y-127146561D01*
X99096740Y-127152626D01*
X99189762Y-127291844D01*
X99308156Y-127410238D01*
X99447374Y-127503260D01*
X99453437Y-127505771D01*
X98708851Y-128250357D01*
X98800506Y-128320686D01*
X99014484Y-128444226D01*
X99014495Y-128444232D01*
X99242786Y-128538793D01*
X99481470Y-128602748D01*
X99481475Y-128602749D01*
X99726447Y-128634999D01*
X99726459Y-128635000D01*
X99973541Y-128635000D01*
X99973552Y-128634999D01*
X100218524Y-128602749D01*
X100218529Y-128602748D01*
X100457213Y-128538793D01*
X100685504Y-128444232D01*
X100685515Y-128444226D01*
X100899493Y-128320686D01*
X100899499Y-128320682D01*
X100991146Y-128250358D01*
X100991147Y-128250356D01*
X100246562Y-127505771D01*
X100252626Y-127503260D01*
X100391844Y-127410238D01*
X100510238Y-127291844D01*
X100603260Y-127152626D01*
X100605771Y-127146562D01*
X101350356Y-127891147D01*
X101350358Y-127891146D01*
X101420682Y-127799499D01*
X101420686Y-127799493D01*
X101544226Y-127585515D01*
X101544232Y-127585504D01*
X101638793Y-127357213D01*
X101702748Y-127118529D01*
X101702749Y-127118524D01*
X101734999Y-126873552D01*
X101735000Y-126873540D01*
X101735000Y-126626459D01*
X101734999Y-126626447D01*
X101702749Y-126381475D01*
X101702748Y-126381470D01*
X101638793Y-126142786D01*
X101544232Y-125914495D01*
X101544226Y-125914484D01*
X101420686Y-125700506D01*
X101350357Y-125608851D01*
X100605771Y-126353437D01*
X100603260Y-126347374D01*
X100510238Y-126208156D01*
X100391844Y-126089762D01*
X100252626Y-125996740D01*
X100246561Y-125994227D01*
X100991147Y-125249641D01*
X100899493Y-125179313D01*
X100685515Y-125055773D01*
X100685504Y-125055767D01*
X100457213Y-124961206D01*
X100218529Y-124897251D01*
X100218524Y-124897250D01*
X99973552Y-124865000D01*
X99767500Y-124865000D01*
X99699379Y-124844998D01*
X99652886Y-124791342D01*
X99641500Y-124739000D01*
X99641500Y-124430423D01*
X99627201Y-124303516D01*
X99605766Y-124113281D01*
X99534749Y-123802133D01*
X99508228Y-123726341D01*
X99429346Y-123500909D01*
X99429345Y-123500908D01*
X99429340Y-123500892D01*
X99290866Y-123213347D01*
X99290865Y-123213346D01*
X99290864Y-123213343D01*
X99121069Y-122943117D01*
X98922077Y-122693589D01*
X98696410Y-122467922D01*
X98446882Y-122268930D01*
X98176656Y-122099135D01*
X97889117Y-121960664D01*
X97889112Y-121960662D01*
X97889108Y-121960660D01*
X97889102Y-121960657D01*
X97889090Y-121960653D01*
X97587873Y-121855252D01*
X97276722Y-121784234D01*
X96959577Y-121748500D01*
X96959575Y-121748500D01*
X96640425Y-121748500D01*
X96640423Y-121748500D01*
X96323277Y-121784234D01*
X96012126Y-121855252D01*
X95710909Y-121960653D01*
X95710882Y-121960664D01*
X95423343Y-122099135D01*
X95153117Y-122268930D01*
X94903589Y-122467922D01*
X94677922Y-122693589D01*
X94478930Y-122943117D01*
X94309135Y-123213343D01*
X94170664Y-123500882D01*
X94170653Y-123500909D01*
X94065252Y-123802126D01*
X93994234Y-124113277D01*
X93958500Y-124430423D01*
X85578150Y-124430423D01*
X85608564Y-124316917D01*
X85610328Y-124303523D01*
X85618684Y-124240043D01*
X85640500Y-124074337D01*
X85640500Y-123829663D01*
X85608564Y-123587083D01*
X85545238Y-123350746D01*
X85451605Y-123124697D01*
X85451599Y-123124688D01*
X85451598Y-123124684D01*
X85329267Y-122912801D01*
X85211024Y-122758704D01*
X85185423Y-122692484D01*
X85199688Y-122622935D01*
X85211024Y-122605296D01*
X85329267Y-122451198D01*
X85361507Y-122395358D01*
X85451605Y-122239303D01*
X85545238Y-122013254D01*
X85608564Y-121776917D01*
X85640500Y-121534337D01*
X85640500Y-121289663D01*
X85608564Y-121047083D01*
X85545238Y-120810746D01*
X85451605Y-120584697D01*
X85451599Y-120584688D01*
X85451598Y-120584684D01*
X85329267Y-120372801D01*
X85211024Y-120218704D01*
X85185423Y-120152484D01*
X85199688Y-120082935D01*
X85211024Y-120065296D01*
X85329267Y-119911198D01*
X85343851Y-119885939D01*
X85451605Y-119699303D01*
X85545238Y-119473254D01*
X85608564Y-119236917D01*
X85640500Y-118994337D01*
X85640500Y-118749663D01*
X85608564Y-118507083D01*
X85545238Y-118270746D01*
X85451605Y-118044697D01*
X85451599Y-118044688D01*
X85451598Y-118044684D01*
X85329267Y-117832801D01*
X85211024Y-117678704D01*
X85185423Y-117612484D01*
X85199688Y-117542935D01*
X85211024Y-117525296D01*
X85329267Y-117371198D01*
X85361507Y-117315358D01*
X85451605Y-117159303D01*
X85545238Y-116933254D01*
X85608564Y-116696917D01*
X85640500Y-116454337D01*
X85640500Y-116209663D01*
X85611117Y-115986476D01*
X85608565Y-115967089D01*
X85608564Y-115967087D01*
X85608564Y-115967083D01*
X85545238Y-115730746D01*
X85451605Y-115504697D01*
X85451599Y-115504688D01*
X85451598Y-115504684D01*
X85329270Y-115292806D01*
X85321040Y-115282080D01*
X85180320Y-115098690D01*
X85180314Y-115098684D01*
X85180310Y-115098679D01*
X85007320Y-114925689D01*
X85007314Y-114925684D01*
X85007310Y-114925680D01*
X84813197Y-114776732D01*
X84813196Y-114776731D01*
X84813193Y-114776729D01*
X84601315Y-114654401D01*
X84601307Y-114654397D01*
X84601303Y-114654395D01*
X84375254Y-114560762D01*
X84138917Y-114497436D01*
X84138910Y-114497434D01*
X83896339Y-114465500D01*
X83896337Y-114465500D01*
X83651663Y-114465500D01*
X83651660Y-114465500D01*
X83409089Y-114497434D01*
X83172746Y-114560762D01*
X82946695Y-114654396D01*
X82946684Y-114654401D01*
X82734806Y-114776729D01*
X82540690Y-114925680D01*
X82540679Y-114925689D01*
X82367689Y-115098679D01*
X82367680Y-115098690D01*
X82218729Y-115292806D01*
X82096401Y-115504684D01*
X82096396Y-115504695D01*
X82096395Y-115504697D01*
X82063457Y-115584217D01*
X82002762Y-115730746D01*
X81939434Y-115967089D01*
X81907500Y-116209660D01*
X81907500Y-116454339D01*
X81939434Y-116696910D01*
X81951417Y-116741630D01*
X82002762Y-116933254D01*
X82096395Y-117159303D01*
X82096396Y-117159304D01*
X82096401Y-117159315D01*
X82218729Y-117371193D01*
X82336976Y-117525296D01*
X82362576Y-117591517D01*
X82348311Y-117661065D01*
X82336976Y-117678704D01*
X82218729Y-117832806D01*
X82096401Y-118044684D01*
X82096396Y-118044695D01*
X82096395Y-118044697D01*
X82063457Y-118124217D01*
X82002762Y-118270746D01*
X81939434Y-118507089D01*
X81907500Y-118749660D01*
X81907500Y-118994339D01*
X81939434Y-119236910D01*
X81939436Y-119236917D01*
X82002762Y-119473254D01*
X82096395Y-119699303D01*
X82096396Y-119699304D01*
X82096401Y-119699315D01*
X82218729Y-119911193D01*
X82336976Y-120065296D01*
X82362576Y-120131517D01*
X82348311Y-120201065D01*
X82336976Y-120218704D01*
X82218729Y-120372806D01*
X82096401Y-120584684D01*
X82096396Y-120584695D01*
X82096395Y-120584697D01*
X82063457Y-120664217D01*
X82002762Y-120810746D01*
X81939434Y-121047089D01*
X81907500Y-121289660D01*
X81907500Y-121534339D01*
X81939434Y-121776910D01*
X81959509Y-121851831D01*
X82002762Y-122013254D01*
X82096395Y-122239303D01*
X82096396Y-122239304D01*
X82096401Y-122239315D01*
X82218729Y-122451193D01*
X82336976Y-122605296D01*
X82362576Y-122671517D01*
X82348311Y-122741065D01*
X82336976Y-122758704D01*
X82218729Y-122912806D01*
X82096401Y-123124684D01*
X82096396Y-123124695D01*
X82096395Y-123124697D01*
X82059675Y-123213347D01*
X82002762Y-123350746D01*
X81939434Y-123587089D01*
X81907500Y-123829660D01*
X81907500Y-124074339D01*
X81939434Y-124316910D01*
X81939435Y-124316912D01*
X81939436Y-124316917D01*
X82002762Y-124553254D01*
X82096395Y-124779303D01*
X82096396Y-124779304D01*
X82096401Y-124779315D01*
X82218729Y-124991193D01*
X82336976Y-125145296D01*
X82362576Y-125211517D01*
X82348311Y-125281065D01*
X82336976Y-125298704D01*
X82218729Y-125452806D01*
X82096401Y-125664684D01*
X82096396Y-125664695D01*
X82096395Y-125664697D01*
X82002762Y-125890746D01*
X81939434Y-126127089D01*
X81907500Y-126369660D01*
X81907500Y-126614339D01*
X81939434Y-126856910D01*
X81939436Y-126856917D01*
X82002762Y-127093254D01*
X82096395Y-127319303D01*
X82096396Y-127319304D01*
X82096401Y-127319314D01*
X82213480Y-127522100D01*
X82230218Y-127591095D01*
X82206998Y-127658187D01*
X82151191Y-127702074D01*
X82104361Y-127711100D01*
X81302393Y-127711100D01*
X81234272Y-127691098D01*
X81213298Y-127674195D01*
X81195560Y-127656457D01*
X81195551Y-127656449D01*
X81114071Y-127600000D01*
X81008154Y-127526621D01*
X81008152Y-127526620D01*
X81008149Y-127526618D01*
X80800594Y-127432342D01*
X80800591Y-127432341D01*
X80800589Y-127432340D01*
X80701191Y-127407294D01*
X80640022Y-127371253D01*
X80608049Y-127307864D01*
X80615422Y-127237251D01*
X80659801Y-127181834D01*
X80693493Y-127166142D01*
X80693338Y-127165737D01*
X80699178Y-127163495D01*
X80699374Y-127163404D01*
X80699505Y-127163368D01*
X80865258Y-127078912D01*
X80865261Y-127078911D01*
X81009836Y-126961836D01*
X81126911Y-126817261D01*
X81126912Y-126817258D01*
X81211369Y-126651502D01*
X81259517Y-126471810D01*
X81265600Y-126394538D01*
X81265600Y-126174100D01*
X78195600Y-126174100D01*
X78195600Y-126394538D01*
X78201682Y-126471810D01*
X78249830Y-126651502D01*
X78334287Y-126817258D01*
X78334288Y-126817261D01*
X78451363Y-126961836D01*
X78595938Y-127078911D01*
X78595941Y-127078912D01*
X78761698Y-127163370D01*
X78761830Y-127163406D01*
X78761898Y-127163448D01*
X78767862Y-127165737D01*
X78767443Y-127166827D01*
X78822453Y-127200356D01*
X78853476Y-127264216D01*
X78845049Y-127334710D01*
X78799847Y-127389458D01*
X78760008Y-127407294D01*
X78660614Y-127432339D01*
X78660605Y-127432342D01*
X78453050Y-127526618D01*
X78265648Y-127656449D01*
X78265639Y-127656457D01*
X78104457Y-127817639D01*
X78104449Y-127817648D01*
X77974618Y-128005050D01*
X77880342Y-128212605D01*
X77880339Y-128212614D01*
X77853108Y-128320686D01*
X77824637Y-128433675D01*
X77814100Y-128567558D01*
X62721896Y-128567558D01*
X62685238Y-128430746D01*
X62591605Y-128204697D01*
X62591599Y-128204688D01*
X62591598Y-128204684D01*
X62469267Y-127992801D01*
X62351024Y-127838704D01*
X62325423Y-127772484D01*
X62339688Y-127702935D01*
X62351024Y-127685296D01*
X62469267Y-127531198D01*
X62471912Y-127526618D01*
X62591605Y-127319303D01*
X62685238Y-127093254D01*
X62748564Y-126856917D01*
X62780500Y-126614337D01*
X62780500Y-126369663D01*
X62748564Y-126127083D01*
X62685238Y-125890746D01*
X62591605Y-125664697D01*
X62591599Y-125664688D01*
X62591598Y-125664684D01*
X62500088Y-125506184D01*
X62469267Y-125452801D01*
X62463788Y-125445661D01*
X78195600Y-125445661D01*
X78195600Y-125666100D01*
X79476600Y-125666100D01*
X79984600Y-125666100D01*
X81265600Y-125666100D01*
X81265600Y-125445661D01*
X81259517Y-125368389D01*
X81211369Y-125188697D01*
X81126912Y-125022941D01*
X81126911Y-125022938D01*
X81009836Y-124878363D01*
X80865261Y-124761288D01*
X80865258Y-124761287D01*
X80699502Y-124676830D01*
X80519810Y-124628682D01*
X80442539Y-124622600D01*
X79984600Y-124622600D01*
X79984600Y-125666100D01*
X79476600Y-125666100D01*
X79476600Y-124622600D01*
X79018661Y-124622600D01*
X78941389Y-124628682D01*
X78761697Y-124676830D01*
X78595941Y-124761287D01*
X78595938Y-124761288D01*
X78451363Y-124878363D01*
X78334288Y-125022938D01*
X78334287Y-125022941D01*
X78249830Y-125188697D01*
X78201682Y-125368389D01*
X78195600Y-125445661D01*
X62463788Y-125445661D01*
X62351024Y-125298704D01*
X62325423Y-125232484D01*
X62339688Y-125162935D01*
X62351024Y-125145296D01*
X62465321Y-124996341D01*
X62469268Y-124991197D01*
X62591605Y-124779303D01*
X62685238Y-124553254D01*
X62748564Y-124316917D01*
X62780500Y-124074337D01*
X62780500Y-123829663D01*
X62748564Y-123587083D01*
X62685238Y-123350746D01*
X62591605Y-123124697D01*
X62591599Y-123124688D01*
X62591598Y-123124684D01*
X62469267Y-122912801D01*
X62351024Y-122758704D01*
X62325423Y-122692484D01*
X62339688Y-122622935D01*
X62351024Y-122605296D01*
X62469267Y-122451198D01*
X62501507Y-122395358D01*
X62591605Y-122239303D01*
X62685238Y-122013254D01*
X62748564Y-121776917D01*
X62780500Y-121534337D01*
X62780500Y-121289663D01*
X62748564Y-121047083D01*
X62685238Y-120810746D01*
X62591605Y-120584697D01*
X62591599Y-120584688D01*
X62591598Y-120584684D01*
X62469267Y-120372801D01*
X62351024Y-120218704D01*
X62325423Y-120152484D01*
X62339688Y-120082935D01*
X62351024Y-120065296D01*
X62469267Y-119911198D01*
X62483851Y-119885939D01*
X62591605Y-119699303D01*
X62685238Y-119473254D01*
X62748564Y-119236917D01*
X62780500Y-118994337D01*
X62780500Y-118749663D01*
X62748564Y-118507083D01*
X62685238Y-118270746D01*
X62591605Y-118044697D01*
X62591599Y-118044688D01*
X62591598Y-118044684D01*
X62469267Y-117832801D01*
X62351024Y-117678704D01*
X62325423Y-117612484D01*
X62339688Y-117542935D01*
X62351024Y-117525296D01*
X62469267Y-117371198D01*
X62501507Y-117315358D01*
X62591605Y-117159303D01*
X62685238Y-116933254D01*
X62748564Y-116696917D01*
X62780500Y-116454337D01*
X62780500Y-116209663D01*
X62751117Y-115986476D01*
X62748565Y-115967089D01*
X62748564Y-115967087D01*
X62748564Y-115967083D01*
X62685238Y-115730746D01*
X62591605Y-115504697D01*
X62591599Y-115504688D01*
X62591598Y-115504684D01*
X62469270Y-115292806D01*
X62461040Y-115282080D01*
X62320320Y-115098690D01*
X62320314Y-115098684D01*
X62320310Y-115098679D01*
X62147320Y-114925689D01*
X62147314Y-114925684D01*
X62147310Y-114925680D01*
X61953197Y-114776732D01*
X61953196Y-114776731D01*
X61953193Y-114776729D01*
X61741315Y-114654401D01*
X61741307Y-114654397D01*
X61741303Y-114654395D01*
X61515254Y-114560762D01*
X61278917Y-114497436D01*
X61278910Y-114497434D01*
X61036339Y-114465500D01*
X61036337Y-114465500D01*
X60791663Y-114465500D01*
X60791660Y-114465500D01*
X60549089Y-114497434D01*
X60312746Y-114560762D01*
X60086695Y-114654396D01*
X60086684Y-114654401D01*
X59874806Y-114776729D01*
X59680690Y-114925680D01*
X59680679Y-114925689D01*
X59507689Y-115098679D01*
X59507680Y-115098690D01*
X59358729Y-115292806D01*
X59236401Y-115504684D01*
X59236396Y-115504695D01*
X59236395Y-115504697D01*
X59203457Y-115584217D01*
X59142762Y-115730746D01*
X59079434Y-115967089D01*
X59047500Y-116209660D01*
X51000000Y-116209660D01*
X51000000Y-99749405D01*
X55983500Y-99749405D01*
X55983500Y-100250595D01*
X55984590Y-100265832D01*
X56019252Y-100750497D01*
X56019255Y-100750526D01*
X56090578Y-101246581D01*
X56090580Y-101246594D01*
X56090581Y-101246596D01*
X56197116Y-101736333D01*
X56338318Y-102217221D01*
X56513466Y-102686810D01*
X56721668Y-103142709D01*
X56961862Y-103582593D01*
X57232826Y-104004220D01*
X57533178Y-104405444D01*
X57861388Y-104784218D01*
X57861393Y-104784223D01*
X57861400Y-104784231D01*
X58215768Y-105138599D01*
X58215775Y-105138605D01*
X58215782Y-105138612D01*
X58594556Y-105466822D01*
X58995780Y-105767174D01*
X59417407Y-106038138D01*
X59857291Y-106278332D01*
X60313190Y-106486534D01*
X60782779Y-106661682D01*
X61263667Y-106802884D01*
X61753404Y-106909419D01*
X61753418Y-106909421D01*
X62249473Y-106980744D01*
X62249502Y-106980747D01*
X62448925Y-106995009D01*
X62749405Y-107016500D01*
X62749411Y-107016500D01*
X63250589Y-107016500D01*
X63250595Y-107016500D01*
X63584528Y-106992616D01*
X63750497Y-106980747D01*
X63750503Y-106980746D01*
X63750508Y-106980746D01*
X63750511Y-106980745D01*
X63750526Y-106980744D01*
X64142212Y-106924427D01*
X64246596Y-106909419D01*
X64736333Y-106802884D01*
X65217221Y-106661682D01*
X65686810Y-106486534D01*
X66142709Y-106278332D01*
X66582593Y-106038138D01*
X67004220Y-105767174D01*
X67405444Y-105466822D01*
X67784218Y-105138612D01*
X68138612Y-104784218D01*
X68466822Y-104405444D01*
X68767174Y-104004220D01*
X69038138Y-103582593D01*
X69278332Y-103142709D01*
X69486534Y-102686810D01*
X69661682Y-102217221D01*
X69802884Y-101736333D01*
X69909419Y-101246596D01*
X69955876Y-100923482D01*
X69980744Y-100750526D01*
X69980747Y-100750497D01*
X70002029Y-100452922D01*
X70016500Y-100250595D01*
X70016500Y-99749405D01*
X70012871Y-99698661D01*
X70012376Y-99691734D01*
X90583500Y-99691734D01*
X90583500Y-100308265D01*
X90623822Y-100923465D01*
X90623824Y-100923482D01*
X90704294Y-101534720D01*
X90744400Y-101736344D01*
X90824575Y-102139409D01*
X90971251Y-102686810D01*
X90984143Y-102734922D01*
X90984152Y-102734954D01*
X91182320Y-103318738D01*
X91418252Y-103888328D01*
X91418261Y-103888347D01*
X91690930Y-104441267D01*
X91690943Y-104441291D01*
X91943428Y-104878607D01*
X91999204Y-104975214D01*
X92341729Y-105487839D01*
X92717048Y-105976964D01*
X93123554Y-106440495D01*
X93123566Y-106440507D01*
X93123579Y-106440521D01*
X93559478Y-106876420D01*
X93559491Y-106876432D01*
X93559505Y-106876446D01*
X94023036Y-107282952D01*
X94512161Y-107658271D01*
X95024786Y-108000796D01*
X95558708Y-108309056D01*
X95558732Y-108309069D01*
X95844730Y-108450107D01*
X96111663Y-108581744D01*
X96681261Y-108817679D01*
X97265045Y-109015847D01*
X97265053Y-109015849D01*
X97265070Y-109015855D01*
X97860591Y-109175425D01*
X98465273Y-109295704D01*
X98603019Y-109313838D01*
X98667945Y-109342560D01*
X98707037Y-109401825D01*
X98712302Y-109447001D01*
X98708851Y-109499641D01*
X99453438Y-110244228D01*
X99447374Y-110246740D01*
X99308156Y-110339762D01*
X99189762Y-110458156D01*
X99096740Y-110597374D01*
X99094228Y-110603438D01*
X98349641Y-109858851D01*
X98349640Y-109858852D01*
X98279315Y-109950502D01*
X98155773Y-110164484D01*
X98155767Y-110164495D01*
X98061206Y-110392786D01*
X98061202Y-110392798D01*
X98047822Y-110442731D01*
X98010870Y-110503353D01*
X97947008Y-110534374D01*
X97884501Y-110529047D01*
X97587873Y-110425252D01*
X97276722Y-110354234D01*
X96959577Y-110318500D01*
X96959575Y-110318500D01*
X96640425Y-110318500D01*
X96640423Y-110318500D01*
X96323277Y-110354234D01*
X96012126Y-110425252D01*
X95710909Y-110530653D01*
X95710882Y-110530664D01*
X95423343Y-110669135D01*
X95153117Y-110838930D01*
X94903589Y-111037922D01*
X94677922Y-111263589D01*
X94478930Y-111513117D01*
X94309135Y-111783343D01*
X94170664Y-112070882D01*
X94170653Y-112070909D01*
X94065252Y-112372126D01*
X93994234Y-112683277D01*
X93958500Y-113000423D01*
X93958500Y-113319576D01*
X93994234Y-113636722D01*
X94030146Y-113794061D01*
X94065251Y-113947867D01*
X94065253Y-113947873D01*
X94065252Y-113947873D01*
X94170653Y-114249090D01*
X94170664Y-114249117D01*
X94309135Y-114536656D01*
X94478930Y-114806882D01*
X94677922Y-115056410D01*
X94903589Y-115282077D01*
X95153117Y-115481069D01*
X95423343Y-115650864D01*
X95423346Y-115650865D01*
X95423347Y-115650866D01*
X95710892Y-115789340D01*
X95710908Y-115789345D01*
X95710909Y-115789346D01*
X96012126Y-115894747D01*
X96012129Y-115894747D01*
X96012133Y-115894749D01*
X96323281Y-115965766D01*
X96548164Y-115991104D01*
X96640423Y-116001500D01*
X96963110Y-116001500D01*
X96963110Y-116002813D01*
X97027020Y-116017714D01*
X97076472Y-116068656D01*
X97091000Y-116127393D01*
X97091000Y-118849988D01*
X97123848Y-119057379D01*
X97188734Y-119257078D01*
X97284061Y-119444168D01*
X97407482Y-119614043D01*
X97407484Y-119614045D01*
X97407486Y-119614048D01*
X97555951Y-119762513D01*
X97555954Y-119762515D01*
X97555957Y-119762518D01*
X97725832Y-119885939D01*
X97912922Y-119981266D01*
X98112621Y-120046152D01*
X98320012Y-120079000D01*
X98320015Y-120079000D01*
X98529985Y-120079000D01*
X98529988Y-120079000D01*
X98737379Y-120046152D01*
X98937078Y-119981266D01*
X99124168Y-119885939D01*
X99294043Y-119762518D01*
X99442518Y-119614043D01*
X99565939Y-119444168D01*
X99661266Y-119257078D01*
X99726152Y-119057379D01*
X99759000Y-118849988D01*
X99759000Y-116809751D01*
X99779002Y-116741630D01*
X99795900Y-116720660D01*
X100712518Y-115804043D01*
X100835939Y-115634168D01*
X100861391Y-115584215D01*
X101383500Y-115584215D01*
X101383500Y-115815784D01*
X101413724Y-116045358D01*
X101413725Y-116045364D01*
X101413726Y-116045366D01*
X101473659Y-116269041D01*
X101562275Y-116482979D01*
X101562276Y-116482980D01*
X101562281Y-116482990D01*
X101678055Y-116683516D01*
X101678060Y-116683523D01*
X101819021Y-116867227D01*
X101819040Y-116867248D01*
X101832697Y-116880905D01*
X101866723Y-116943217D01*
X101861658Y-117014032D01*
X101832697Y-117059095D01*
X101819040Y-117072751D01*
X101819021Y-117072772D01*
X101678060Y-117256476D01*
X101678055Y-117256483D01*
X101562281Y-117457009D01*
X101562276Y-117457019D01*
X101473659Y-117670959D01*
X101413724Y-117894641D01*
X101383500Y-118124215D01*
X101383500Y-118355784D01*
X101413724Y-118585358D01*
X101413725Y-118585364D01*
X101413726Y-118585366D01*
X101473659Y-118809041D01*
X101562275Y-119022979D01*
X101562276Y-119022980D01*
X101562281Y-119022990D01*
X101678055Y-119223516D01*
X101678060Y-119223523D01*
X101819021Y-119407227D01*
X101819040Y-119407248D01*
X101832697Y-119420905D01*
X101866723Y-119483217D01*
X101861658Y-119554032D01*
X101832697Y-119599095D01*
X101819040Y-119612751D01*
X101819021Y-119612772D01*
X101678060Y-119796476D01*
X101678055Y-119796483D01*
X101562281Y-119997009D01*
X101562276Y-119997019D01*
X101473659Y-120210959D01*
X101413724Y-120434641D01*
X101383500Y-120664215D01*
X101383500Y-120895784D01*
X101413724Y-121125358D01*
X101413725Y-121125364D01*
X101413726Y-121125366D01*
X101473659Y-121349041D01*
X101562275Y-121562979D01*
X101562276Y-121562980D01*
X101562281Y-121562990D01*
X101678055Y-121763516D01*
X101678060Y-121763523D01*
X101819021Y-121947227D01*
X101819040Y-121947248D01*
X101832697Y-121960905D01*
X101866723Y-122023217D01*
X101861658Y-122094032D01*
X101832697Y-122139095D01*
X101819040Y-122152751D01*
X101819021Y-122152772D01*
X101678060Y-122336476D01*
X101678055Y-122336483D01*
X101562281Y-122537009D01*
X101562276Y-122537019D01*
X101473659Y-122750959D01*
X101413724Y-122974641D01*
X101383500Y-123204215D01*
X101383500Y-123435784D01*
X101413724Y-123665358D01*
X101413725Y-123665364D01*
X101413726Y-123665366D01*
X101473659Y-123889041D01*
X101562275Y-124102979D01*
X101562276Y-124102980D01*
X101562281Y-124102990D01*
X101678055Y-124303516D01*
X101678060Y-124303523D01*
X101819021Y-124487227D01*
X101819040Y-124487248D01*
X101982751Y-124650959D01*
X101982761Y-124650968D01*
X101982767Y-124650974D01*
X101982770Y-124650976D01*
X101982772Y-124650978D01*
X102166476Y-124791939D01*
X102166483Y-124791944D01*
X102316165Y-124878363D01*
X102367021Y-124907725D01*
X102580959Y-124996341D01*
X102804634Y-125056274D01*
X102804640Y-125056274D01*
X102804641Y-125056275D01*
X102826724Y-125059182D01*
X103034217Y-125086500D01*
X103034224Y-125086500D01*
X103265776Y-125086500D01*
X103265783Y-125086500D01*
X103495366Y-125056274D01*
X103719041Y-124996341D01*
X103932979Y-124907725D01*
X104133520Y-124791942D01*
X104317233Y-124650974D01*
X104480974Y-124487233D01*
X104621942Y-124303520D01*
X104737725Y-124102979D01*
X104826341Y-123889041D01*
X104857828Y-123771526D01*
X104894777Y-123710908D01*
X104958637Y-123679886D01*
X105027747Y-123687731D01*
X105120959Y-123726341D01*
X105344634Y-123786274D01*
X105344640Y-123786274D01*
X105344641Y-123786275D01*
X105366724Y-123789182D01*
X105574217Y-123816500D01*
X105574224Y-123816500D01*
X105805776Y-123816500D01*
X105805783Y-123816500D01*
X106035366Y-123786274D01*
X106259041Y-123726341D01*
X106472979Y-123637725D01*
X106673520Y-123521942D01*
X106857233Y-123380974D01*
X107020974Y-123217233D01*
X107161942Y-123033520D01*
X107277725Y-122832979D01*
X107366341Y-122619041D01*
X107426274Y-122395366D01*
X107456500Y-122165783D01*
X107456500Y-121934217D01*
X107426274Y-121704634D01*
X107366341Y-121480959D01*
X107277725Y-121267021D01*
X107195940Y-121125366D01*
X107161944Y-121066483D01*
X107161939Y-121066476D01*
X107020978Y-120882772D01*
X107020976Y-120882770D01*
X107020974Y-120882767D01*
X107007302Y-120869095D01*
X106973277Y-120806787D01*
X106978340Y-120735971D01*
X107007302Y-120690904D01*
X107020974Y-120677233D01*
X107161942Y-120493520D01*
X107277725Y-120292979D01*
X107366341Y-120079041D01*
X107426274Y-119855366D01*
X107456500Y-119625783D01*
X107456500Y-119394217D01*
X107426274Y-119164634D01*
X107366341Y-118940959D01*
X107277725Y-118727021D01*
X107195940Y-118585366D01*
X107161944Y-118526483D01*
X107161939Y-118526476D01*
X107020978Y-118342772D01*
X107020976Y-118342770D01*
X107020974Y-118342767D01*
X107007302Y-118329095D01*
X106973277Y-118266787D01*
X106978340Y-118195971D01*
X107007302Y-118150904D01*
X107020974Y-118137233D01*
X107161942Y-117953520D01*
X107277725Y-117752979D01*
X107366341Y-117539041D01*
X107426274Y-117315366D01*
X107456500Y-117085783D01*
X107456500Y-116854217D01*
X107426274Y-116624634D01*
X107366341Y-116400959D01*
X107287102Y-116209660D01*
X114419500Y-116209660D01*
X114419500Y-116454339D01*
X114451434Y-116696910D01*
X114463417Y-116741630D01*
X114514762Y-116933254D01*
X114608395Y-117159303D01*
X114608396Y-117159304D01*
X114608401Y-117159315D01*
X114730729Y-117371193D01*
X114848976Y-117525296D01*
X114874576Y-117591517D01*
X114860311Y-117661065D01*
X114848976Y-117678704D01*
X114730729Y-117832806D01*
X114608401Y-118044684D01*
X114608396Y-118044695D01*
X114608395Y-118044697D01*
X114575457Y-118124217D01*
X114514762Y-118270746D01*
X114451434Y-118507089D01*
X114419500Y-118749660D01*
X114419500Y-118994339D01*
X114451434Y-119236910D01*
X114451436Y-119236917D01*
X114514762Y-119473254D01*
X114608395Y-119699303D01*
X114608396Y-119699304D01*
X114608401Y-119699315D01*
X114730729Y-119911193D01*
X114848976Y-120065296D01*
X114874576Y-120131517D01*
X114860311Y-120201065D01*
X114848976Y-120218704D01*
X114730729Y-120372806D01*
X114608401Y-120584684D01*
X114608396Y-120584695D01*
X114608395Y-120584697D01*
X114575457Y-120664217D01*
X114514762Y-120810746D01*
X114451434Y-121047089D01*
X114419500Y-121289660D01*
X114419500Y-121534339D01*
X114451434Y-121776910D01*
X114471509Y-121851831D01*
X114514762Y-122013254D01*
X114608395Y-122239303D01*
X114608396Y-122239304D01*
X114608401Y-122239315D01*
X114730729Y-122451193D01*
X114848976Y-122605296D01*
X114874576Y-122671517D01*
X114860311Y-122741065D01*
X114848976Y-122758704D01*
X114730729Y-122912806D01*
X114608401Y-123124684D01*
X114608396Y-123124695D01*
X114608395Y-123124697D01*
X114571675Y-123213347D01*
X114514762Y-123350746D01*
X114451434Y-123587089D01*
X114419500Y-123829660D01*
X114419500Y-124074339D01*
X114451434Y-124316910D01*
X114451435Y-124316912D01*
X114451436Y-124316917D01*
X114514762Y-124553254D01*
X114608395Y-124779303D01*
X114608396Y-124779304D01*
X114608401Y-124779315D01*
X114730729Y-124991193D01*
X114848976Y-125145296D01*
X114874576Y-125211517D01*
X114860311Y-125281065D01*
X114848976Y-125298704D01*
X114730729Y-125452806D01*
X114608401Y-125664684D01*
X114608396Y-125664695D01*
X114608395Y-125664697D01*
X114514762Y-125890746D01*
X114451434Y-126127089D01*
X114419500Y-126369660D01*
X114419500Y-126614339D01*
X114451434Y-126856910D01*
X114451436Y-126856917D01*
X114514762Y-127093254D01*
X114608395Y-127319303D01*
X114608396Y-127319304D01*
X114608401Y-127319315D01*
X114730729Y-127531193D01*
X114848976Y-127685296D01*
X114874576Y-127751517D01*
X114860311Y-127821065D01*
X114848976Y-127838704D01*
X114730729Y-127992806D01*
X114608401Y-128204684D01*
X114608396Y-128204695D01*
X114608395Y-128204697D01*
X114605117Y-128212611D01*
X114514762Y-128430746D01*
X114451434Y-128667089D01*
X114419500Y-128909660D01*
X114419500Y-129154339D01*
X114451434Y-129396910D01*
X114451436Y-129396917D01*
X114514762Y-129633254D01*
X114608395Y-129859303D01*
X114608396Y-129859304D01*
X114608401Y-129859315D01*
X114730729Y-130071193D01*
X114848976Y-130225296D01*
X114874576Y-130291517D01*
X114860311Y-130361065D01*
X114848976Y-130378704D01*
X114730729Y-130532806D01*
X114608401Y-130744684D01*
X114608396Y-130744695D01*
X114514762Y-130970746D01*
X114451434Y-131207089D01*
X114419500Y-131449660D01*
X114419500Y-131694339D01*
X114451434Y-131936910D01*
X114451436Y-131936917D01*
X114514762Y-132173254D01*
X114608395Y-132399303D01*
X114608396Y-132399304D01*
X114608401Y-132399315D01*
X114730729Y-132611193D01*
X114848976Y-132765296D01*
X114874576Y-132831517D01*
X114860311Y-132901065D01*
X114848976Y-132918704D01*
X114730729Y-133072806D01*
X114608401Y-133284684D01*
X114608396Y-133284695D01*
X114608395Y-133284697D01*
X114550026Y-133425612D01*
X114514762Y-133510746D01*
X114451434Y-133747089D01*
X114419500Y-133989660D01*
X114419500Y-134234339D01*
X114451434Y-134476910D01*
X114451436Y-134476917D01*
X114514762Y-134713254D01*
X114608395Y-134939303D01*
X114608396Y-134939304D01*
X114608401Y-134939315D01*
X114730729Y-135151193D01*
X114848976Y-135305296D01*
X114874576Y-135371517D01*
X114860311Y-135441065D01*
X114848976Y-135458704D01*
X114730729Y-135612806D01*
X114608401Y-135824684D01*
X114608396Y-135824695D01*
X114514762Y-136050746D01*
X114451434Y-136287089D01*
X114419500Y-136529660D01*
X114419500Y-136774339D01*
X114451434Y-137016910D01*
X114451436Y-137016917D01*
X114514762Y-137253254D01*
X114608395Y-137479303D01*
X114608396Y-137479304D01*
X114608401Y-137479314D01*
X114655899Y-137561583D01*
X114672637Y-137630578D01*
X114649417Y-137697670D01*
X114644180Y-137704515D01*
X114586727Y-137774523D01*
X114586721Y-137774531D01*
X114492334Y-137951116D01*
X114492332Y-137951122D01*
X114434206Y-138142736D01*
X114434206Y-138142739D01*
X114419500Y-138292057D01*
X114419500Y-140091942D01*
X114434206Y-140241260D01*
X114434206Y-140241263D01*
X114492332Y-140432877D01*
X114492334Y-140432883D01*
X114586720Y-140609466D01*
X114586722Y-140609469D01*
X114713748Y-140764252D01*
X114868531Y-140891278D01*
X115045120Y-140985667D01*
X115236731Y-141043792D01*
X115236736Y-141043792D01*
X115236738Y-141043793D01*
X115346069Y-141054560D01*
X115386066Y-141058500D01*
X115386075Y-141058500D01*
X117185925Y-141058500D01*
X117185934Y-141058500D01*
X117283179Y-141048922D01*
X117335260Y-141043793D01*
X117335263Y-141043793D01*
X117335264Y-141043792D01*
X117335269Y-141043792D01*
X117526880Y-140985667D01*
X117703469Y-140891278D01*
X117858252Y-140764252D01*
X117985278Y-140609469D01*
X118079667Y-140432880D01*
X118137792Y-140241269D01*
X118152500Y-140091934D01*
X118152500Y-138292066D01*
X118137793Y-138142739D01*
X118137793Y-138142736D01*
X118137792Y-138142733D01*
X118137792Y-138142731D01*
X118079667Y-137951120D01*
X117985278Y-137774531D01*
X117927817Y-137704514D01*
X117900065Y-137639169D01*
X117912047Y-137569190D01*
X117916088Y-137561604D01*
X117963605Y-137479303D01*
X118057238Y-137253254D01*
X118120564Y-137016917D01*
X118152500Y-136774337D01*
X118152500Y-136529663D01*
X118120564Y-136287083D01*
X118057238Y-136050746D01*
X117963605Y-135824697D01*
X117963599Y-135824688D01*
X117963598Y-135824684D01*
X117841267Y-135612801D01*
X117723024Y-135458704D01*
X117697423Y-135392484D01*
X117711688Y-135322935D01*
X117723024Y-135305296D01*
X117841267Y-135151198D01*
X117963598Y-134939315D01*
X117963597Y-134939315D01*
X117963605Y-134939303D01*
X118057238Y-134713254D01*
X118120564Y-134476917D01*
X118121601Y-134469044D01*
X118123637Y-134453567D01*
X118152500Y-134234337D01*
X118152500Y-133989663D01*
X118120564Y-133747083D01*
X118057238Y-133510746D01*
X117963605Y-133284697D01*
X117963599Y-133284688D01*
X117963598Y-133284684D01*
X117841267Y-133072801D01*
X117723024Y-132918704D01*
X117697423Y-132852484D01*
X117711688Y-132782935D01*
X117723024Y-132765296D01*
X117841267Y-132611198D01*
X117846354Y-132602388D01*
X117963605Y-132399303D01*
X118057238Y-132173254D01*
X118120564Y-131936917D01*
X118152500Y-131694337D01*
X118152500Y-131449663D01*
X118120564Y-131207083D01*
X118057238Y-130970746D01*
X117963605Y-130744697D01*
X117963599Y-130744688D01*
X117963598Y-130744684D01*
X117841267Y-130532801D01*
X117723024Y-130378704D01*
X117697423Y-130312484D01*
X117711688Y-130242935D01*
X117723024Y-130225296D01*
X117778765Y-130152651D01*
X117841268Y-130071197D01*
X117963605Y-129859303D01*
X118057238Y-129633254D01*
X118120564Y-129396917D01*
X118152500Y-129154337D01*
X118152500Y-128909663D01*
X118120564Y-128667083D01*
X118093896Y-128567558D01*
X133186100Y-128567558D01*
X133186100Y-129522642D01*
X133196637Y-129656525D01*
X133196637Y-129656528D01*
X133196638Y-129656529D01*
X133252339Y-129877585D01*
X133252342Y-129877594D01*
X133346618Y-130085149D01*
X133346620Y-130085152D01*
X133346621Y-130085154D01*
X133424188Y-130197116D01*
X133476449Y-130272551D01*
X133476457Y-130272560D01*
X133637639Y-130433742D01*
X133637646Y-130433748D01*
X133637650Y-130433752D01*
X133714355Y-130486892D01*
X133758959Y-130542126D01*
X133768600Y-130590464D01*
X133768600Y-132052988D01*
X133762433Y-132091924D01*
X133698849Y-132287616D01*
X133698848Y-132287619D01*
X133698848Y-132287621D01*
X133666000Y-132495012D01*
X133666000Y-132704988D01*
X133697056Y-132901065D01*
X133698849Y-132912383D01*
X133750973Y-133072806D01*
X133763734Y-133112078D01*
X133859061Y-133299168D01*
X133982482Y-133469043D01*
X133982484Y-133469045D01*
X133982486Y-133469048D01*
X134130951Y-133617513D01*
X134130954Y-133617515D01*
X134130957Y-133617518D01*
X134300832Y-133740939D01*
X134487922Y-133836266D01*
X134687621Y-133901152D01*
X134895012Y-133934000D01*
X134895015Y-133934000D01*
X135104985Y-133934000D01*
X135104988Y-133934000D01*
X135312379Y-133901152D01*
X135512078Y-133836266D01*
X135699168Y-133740939D01*
X135869043Y-133617518D01*
X136120118Y-133366443D01*
X136174408Y-133291719D01*
X136243539Y-133196568D01*
X136338866Y-133009478D01*
X136403752Y-132809779D01*
X136436600Y-132602388D01*
X136436600Y-130590464D01*
X136437452Y-130587562D01*
X136436735Y-130584622D01*
X136447393Y-130553705D01*
X136456602Y-130522343D01*
X136459186Y-130519496D01*
X136459874Y-130517502D01*
X136470817Y-130506685D01*
X136484591Y-130491516D01*
X136487632Y-130489118D01*
X136567550Y-130433752D01*
X136603652Y-130397649D01*
X136609484Y-130393052D01*
X136635812Y-130382474D01*
X136660710Y-130368879D01*
X136672919Y-130367566D01*
X136675363Y-130366585D01*
X136677767Y-130367045D01*
X136687493Y-130366000D01*
X137468797Y-130366000D01*
X137536918Y-130386002D01*
X137583411Y-130439658D01*
X137593515Y-130509932D01*
X137577916Y-130555000D01*
X137468401Y-130744684D01*
X137468396Y-130744695D01*
X137374762Y-130970746D01*
X137311434Y-131207089D01*
X137279500Y-131449660D01*
X137279500Y-131694339D01*
X137311434Y-131936910D01*
X137311436Y-131936917D01*
X137374762Y-132173254D01*
X137468395Y-132399303D01*
X137468396Y-132399304D01*
X137468401Y-132399315D01*
X137590729Y-132611193D01*
X137708976Y-132765296D01*
X137734576Y-132831517D01*
X137720311Y-132901065D01*
X137708976Y-132918704D01*
X137590729Y-133072806D01*
X137468401Y-133284684D01*
X137468396Y-133284695D01*
X137468395Y-133284697D01*
X137410026Y-133425612D01*
X137374762Y-133510746D01*
X137311434Y-133747089D01*
X137279500Y-133989660D01*
X137279500Y-134234339D01*
X137311434Y-134476910D01*
X137311436Y-134476917D01*
X137374762Y-134713254D01*
X137468395Y-134939303D01*
X137468396Y-134939304D01*
X137468401Y-134939315D01*
X137590729Y-135151193D01*
X137708976Y-135305296D01*
X137734576Y-135371517D01*
X137720311Y-135441065D01*
X137708976Y-135458704D01*
X137590729Y-135612806D01*
X137468401Y-135824684D01*
X137468396Y-135824695D01*
X137374762Y-136050746D01*
X137311434Y-136287089D01*
X137279500Y-136529660D01*
X137279500Y-136774339D01*
X137311434Y-137016910D01*
X137311436Y-137016917D01*
X137374762Y-137253254D01*
X137468395Y-137479303D01*
X137468396Y-137479304D01*
X137468401Y-137479314D01*
X137515899Y-137561583D01*
X137532637Y-137630578D01*
X137509417Y-137697670D01*
X137504180Y-137704515D01*
X137446727Y-137774523D01*
X137446721Y-137774531D01*
X137352334Y-137951116D01*
X137352332Y-137951122D01*
X137294206Y-138142736D01*
X137294206Y-138142739D01*
X137279500Y-138292057D01*
X137279500Y-140091942D01*
X137294206Y-140241260D01*
X137294206Y-140241263D01*
X137352332Y-140432877D01*
X137352334Y-140432883D01*
X137446720Y-140609466D01*
X137446722Y-140609469D01*
X137573748Y-140764252D01*
X137728531Y-140891278D01*
X137905120Y-140985667D01*
X138096731Y-141043792D01*
X138096736Y-141043792D01*
X138096738Y-141043793D01*
X138206069Y-141054560D01*
X138246066Y-141058500D01*
X138246075Y-141058500D01*
X140045925Y-141058500D01*
X140045934Y-141058500D01*
X140143179Y-141048922D01*
X140195260Y-141043793D01*
X140195263Y-141043793D01*
X140195264Y-141043792D01*
X140195269Y-141043792D01*
X140386880Y-140985667D01*
X140563469Y-140891278D01*
X140718252Y-140764252D01*
X140845278Y-140609469D01*
X140939667Y-140432880D01*
X140997792Y-140241269D01*
X141012500Y-140091934D01*
X141012500Y-138292066D01*
X140997793Y-138142739D01*
X140997793Y-138142736D01*
X140997792Y-138142733D01*
X140997792Y-138142731D01*
X140939667Y-137951120D01*
X140845278Y-137774531D01*
X140787817Y-137704514D01*
X140760065Y-137639169D01*
X140772047Y-137569190D01*
X140776088Y-137561604D01*
X140823605Y-137479303D01*
X140917238Y-137253254D01*
X140980564Y-137016917D01*
X141012500Y-136774337D01*
X141012500Y-136529663D01*
X140980564Y-136287083D01*
X140917238Y-136050746D01*
X140823605Y-135824697D01*
X140823599Y-135824688D01*
X140823598Y-135824684D01*
X140701267Y-135612801D01*
X140583024Y-135458704D01*
X140557423Y-135392484D01*
X140571688Y-135322935D01*
X140583024Y-135305296D01*
X140701267Y-135151198D01*
X140823598Y-134939315D01*
X140823597Y-134939315D01*
X140823605Y-134939303D01*
X140917238Y-134713254D01*
X140980564Y-134476917D01*
X140981601Y-134469044D01*
X140983637Y-134453567D01*
X141012500Y-134234337D01*
X141012500Y-133989663D01*
X140980564Y-133747083D01*
X140917238Y-133510746D01*
X140823605Y-133284697D01*
X140823599Y-133284688D01*
X140823598Y-133284684D01*
X140701267Y-133072801D01*
X140583024Y-132918704D01*
X140557423Y-132852484D01*
X140571688Y-132782935D01*
X140583024Y-132765296D01*
X140701267Y-132611198D01*
X140706354Y-132602388D01*
X140823605Y-132399303D01*
X140917238Y-132173254D01*
X140980564Y-131936917D01*
X141012500Y-131694337D01*
X141012500Y-131449663D01*
X140980564Y-131207083D01*
X140917238Y-130970746D01*
X140823605Y-130744697D01*
X140823599Y-130744688D01*
X140823598Y-130744684D01*
X140701267Y-130532801D01*
X140583024Y-130378704D01*
X140557423Y-130312484D01*
X140571688Y-130242935D01*
X140583024Y-130225296D01*
X140638765Y-130152651D01*
X140701268Y-130071197D01*
X140823605Y-129859303D01*
X140917238Y-129633254D01*
X140980564Y-129396917D01*
X141012500Y-129154337D01*
X141012500Y-128909663D01*
X140980564Y-128667083D01*
X140917238Y-128430746D01*
X140823605Y-128204697D01*
X140823599Y-128204688D01*
X140823598Y-128204684D01*
X140701267Y-127992801D01*
X140583024Y-127838704D01*
X140557423Y-127772484D01*
X140571688Y-127702935D01*
X140583024Y-127685296D01*
X140701267Y-127531198D01*
X140703912Y-127526618D01*
X140823605Y-127319303D01*
X140917238Y-127093254D01*
X140980564Y-126856917D01*
X141012500Y-126614337D01*
X141012500Y-126369663D01*
X140980564Y-126127083D01*
X140917238Y-125890746D01*
X140823605Y-125664697D01*
X140823599Y-125664688D01*
X140823598Y-125664684D01*
X140701267Y-125452801D01*
X140583024Y-125298704D01*
X140557423Y-125232484D01*
X140571688Y-125162935D01*
X140583024Y-125145296D01*
X140697321Y-124996341D01*
X140701268Y-124991197D01*
X140823605Y-124779303D01*
X140917238Y-124553254D01*
X140980564Y-124316917D01*
X141012500Y-124074337D01*
X141012500Y-123829663D01*
X140980564Y-123587083D01*
X140917238Y-123350746D01*
X140823605Y-123124697D01*
X140823599Y-123124688D01*
X140823598Y-123124684D01*
X140701267Y-122912801D01*
X140583024Y-122758704D01*
X140557423Y-122692484D01*
X140571688Y-122622935D01*
X140583024Y-122605296D01*
X140701267Y-122451198D01*
X140733507Y-122395358D01*
X140823605Y-122239303D01*
X140917238Y-122013254D01*
X140980564Y-121776917D01*
X141012500Y-121534337D01*
X141012500Y-121289663D01*
X140980564Y-121047083D01*
X140917238Y-120810746D01*
X140823605Y-120584697D01*
X140823599Y-120584688D01*
X140823598Y-120584684D01*
X140701267Y-120372801D01*
X140583024Y-120218704D01*
X140557423Y-120152484D01*
X140571688Y-120082935D01*
X140583024Y-120065296D01*
X140701267Y-119911198D01*
X140715851Y-119885939D01*
X140823605Y-119699303D01*
X140917238Y-119473254D01*
X140980564Y-119236917D01*
X141012500Y-118994337D01*
X141012500Y-118749663D01*
X140980564Y-118507083D01*
X140917238Y-118270746D01*
X140823605Y-118044697D01*
X140823599Y-118044688D01*
X140823598Y-118044684D01*
X140701267Y-117832801D01*
X140583024Y-117678704D01*
X140557423Y-117612484D01*
X140571688Y-117542935D01*
X140583024Y-117525296D01*
X140701267Y-117371198D01*
X140733507Y-117315358D01*
X140823605Y-117159303D01*
X140917238Y-116933254D01*
X140980564Y-116696917D01*
X141012500Y-116454337D01*
X141012500Y-116209663D01*
X140983117Y-115986476D01*
X140980565Y-115967089D01*
X140980564Y-115967087D01*
X140980564Y-115967083D01*
X140917238Y-115730746D01*
X140823605Y-115504697D01*
X140823599Y-115504688D01*
X140823598Y-115504684D01*
X140701270Y-115292806D01*
X140693040Y-115282080D01*
X140552320Y-115098690D01*
X140552314Y-115098684D01*
X140552310Y-115098679D01*
X140379320Y-114925689D01*
X140379314Y-114925684D01*
X140379310Y-114925680D01*
X140185197Y-114776732D01*
X140185196Y-114776731D01*
X140185193Y-114776729D01*
X139973315Y-114654401D01*
X139973307Y-114654397D01*
X139973303Y-114654395D01*
X139747254Y-114560762D01*
X139510917Y-114497436D01*
X139510910Y-114497434D01*
X139268339Y-114465500D01*
X139268337Y-114465500D01*
X139023663Y-114465500D01*
X139023660Y-114465500D01*
X138781089Y-114497434D01*
X138544746Y-114560762D01*
X138318695Y-114654396D01*
X138318684Y-114654401D01*
X138106806Y-114776729D01*
X137912690Y-114925680D01*
X137912679Y-114925689D01*
X137739689Y-115098679D01*
X137739680Y-115098690D01*
X137590729Y-115292806D01*
X137468401Y-115504684D01*
X137468396Y-115504695D01*
X137468395Y-115504697D01*
X137435457Y-115584217D01*
X137374762Y-115730746D01*
X137311434Y-115967089D01*
X137279500Y-116209660D01*
X137279500Y-116454339D01*
X137311434Y-116696910D01*
X137323417Y-116741630D01*
X137374762Y-116933254D01*
X137468395Y-117159303D01*
X137468396Y-117159304D01*
X137468401Y-117159315D01*
X137590729Y-117371193D01*
X137708976Y-117525296D01*
X137734576Y-117591517D01*
X137720311Y-117661065D01*
X137708976Y-117678704D01*
X137590729Y-117832806D01*
X137468401Y-118044684D01*
X137468396Y-118044695D01*
X137468395Y-118044697D01*
X137435457Y-118124217D01*
X137374762Y-118270746D01*
X137311434Y-118507089D01*
X137279500Y-118749660D01*
X137279500Y-118994339D01*
X137311434Y-119236910D01*
X137311436Y-119236917D01*
X137374762Y-119473254D01*
X137468395Y-119699303D01*
X137468396Y-119699304D01*
X137468401Y-119699315D01*
X137590729Y-119911193D01*
X137708976Y-120065296D01*
X137734576Y-120131517D01*
X137720311Y-120201065D01*
X137708976Y-120218704D01*
X137590729Y-120372806D01*
X137468401Y-120584684D01*
X137468396Y-120584695D01*
X137468395Y-120584697D01*
X137435457Y-120664217D01*
X137374762Y-120810746D01*
X137311434Y-121047089D01*
X137279500Y-121289660D01*
X137279500Y-121534339D01*
X137311434Y-121776910D01*
X137331509Y-121851831D01*
X137374762Y-122013254D01*
X137468395Y-122239303D01*
X137468396Y-122239304D01*
X137468401Y-122239315D01*
X137590729Y-122451193D01*
X137708976Y-122605296D01*
X137734576Y-122671517D01*
X137720311Y-122741065D01*
X137708976Y-122758704D01*
X137590729Y-122912806D01*
X137468401Y-123124684D01*
X137468396Y-123124695D01*
X137468395Y-123124697D01*
X137431675Y-123213347D01*
X137374762Y-123350746D01*
X137311434Y-123587089D01*
X137279500Y-123829660D01*
X137279500Y-124074339D01*
X137311434Y-124316910D01*
X137311435Y-124316912D01*
X137311436Y-124316917D01*
X137374762Y-124553254D01*
X137468395Y-124779303D01*
X137468396Y-124779304D01*
X137468401Y-124779315D01*
X137590729Y-124991193D01*
X137708976Y-125145296D01*
X137734576Y-125211517D01*
X137720311Y-125281065D01*
X137708976Y-125298704D01*
X137590729Y-125452806D01*
X137468401Y-125664684D01*
X137468396Y-125664695D01*
X137468395Y-125664697D01*
X137374762Y-125890746D01*
X137311434Y-126127089D01*
X137279500Y-126369660D01*
X137279500Y-126614339D01*
X137311434Y-126856910D01*
X137311436Y-126856917D01*
X137374762Y-127093254D01*
X137468395Y-127319303D01*
X137468396Y-127319304D01*
X137468401Y-127319315D01*
X137577916Y-127509000D01*
X137594654Y-127577995D01*
X137571434Y-127645087D01*
X137515627Y-127688974D01*
X137468797Y-127698000D01*
X136661293Y-127698000D01*
X136593172Y-127677998D01*
X136572198Y-127661095D01*
X136567560Y-127656457D01*
X136567551Y-127656449D01*
X136486071Y-127600000D01*
X136380154Y-127526621D01*
X136380152Y-127526620D01*
X136380149Y-127526618D01*
X136172594Y-127432342D01*
X136172591Y-127432341D01*
X136172589Y-127432340D01*
X136073191Y-127407294D01*
X136012022Y-127371253D01*
X135980049Y-127307864D01*
X135987422Y-127237251D01*
X136031801Y-127181834D01*
X136065493Y-127166142D01*
X136065338Y-127165737D01*
X136071178Y-127163495D01*
X136071374Y-127163404D01*
X136071505Y-127163368D01*
X136237258Y-127078912D01*
X136237261Y-127078911D01*
X136381836Y-126961836D01*
X136498911Y-126817261D01*
X136498912Y-126817258D01*
X136583369Y-126651502D01*
X136631517Y-126471810D01*
X136637600Y-126394538D01*
X136637600Y-126174100D01*
X133567600Y-126174100D01*
X133567600Y-126394538D01*
X133573682Y-126471810D01*
X133621830Y-126651502D01*
X133706287Y-126817258D01*
X133706288Y-126817261D01*
X133823363Y-126961836D01*
X133967938Y-127078911D01*
X133967941Y-127078912D01*
X134133698Y-127163370D01*
X134133830Y-127163406D01*
X134133898Y-127163448D01*
X134139862Y-127165737D01*
X134139443Y-127166827D01*
X134194453Y-127200356D01*
X134225476Y-127264216D01*
X134217049Y-127334710D01*
X134171847Y-127389458D01*
X134132008Y-127407294D01*
X134032614Y-127432339D01*
X134032605Y-127432342D01*
X133825050Y-127526618D01*
X133637648Y-127656449D01*
X133637639Y-127656457D01*
X133476457Y-127817639D01*
X133476449Y-127817648D01*
X133346618Y-128005050D01*
X133252342Y-128212605D01*
X133252339Y-128212614D01*
X133225108Y-128320686D01*
X133196637Y-128433675D01*
X133186100Y-128567558D01*
X118093896Y-128567558D01*
X118057238Y-128430746D01*
X117963605Y-128204697D01*
X117963599Y-128204688D01*
X117963598Y-128204684D01*
X117841267Y-127992801D01*
X117723024Y-127838704D01*
X117697423Y-127772484D01*
X117711688Y-127702935D01*
X117723024Y-127685296D01*
X117841267Y-127531198D01*
X117843912Y-127526618D01*
X117963605Y-127319303D01*
X118057238Y-127093254D01*
X118120564Y-126856917D01*
X118152500Y-126614337D01*
X118152500Y-126369663D01*
X118120564Y-126127083D01*
X118057238Y-125890746D01*
X117963605Y-125664697D01*
X117963599Y-125664688D01*
X117963598Y-125664684D01*
X117872088Y-125506184D01*
X117841267Y-125452801D01*
X117835788Y-125445661D01*
X133567600Y-125445661D01*
X133567600Y-125666100D01*
X134848600Y-125666100D01*
X135356600Y-125666100D01*
X136637600Y-125666100D01*
X136637600Y-125445661D01*
X136631517Y-125368389D01*
X136583369Y-125188697D01*
X136498912Y-125022941D01*
X136498911Y-125022938D01*
X136381836Y-124878363D01*
X136237261Y-124761288D01*
X136237258Y-124761287D01*
X136071502Y-124676830D01*
X135891810Y-124628682D01*
X135814539Y-124622600D01*
X135356600Y-124622600D01*
X135356600Y-125666100D01*
X134848600Y-125666100D01*
X134848600Y-124622600D01*
X134390661Y-124622600D01*
X134313389Y-124628682D01*
X134133697Y-124676830D01*
X133967941Y-124761287D01*
X133967938Y-124761288D01*
X133823363Y-124878363D01*
X133706288Y-125022938D01*
X133706287Y-125022941D01*
X133621830Y-125188697D01*
X133573682Y-125368389D01*
X133567600Y-125445661D01*
X117835788Y-125445661D01*
X117723024Y-125298704D01*
X117697423Y-125232484D01*
X117711688Y-125162935D01*
X117723024Y-125145296D01*
X117837321Y-124996341D01*
X117841268Y-124991197D01*
X117963605Y-124779303D01*
X118057238Y-124553254D01*
X118120564Y-124316917D01*
X118152500Y-124074337D01*
X118152500Y-123829663D01*
X118120564Y-123587083D01*
X118057238Y-123350746D01*
X117963605Y-123124697D01*
X117963599Y-123124688D01*
X117963598Y-123124684D01*
X117841267Y-122912801D01*
X117723024Y-122758704D01*
X117697423Y-122692484D01*
X117711688Y-122622935D01*
X117723024Y-122605296D01*
X117841267Y-122451198D01*
X117873507Y-122395358D01*
X117963605Y-122239303D01*
X118057238Y-122013254D01*
X118120564Y-121776917D01*
X118152500Y-121534337D01*
X118152500Y-121289663D01*
X118120564Y-121047083D01*
X118057238Y-120810746D01*
X117963605Y-120584697D01*
X117963599Y-120584688D01*
X117963598Y-120584684D01*
X117841267Y-120372801D01*
X117723024Y-120218704D01*
X117697423Y-120152484D01*
X117711688Y-120082935D01*
X117723024Y-120065296D01*
X117841267Y-119911198D01*
X117855851Y-119885939D01*
X117963605Y-119699303D01*
X118057238Y-119473254D01*
X118120564Y-119236917D01*
X118152500Y-118994337D01*
X118152500Y-118749663D01*
X118120564Y-118507083D01*
X118057238Y-118270746D01*
X117963605Y-118044697D01*
X117963599Y-118044688D01*
X117963598Y-118044684D01*
X117841267Y-117832801D01*
X117723024Y-117678704D01*
X117697423Y-117612484D01*
X117711688Y-117542935D01*
X117723024Y-117525296D01*
X117841267Y-117371198D01*
X117873507Y-117315358D01*
X117963605Y-117159303D01*
X118057238Y-116933254D01*
X118120564Y-116696917D01*
X118152500Y-116454337D01*
X118152500Y-116209663D01*
X118123117Y-115986476D01*
X118120565Y-115967089D01*
X118120564Y-115967087D01*
X118120564Y-115967083D01*
X118057238Y-115730746D01*
X117963605Y-115504697D01*
X117963599Y-115504688D01*
X117963598Y-115504684D01*
X117841270Y-115292806D01*
X117833040Y-115282080D01*
X117692320Y-115098690D01*
X117692314Y-115098684D01*
X117692310Y-115098679D01*
X117519320Y-114925689D01*
X117519314Y-114925684D01*
X117519310Y-114925680D01*
X117325197Y-114776732D01*
X117325196Y-114776731D01*
X117325193Y-114776729D01*
X117113315Y-114654401D01*
X117113307Y-114654397D01*
X117113303Y-114654395D01*
X116887254Y-114560762D01*
X116650917Y-114497436D01*
X116650910Y-114497434D01*
X116408339Y-114465500D01*
X116408337Y-114465500D01*
X116163663Y-114465500D01*
X116163660Y-114465500D01*
X115921089Y-114497434D01*
X115684746Y-114560762D01*
X115458695Y-114654396D01*
X115458684Y-114654401D01*
X115246806Y-114776729D01*
X115052690Y-114925680D01*
X115052679Y-114925689D01*
X114879689Y-115098679D01*
X114879680Y-115098690D01*
X114730729Y-115292806D01*
X114608401Y-115504684D01*
X114608396Y-115504695D01*
X114608395Y-115504697D01*
X114575457Y-115584217D01*
X114514762Y-115730746D01*
X114451434Y-115967089D01*
X114419500Y-116209660D01*
X107287102Y-116209660D01*
X107277725Y-116187021D01*
X107195940Y-116045366D01*
X107161944Y-115986483D01*
X107161939Y-115986476D01*
X107020978Y-115802772D01*
X107020976Y-115802770D01*
X107020974Y-115802767D01*
X107007302Y-115789095D01*
X106973277Y-115726787D01*
X106978340Y-115655971D01*
X107007302Y-115610904D01*
X107020974Y-115597233D01*
X107161942Y-115413520D01*
X107277725Y-115212979D01*
X107366341Y-114999041D01*
X107426274Y-114775366D01*
X107456500Y-114545783D01*
X107456500Y-114314217D01*
X107426274Y-114084634D01*
X107366341Y-113860959D01*
X107277725Y-113647021D01*
X107161942Y-113446480D01*
X107020974Y-113262767D01*
X107020968Y-113262761D01*
X107020959Y-113262751D01*
X106857248Y-113099040D01*
X106857227Y-113099021D01*
X106673523Y-112958060D01*
X106673516Y-112958055D01*
X106472990Y-112842281D01*
X106472985Y-112842278D01*
X106472979Y-112842275D01*
X106259041Y-112753659D01*
X106035366Y-112693726D01*
X106035364Y-112693725D01*
X106035358Y-112693724D01*
X105805784Y-112663500D01*
X105805783Y-112663500D01*
X105574217Y-112663500D01*
X105574215Y-112663500D01*
X105344641Y-112693724D01*
X105120959Y-112753659D01*
X104907019Y-112842276D01*
X104907009Y-112842281D01*
X104706483Y-112958055D01*
X104706476Y-112958060D01*
X104522772Y-113099021D01*
X104522751Y-113099040D01*
X104359040Y-113262751D01*
X104359021Y-113262772D01*
X104218060Y-113446476D01*
X104218055Y-113446483D01*
X104102281Y-113647009D01*
X104102276Y-113647019D01*
X104102275Y-113647021D01*
X104013659Y-113860959D01*
X103986124Y-113963724D01*
X103982173Y-113978469D01*
X103945221Y-114039092D01*
X103881361Y-114070113D01*
X103812249Y-114062267D01*
X103719041Y-114023659D01*
X103495366Y-113963726D01*
X103495364Y-113963725D01*
X103495358Y-113963724D01*
X103265784Y-113933500D01*
X103265783Y-113933500D01*
X103034217Y-113933500D01*
X103034215Y-113933500D01*
X102804641Y-113963724D01*
X102804634Y-113963726D01*
X102580959Y-114023659D01*
X102433736Y-114084641D01*
X102367019Y-114112276D01*
X102367009Y-114112281D01*
X102166483Y-114228055D01*
X102166476Y-114228060D01*
X101982772Y-114369021D01*
X101982751Y-114369040D01*
X101819040Y-114532751D01*
X101819021Y-114532772D01*
X101678060Y-114716476D01*
X101678055Y-114716483D01*
X101562281Y-114917009D01*
X101562276Y-114917019D01*
X101562275Y-114917021D01*
X101504538Y-115056410D01*
X101473659Y-115130959D01*
X101413724Y-115354641D01*
X101383500Y-115584215D01*
X100861391Y-115584215D01*
X100931266Y-115447078D01*
X100996152Y-115247379D01*
X101029000Y-115039988D01*
X101029000Y-114830012D01*
X100996152Y-114622621D01*
X100931266Y-114422922D01*
X100835939Y-114235832D01*
X100712518Y-114065957D01*
X100712515Y-114065954D01*
X100712513Y-114065951D01*
X100564048Y-113917486D01*
X100564045Y-113917484D01*
X100564043Y-113917482D01*
X100394168Y-113794061D01*
X100207078Y-113698734D01*
X100207075Y-113698733D01*
X100207073Y-113698732D01*
X100007383Y-113633849D01*
X100007381Y-113633848D01*
X100007379Y-113633848D01*
X99799988Y-113601000D01*
X99799985Y-113601000D01*
X99750785Y-113601000D01*
X99682664Y-113580998D01*
X99636171Y-113527342D01*
X99625577Y-113460892D01*
X99627202Y-113446476D01*
X99641500Y-113319575D01*
X99641500Y-113011000D01*
X99661502Y-112942879D01*
X99715158Y-112896386D01*
X99767500Y-112885000D01*
X99973541Y-112885000D01*
X99973552Y-112884999D01*
X100218524Y-112852749D01*
X100218529Y-112852748D01*
X100457213Y-112788793D01*
X100685504Y-112694232D01*
X100685515Y-112694226D01*
X100899493Y-112570686D01*
X100899499Y-112570682D01*
X100991146Y-112500358D01*
X100991147Y-112500357D01*
X100246561Y-111755771D01*
X100252626Y-111753260D01*
X100391844Y-111660238D01*
X100510238Y-111541844D01*
X100603260Y-111402626D01*
X100605771Y-111396562D01*
X101350356Y-112141147D01*
X101350358Y-112141146D01*
X101420682Y-112049499D01*
X101420686Y-112049493D01*
X101544226Y-111835515D01*
X101544232Y-111835504D01*
X101638793Y-111607213D01*
X101702748Y-111368529D01*
X101702749Y-111368524D01*
X101734999Y-111123552D01*
X101735000Y-111123540D01*
X101735000Y-110876459D01*
X101734999Y-110876447D01*
X101702749Y-110631475D01*
X101702748Y-110631470D01*
X101638793Y-110392786D01*
X101544232Y-110164495D01*
X101544226Y-110164484D01*
X101420686Y-109950506D01*
X101350357Y-109858851D01*
X100605771Y-110603437D01*
X100603260Y-110597374D01*
X100510238Y-110458156D01*
X100391844Y-110339762D01*
X100252626Y-110246740D01*
X100246561Y-110244227D01*
X100991146Y-109499642D01*
X100990263Y-109486160D01*
X101005766Y-109416876D01*
X101056266Y-109366974D01*
X101099544Y-109352996D01*
X101470309Y-109304184D01*
X101534720Y-109295705D01*
X101534721Y-109295704D01*
X101534727Y-109295704D01*
X102139409Y-109175425D01*
X102734930Y-109015855D01*
X103318739Y-108817679D01*
X103888337Y-108581744D01*
X104441285Y-108309060D01*
X104975214Y-108000796D01*
X105487839Y-107658271D01*
X105976964Y-107282952D01*
X106440495Y-106876446D01*
X106876446Y-106440495D01*
X107282952Y-105976964D01*
X107658271Y-105487839D01*
X108000796Y-104975214D01*
X108309060Y-104441285D01*
X108581744Y-103888337D01*
X108817679Y-103318739D01*
X109015855Y-102734930D01*
X109175425Y-102139409D01*
X109295704Y-101534727D01*
X109376177Y-100923473D01*
X109380336Y-100860012D01*
X111696000Y-100860012D01*
X111696000Y-104696488D01*
X111711949Y-104797183D01*
X111713500Y-104816894D01*
X111713500Y-104878611D01*
X111745916Y-105083281D01*
X111745917Y-105083286D01*
X111763894Y-105138612D01*
X111809951Y-105280361D01*
X111809952Y-105280362D01*
X111904030Y-105464999D01*
X111905355Y-105466823D01*
X112025830Y-105632642D01*
X112025832Y-105632644D01*
X112025834Y-105632647D01*
X112172352Y-105779165D01*
X112172355Y-105779167D01*
X112172358Y-105779170D01*
X112340004Y-105900972D01*
X112524639Y-105995049D01*
X112721719Y-106059084D01*
X112926389Y-106091500D01*
X112926392Y-106091500D01*
X113133608Y-106091500D01*
X113133611Y-106091500D01*
X113338281Y-106059084D01*
X113535361Y-105995049D01*
X113719996Y-105900972D01*
X113887642Y-105779170D01*
X114034170Y-105632642D01*
X114155972Y-105464996D01*
X114250049Y-105280361D01*
X114314084Y-105083281D01*
X114346500Y-104878611D01*
X114346500Y-104816894D01*
X114348051Y-104797183D01*
X114364000Y-104696488D01*
X114364000Y-100860012D01*
X114331152Y-100652621D01*
X114266266Y-100452922D01*
X114170939Y-100265832D01*
X114047518Y-100095957D01*
X114047515Y-100095954D01*
X114047513Y-100095951D01*
X113899048Y-99947486D01*
X113899045Y-99947484D01*
X113899043Y-99947482D01*
X113729168Y-99824061D01*
X113582647Y-99749405D01*
X129983500Y-99749405D01*
X129983500Y-100250595D01*
X129984590Y-100265832D01*
X130019252Y-100750497D01*
X130019255Y-100750526D01*
X130090578Y-101246581D01*
X130090580Y-101246594D01*
X130090581Y-101246596D01*
X130197116Y-101736333D01*
X130338318Y-102217221D01*
X130513466Y-102686810D01*
X130721668Y-103142709D01*
X130961862Y-103582593D01*
X131232826Y-104004220D01*
X131533178Y-104405444D01*
X131861388Y-104784218D01*
X131861393Y-104784223D01*
X131861400Y-104784231D01*
X132215768Y-105138599D01*
X132215775Y-105138605D01*
X132215782Y-105138612D01*
X132594556Y-105466822D01*
X132995780Y-105767174D01*
X133417407Y-106038138D01*
X133857291Y-106278332D01*
X134313190Y-106486534D01*
X134782779Y-106661682D01*
X135263667Y-106802884D01*
X135753404Y-106909419D01*
X135753418Y-106909421D01*
X136249473Y-106980744D01*
X136249502Y-106980747D01*
X136448925Y-106995009D01*
X136749405Y-107016500D01*
X136749411Y-107016500D01*
X137250589Y-107016500D01*
X137250595Y-107016500D01*
X137584528Y-106992616D01*
X137750497Y-106980747D01*
X137750503Y-106980746D01*
X137750508Y-106980746D01*
X137750511Y-106980745D01*
X137750526Y-106980744D01*
X138142212Y-106924427D01*
X138246596Y-106909419D01*
X138736333Y-106802884D01*
X139217221Y-106661682D01*
X139686810Y-106486534D01*
X140142709Y-106278332D01*
X140582593Y-106038138D01*
X141004220Y-105767174D01*
X141405444Y-105466822D01*
X141784218Y-105138612D01*
X142138612Y-104784218D01*
X142466822Y-104405444D01*
X142767174Y-104004220D01*
X143038138Y-103582593D01*
X143278332Y-103142709D01*
X143486534Y-102686810D01*
X143661682Y-102217221D01*
X143802884Y-101736333D01*
X143909419Y-101246596D01*
X143955876Y-100923482D01*
X143980744Y-100750526D01*
X143980747Y-100750497D01*
X144002029Y-100452922D01*
X144016500Y-100250595D01*
X144016500Y-99749405D01*
X143980746Y-99249492D01*
X143980745Y-99249491D01*
X143980744Y-99249473D01*
X143909421Y-98753418D01*
X143909419Y-98753404D01*
X143802884Y-98263667D01*
X143661682Y-97782779D01*
X143486534Y-97313190D01*
X143278332Y-96857291D01*
X143038138Y-96417407D01*
X142767174Y-95995780D01*
X142466822Y-95594556D01*
X142138612Y-95215782D01*
X142138605Y-95215775D01*
X142138599Y-95215768D01*
X141784231Y-94861400D01*
X141784223Y-94861393D01*
X141784218Y-94861388D01*
X141405444Y-94533178D01*
X141004220Y-94232826D01*
X140677791Y-94023042D01*
X140582595Y-93961863D01*
X140142716Y-93721672D01*
X140142717Y-93721672D01*
X140142712Y-93721670D01*
X140142709Y-93721668D01*
X139686810Y-93513466D01*
X139686803Y-93513463D01*
X139217222Y-93338318D01*
X138736344Y-93197119D01*
X138736340Y-93197118D01*
X138736333Y-93197116D01*
X138246596Y-93090581D01*
X138246594Y-93090580D01*
X138246581Y-93090578D01*
X137750526Y-93019255D01*
X137750497Y-93019252D01*
X137381204Y-92992841D01*
X137250595Y-92983500D01*
X136749405Y-92983500D01*
X136624246Y-92992451D01*
X136249502Y-93019252D01*
X136249473Y-93019255D01*
X135753418Y-93090578D01*
X135753394Y-93090583D01*
X135601828Y-93123554D01*
X135263667Y-93197116D01*
X135263661Y-93197117D01*
X135263655Y-93197119D01*
X134782777Y-93338318D01*
X134313196Y-93513463D01*
X134313189Y-93513466D01*
X133857282Y-93721672D01*
X133417404Y-93961863D01*
X132995781Y-94232825D01*
X132594558Y-94533176D01*
X132215768Y-94861400D01*
X131861400Y-95215768D01*
X131533176Y-95594558D01*
X131232825Y-95995781D01*
X130961863Y-96417404D01*
X130721672Y-96857282D01*
X130513466Y-97313189D01*
X130513463Y-97313196D01*
X130338318Y-97782777D01*
X130197119Y-98263655D01*
X130090583Y-98753394D01*
X130090578Y-98753418D01*
X130019255Y-99249473D01*
X130019252Y-99249502D01*
X129991968Y-99631000D01*
X129983500Y-99749405D01*
X113582647Y-99749405D01*
X113542078Y-99728734D01*
X113542075Y-99728733D01*
X113542073Y-99728732D01*
X113342383Y-99663849D01*
X113342381Y-99663848D01*
X113342379Y-99663848D01*
X113134988Y-99631000D01*
X112925012Y-99631000D01*
X112717621Y-99663848D01*
X112717619Y-99663848D01*
X112717616Y-99663849D01*
X112517926Y-99728732D01*
X112517920Y-99728735D01*
X112330828Y-99824063D01*
X112160954Y-99947484D01*
X112160951Y-99947486D01*
X112012486Y-100095951D01*
X112012484Y-100095954D01*
X111889063Y-100265828D01*
X111793735Y-100452920D01*
X111793732Y-100452926D01*
X111728849Y-100652616D01*
X111728848Y-100652619D01*
X111728848Y-100652621D01*
X111696000Y-100860012D01*
X109380336Y-100860012D01*
X109416500Y-100308264D01*
X109416500Y-99691736D01*
X109376177Y-99076527D01*
X109295704Y-98465273D01*
X109175425Y-97860591D01*
X109015855Y-97265070D01*
X108817679Y-96681261D01*
X108581744Y-96111663D01*
X108326735Y-95594556D01*
X108309069Y-95558732D01*
X108309056Y-95558708D01*
X108000796Y-95024786D01*
X107672314Y-94533178D01*
X107658271Y-94512161D01*
X107282952Y-94023036D01*
X106876446Y-93559505D01*
X106876432Y-93559491D01*
X106876420Y-93559478D01*
X106440521Y-93123579D01*
X106440507Y-93123566D01*
X106440495Y-93123554D01*
X105976964Y-92717048D01*
X105487839Y-92341729D01*
X104975214Y-91999204D01*
X104975213Y-91999203D01*
X104441291Y-91690943D01*
X104441267Y-91690930D01*
X103888347Y-91418261D01*
X103888337Y-91418256D01*
X103888332Y-91418254D01*
X103888328Y-91418252D01*
X103318738Y-91182320D01*
X102734954Y-90984152D01*
X102734934Y-90984146D01*
X102734930Y-90984145D01*
X102139409Y-90824575D01*
X102139401Y-90824573D01*
X102139396Y-90824572D01*
X101534720Y-90704294D01*
X100923482Y-90623824D01*
X100923465Y-90623822D01*
X100308266Y-90583500D01*
X100308264Y-90583500D01*
X99691736Y-90583500D01*
X99691734Y-90583500D01*
X99076534Y-90623822D01*
X99076517Y-90623824D01*
X98465279Y-90704294D01*
X97860603Y-90824572D01*
X97860594Y-90824574D01*
X97860591Y-90824575D01*
X97483038Y-90925740D01*
X97265077Y-90984143D01*
X97265045Y-90984152D01*
X96681261Y-91182320D01*
X96111671Y-91418252D01*
X96111652Y-91418261D01*
X95558732Y-91690930D01*
X95558708Y-91690943D01*
X95024786Y-91999203D01*
X94512166Y-92341725D01*
X94512148Y-92341738D01*
X94023057Y-92717031D01*
X94023042Y-92717043D01*
X94023038Y-92717046D01*
X94023036Y-92717048D01*
X93597101Y-93090583D01*
X93559505Y-93123554D01*
X93559478Y-93123579D01*
X93123579Y-93559478D01*
X93123554Y-93559505D01*
X92770696Y-93961863D01*
X92717043Y-94023042D01*
X92717031Y-94023057D01*
X92341738Y-94512148D01*
X92341725Y-94512166D01*
X91999203Y-95024786D01*
X91690943Y-95558708D01*
X91690930Y-95558732D01*
X91418261Y-96111652D01*
X91418252Y-96111671D01*
X91182320Y-96681261D01*
X90984152Y-97265045D01*
X90984143Y-97265077D01*
X90824572Y-97860603D01*
X90704294Y-98465279D01*
X90623824Y-99076517D01*
X90623822Y-99076534D01*
X90583500Y-99691734D01*
X70012376Y-99691734D01*
X69980747Y-99249500D01*
X69980744Y-99249473D01*
X69909421Y-98753418D01*
X69909419Y-98753404D01*
X69802884Y-98263667D01*
X69661682Y-97782779D01*
X69486534Y-97313190D01*
X69278332Y-96857291D01*
X69038138Y-96417407D01*
X68767174Y-95995780D01*
X68466822Y-95594556D01*
X68138612Y-95215782D01*
X68138605Y-95215775D01*
X68138599Y-95215768D01*
X67784231Y-94861400D01*
X67784223Y-94861393D01*
X67784218Y-94861388D01*
X67405444Y-94533178D01*
X67004220Y-94232826D01*
X66677791Y-94023042D01*
X66582595Y-93961863D01*
X66142716Y-93721672D01*
X66142717Y-93721672D01*
X66142712Y-93721670D01*
X66142709Y-93721668D01*
X65686810Y-93513466D01*
X65686803Y-93513463D01*
X65217222Y-93338318D01*
X64736344Y-93197119D01*
X64736340Y-93197118D01*
X64736333Y-93197116D01*
X64246596Y-93090581D01*
X64246594Y-93090580D01*
X64246581Y-93090578D01*
X63750526Y-93019255D01*
X63750497Y-93019252D01*
X63381204Y-92992841D01*
X63250595Y-92983500D01*
X62749405Y-92983500D01*
X62624246Y-92992451D01*
X62249502Y-93019252D01*
X62249473Y-93019255D01*
X61753418Y-93090578D01*
X61753394Y-93090583D01*
X61601828Y-93123554D01*
X61263667Y-93197116D01*
X61263661Y-93197117D01*
X61263655Y-93197119D01*
X60782777Y-93338318D01*
X60313196Y-93513463D01*
X60313189Y-93513466D01*
X59857282Y-93721672D01*
X59417404Y-93961863D01*
X58995781Y-94232825D01*
X58594558Y-94533176D01*
X58215768Y-94861400D01*
X57861400Y-95215768D01*
X57533176Y-95594558D01*
X57232825Y-95995781D01*
X56961863Y-96417404D01*
X56721672Y-96857282D01*
X56513466Y-97313189D01*
X56513463Y-97313196D01*
X56338318Y-97782777D01*
X56197119Y-98263655D01*
X56090583Y-98753394D01*
X56090578Y-98753418D01*
X56019255Y-99249473D01*
X56019252Y-99249502D01*
X55991968Y-99631000D01*
X55983500Y-99749405D01*
X51000000Y-99749405D01*
X51000000Y-60837660D01*
X59047500Y-60837660D01*
X59047500Y-61082339D01*
X59079434Y-61324910D01*
X59079436Y-61324917D01*
X59142762Y-61561254D01*
X59236395Y-61787303D01*
X59236396Y-61787304D01*
X59236401Y-61787315D01*
X59358729Y-61999193D01*
X59476976Y-62153296D01*
X59502576Y-62219517D01*
X59488311Y-62289065D01*
X59476976Y-62306704D01*
X59358729Y-62460806D01*
X59236401Y-62672684D01*
X59236396Y-62672695D01*
X59142762Y-62898746D01*
X59079434Y-63135089D01*
X59047500Y-63377660D01*
X59047500Y-63622339D01*
X59079434Y-63864910D01*
X59079436Y-63864917D01*
X59142762Y-64101254D01*
X59236395Y-64327303D01*
X59236396Y-64327304D01*
X59236401Y-64327315D01*
X59358729Y-64539193D01*
X59476976Y-64693296D01*
X59502576Y-64759517D01*
X59488311Y-64829065D01*
X59476976Y-64846704D01*
X59358729Y-65000806D01*
X59236401Y-65212684D01*
X59236396Y-65212695D01*
X59142762Y-65438746D01*
X59079434Y-65675089D01*
X59047500Y-65917660D01*
X59047500Y-66162339D01*
X59079434Y-66404910D01*
X59079436Y-66404917D01*
X59142762Y-66641254D01*
X59236395Y-66867303D01*
X59236396Y-66867304D01*
X59236401Y-66867315D01*
X59358729Y-67079193D01*
X59476976Y-67233296D01*
X59502576Y-67299517D01*
X59488311Y-67369065D01*
X59476976Y-67386704D01*
X59358729Y-67540806D01*
X59236401Y-67752684D01*
X59236396Y-67752695D01*
X59142762Y-67978746D01*
X59079434Y-68215089D01*
X59047500Y-68457660D01*
X59047500Y-68702339D01*
X59079434Y-68944910D01*
X59079436Y-68944917D01*
X59142762Y-69181254D01*
X59236395Y-69407303D01*
X59236396Y-69407304D01*
X59236401Y-69407315D01*
X59358729Y-69619193D01*
X59476976Y-69773296D01*
X59502576Y-69839517D01*
X59488311Y-69909065D01*
X59476976Y-69926704D01*
X59358729Y-70080806D01*
X59236401Y-70292684D01*
X59236396Y-70292695D01*
X59142762Y-70518746D01*
X59079434Y-70755089D01*
X59047500Y-70997660D01*
X59047500Y-71242339D01*
X59079434Y-71484910D01*
X59079436Y-71484917D01*
X59142762Y-71721254D01*
X59236395Y-71947303D01*
X59236396Y-71947304D01*
X59236401Y-71947315D01*
X59358729Y-72159193D01*
X59476976Y-72313296D01*
X59502576Y-72379517D01*
X59488311Y-72449065D01*
X59476976Y-72466704D01*
X59358729Y-72620806D01*
X59236401Y-72832684D01*
X59236396Y-72832695D01*
X59236395Y-72832697D01*
X59233117Y-72840611D01*
X59142762Y-73058746D01*
X59079434Y-73295089D01*
X59047500Y-73537660D01*
X59047500Y-73782339D01*
X59079434Y-74024910D01*
X59079436Y-74024917D01*
X59142762Y-74261254D01*
X59236395Y-74487303D01*
X59236396Y-74487304D01*
X59236401Y-74487315D01*
X59358729Y-74699193D01*
X59476976Y-74853296D01*
X59502576Y-74919517D01*
X59488311Y-74989065D01*
X59476976Y-75006704D01*
X59358729Y-75160806D01*
X59236401Y-75372684D01*
X59236396Y-75372695D01*
X59142762Y-75598746D01*
X59079434Y-75835089D01*
X59047500Y-76077660D01*
X59047500Y-76322339D01*
X59079434Y-76564910D01*
X59079436Y-76564917D01*
X59142762Y-76801254D01*
X59236395Y-77027303D01*
X59236396Y-77027304D01*
X59236401Y-77027315D01*
X59358729Y-77239193D01*
X59476976Y-77393296D01*
X59502576Y-77459517D01*
X59488311Y-77529065D01*
X59476976Y-77546704D01*
X59358729Y-77700806D01*
X59236401Y-77912684D01*
X59236396Y-77912695D01*
X59236395Y-77912697D01*
X59162592Y-78090873D01*
X59142762Y-78138746D01*
X59079434Y-78375089D01*
X59047500Y-78617660D01*
X59047500Y-78862339D01*
X59079434Y-79104910D01*
X59079436Y-79104917D01*
X59142762Y-79341254D01*
X59236395Y-79567303D01*
X59236396Y-79567304D01*
X59236401Y-79567315D01*
X59358729Y-79779193D01*
X59476976Y-79933296D01*
X59502576Y-79999517D01*
X59488311Y-80069065D01*
X59476976Y-80086704D01*
X59358729Y-80240806D01*
X59236401Y-80452684D01*
X59236396Y-80452695D01*
X59142762Y-80678746D01*
X59079434Y-80915089D01*
X59047500Y-81157660D01*
X59047500Y-81402339D01*
X59079434Y-81644910D01*
X59079436Y-81644917D01*
X59142762Y-81881254D01*
X59236395Y-82107303D01*
X59236396Y-82107304D01*
X59236401Y-82107314D01*
X59283899Y-82189583D01*
X59300637Y-82258578D01*
X59277417Y-82325670D01*
X59272180Y-82332515D01*
X59214727Y-82402523D01*
X59214721Y-82402531D01*
X59120334Y-82579116D01*
X59120332Y-82579122D01*
X59062206Y-82770736D01*
X59062206Y-82770739D01*
X59047500Y-82920057D01*
X59047500Y-84719942D01*
X59062206Y-84869260D01*
X59062206Y-84869263D01*
X59120332Y-85060877D01*
X59120334Y-85060883D01*
X59214720Y-85237466D01*
X59214722Y-85237469D01*
X59341748Y-85392252D01*
X59496531Y-85519278D01*
X59673120Y-85613667D01*
X59864731Y-85671792D01*
X59864736Y-85671792D01*
X59864738Y-85671793D01*
X59974069Y-85682560D01*
X60014066Y-85686500D01*
X60014075Y-85686500D01*
X61813925Y-85686500D01*
X61813934Y-85686500D01*
X61911179Y-85676922D01*
X61963260Y-85671793D01*
X61963263Y-85671793D01*
X61963264Y-85671792D01*
X61963269Y-85671792D01*
X62154880Y-85613667D01*
X62331469Y-85519278D01*
X62486252Y-85392252D01*
X62613278Y-85237469D01*
X62707667Y-85060880D01*
X62765792Y-84869269D01*
X62780500Y-84719934D01*
X62780500Y-82920066D01*
X62765793Y-82770739D01*
X62765793Y-82770736D01*
X62765792Y-82770733D01*
X62765792Y-82770731D01*
X62707667Y-82579120D01*
X62613278Y-82402531D01*
X62555817Y-82332514D01*
X62528065Y-82267169D01*
X62540047Y-82197190D01*
X62544088Y-82189604D01*
X62591605Y-82107303D01*
X62685238Y-81881254D01*
X62748564Y-81644917D01*
X62780500Y-81402337D01*
X62780500Y-81157663D01*
X62748564Y-80915083D01*
X62685238Y-80678746D01*
X62591605Y-80452697D01*
X62591599Y-80452688D01*
X62591598Y-80452684D01*
X62469267Y-80240801D01*
X62351024Y-80086704D01*
X62325423Y-80020484D01*
X62339688Y-79950935D01*
X62351024Y-79933296D01*
X62469267Y-79779198D01*
X62591598Y-79567315D01*
X62591597Y-79567315D01*
X62591605Y-79567303D01*
X62685238Y-79341254D01*
X62748564Y-79104917D01*
X62780500Y-78862337D01*
X62780500Y-78617663D01*
X62748564Y-78375083D01*
X62685238Y-78138746D01*
X62591605Y-77912697D01*
X62591599Y-77912688D01*
X62591598Y-77912684D01*
X62469267Y-77700801D01*
X62351024Y-77546704D01*
X62325423Y-77480484D01*
X62339688Y-77410935D01*
X62351024Y-77393296D01*
X62431880Y-77287922D01*
X62469268Y-77239197D01*
X62591605Y-77027303D01*
X62685238Y-76801254D01*
X62748564Y-76564917D01*
X62780500Y-76322337D01*
X62780500Y-76077663D01*
X62748564Y-75835083D01*
X62685238Y-75598746D01*
X62591605Y-75372697D01*
X62591599Y-75372688D01*
X62591598Y-75372684D01*
X62469267Y-75160801D01*
X62351024Y-75006704D01*
X62325423Y-74940484D01*
X62339688Y-74870935D01*
X62351024Y-74853296D01*
X62469267Y-74699198D01*
X62475875Y-74687754D01*
X62591605Y-74487303D01*
X62685238Y-74261254D01*
X62748564Y-74024917D01*
X62780500Y-73782337D01*
X62780500Y-73537663D01*
X62748564Y-73295083D01*
X62721896Y-73195558D01*
X77915700Y-73195558D01*
X77915700Y-74150642D01*
X77926237Y-74284525D01*
X77926237Y-74284528D01*
X77926238Y-74284529D01*
X77981939Y-74505585D01*
X77981942Y-74505594D01*
X78076218Y-74713149D01*
X78206049Y-74900551D01*
X78206057Y-74900560D01*
X78367239Y-75061742D01*
X78367246Y-75061748D01*
X78367250Y-75061752D01*
X78443955Y-75114892D01*
X78488559Y-75170126D01*
X78498200Y-75218464D01*
X78498200Y-76937188D01*
X78531048Y-77144579D01*
X78531049Y-77144583D01*
X78584239Y-77308286D01*
X78595934Y-77344278D01*
X78691261Y-77531368D01*
X78814682Y-77701243D01*
X78814684Y-77701245D01*
X78814686Y-77701248D01*
X78963151Y-77849713D01*
X78963154Y-77849715D01*
X78963157Y-77849718D01*
X79039230Y-77904988D01*
X79045640Y-77909645D01*
X79060668Y-77922480D01*
X79142358Y-78004170D01*
X79310004Y-78125972D01*
X79494639Y-78220049D01*
X79691719Y-78284084D01*
X79896389Y-78316500D01*
X79896392Y-78316500D01*
X80103608Y-78316500D01*
X80103611Y-78316500D01*
X80308281Y-78284084D01*
X80505361Y-78220049D01*
X80689996Y-78125972D01*
X80857642Y-78004170D01*
X81004170Y-77857642D01*
X81125972Y-77689996D01*
X81220049Y-77505361D01*
X81284084Y-77308281D01*
X81316500Y-77103611D01*
X81316500Y-76896389D01*
X81284084Y-76691719D01*
X81220049Y-76494639D01*
X81220045Y-76494631D01*
X81179933Y-76415906D01*
X81166200Y-76358704D01*
X81166200Y-75218464D01*
X81167334Y-75214600D01*
X81166441Y-75210675D01*
X81177254Y-75180817D01*
X81186202Y-75150343D01*
X81189640Y-75146614D01*
X81190616Y-75143921D01*
X81205322Y-75129608D01*
X81215732Y-75118321D01*
X81218038Y-75116559D01*
X81297150Y-75061752D01*
X81320841Y-75038060D01*
X81327525Y-75032957D01*
X81353133Y-75023126D01*
X81377210Y-75009979D01*
X81391336Y-75008460D01*
X81393805Y-75007513D01*
X81395970Y-75007962D01*
X81403993Y-75007100D01*
X82089234Y-75007100D01*
X82157355Y-75027102D01*
X82203848Y-75080758D01*
X82213952Y-75151032D01*
X82198353Y-75196100D01*
X82096401Y-75372684D01*
X82096396Y-75372695D01*
X82002762Y-75598746D01*
X81939434Y-75835089D01*
X81907500Y-76077660D01*
X81907500Y-76322339D01*
X81939434Y-76564910D01*
X81939436Y-76564917D01*
X82002762Y-76801254D01*
X82096395Y-77027303D01*
X82096396Y-77027304D01*
X82096401Y-77027315D01*
X82218729Y-77239193D01*
X82336976Y-77393296D01*
X82362576Y-77459517D01*
X82348311Y-77529065D01*
X82336976Y-77546704D01*
X82218729Y-77700806D01*
X82096401Y-77912684D01*
X82096396Y-77912695D01*
X82096395Y-77912697D01*
X82022592Y-78090873D01*
X82002762Y-78138746D01*
X81939434Y-78375089D01*
X81907500Y-78617660D01*
X81907500Y-78862339D01*
X81939434Y-79104910D01*
X81939436Y-79104917D01*
X82002762Y-79341254D01*
X82096395Y-79567303D01*
X82096396Y-79567304D01*
X82096401Y-79567315D01*
X82218729Y-79779193D01*
X82336976Y-79933296D01*
X82362576Y-79999517D01*
X82348311Y-80069065D01*
X82336976Y-80086704D01*
X82218729Y-80240806D01*
X82096401Y-80452684D01*
X82096396Y-80452695D01*
X82002762Y-80678746D01*
X81939434Y-80915089D01*
X81907500Y-81157660D01*
X81907500Y-81402339D01*
X81939434Y-81644910D01*
X81939436Y-81644917D01*
X82002762Y-81881254D01*
X82096395Y-82107303D01*
X82096396Y-82107304D01*
X82096401Y-82107314D01*
X82143899Y-82189583D01*
X82160637Y-82258578D01*
X82137417Y-82325670D01*
X82132180Y-82332515D01*
X82074727Y-82402523D01*
X82074721Y-82402531D01*
X81980334Y-82579116D01*
X81980332Y-82579122D01*
X81922206Y-82770736D01*
X81922206Y-82770739D01*
X81907500Y-82920057D01*
X81907500Y-84719942D01*
X81922206Y-84869260D01*
X81922206Y-84869263D01*
X81980332Y-85060877D01*
X81980334Y-85060883D01*
X82074720Y-85237466D01*
X82074722Y-85237469D01*
X82201748Y-85392252D01*
X82356531Y-85519278D01*
X82533120Y-85613667D01*
X82724731Y-85671792D01*
X82724736Y-85671792D01*
X82724738Y-85671793D01*
X82834069Y-85682560D01*
X82874066Y-85686500D01*
X82874075Y-85686500D01*
X84673925Y-85686500D01*
X84673934Y-85686500D01*
X84771179Y-85676922D01*
X84823260Y-85671793D01*
X84823263Y-85671793D01*
X84823264Y-85671792D01*
X84823269Y-85671792D01*
X85014880Y-85613667D01*
X85191469Y-85519278D01*
X85346252Y-85392252D01*
X85473278Y-85237469D01*
X85567667Y-85060880D01*
X85625792Y-84869269D01*
X85640500Y-84719934D01*
X85640500Y-82920066D01*
X85625793Y-82770739D01*
X85625793Y-82770736D01*
X85625792Y-82770733D01*
X85625792Y-82770731D01*
X85567667Y-82579120D01*
X85473278Y-82402531D01*
X85415817Y-82332514D01*
X85388065Y-82267169D01*
X85400047Y-82197190D01*
X85404088Y-82189604D01*
X85451605Y-82107303D01*
X85545238Y-81881254D01*
X85608564Y-81644917D01*
X85640500Y-81402337D01*
X85640500Y-81157663D01*
X85608564Y-80915083D01*
X85545238Y-80678746D01*
X85451605Y-80452697D01*
X85451599Y-80452688D01*
X85451598Y-80452684D01*
X85329267Y-80240801D01*
X85211024Y-80086704D01*
X85185423Y-80020484D01*
X85199688Y-79950935D01*
X85211024Y-79933296D01*
X85329267Y-79779198D01*
X85451598Y-79567315D01*
X85451597Y-79567315D01*
X85451605Y-79567303D01*
X85545238Y-79341254D01*
X85608564Y-79104917D01*
X85640500Y-78862337D01*
X85640500Y-78617663D01*
X85608564Y-78375083D01*
X85545238Y-78138746D01*
X85451605Y-77912697D01*
X85451599Y-77912688D01*
X85451598Y-77912684D01*
X85329267Y-77700801D01*
X85211024Y-77546704D01*
X85185423Y-77480484D01*
X85199688Y-77410935D01*
X85211024Y-77393296D01*
X85291880Y-77287922D01*
X85329268Y-77239197D01*
X85451605Y-77027303D01*
X85545238Y-76801254D01*
X85608564Y-76564917D01*
X85640500Y-76322337D01*
X85640500Y-76077663D01*
X85608564Y-75835083D01*
X85545238Y-75598746D01*
X85451605Y-75372697D01*
X85451599Y-75372688D01*
X85451598Y-75372684D01*
X85329267Y-75160801D01*
X85211024Y-75006704D01*
X85185423Y-74940484D01*
X85199688Y-74870935D01*
X85211024Y-74853296D01*
X85329267Y-74699198D01*
X85335875Y-74687754D01*
X85451605Y-74487303D01*
X85545238Y-74261254D01*
X85608564Y-74024917D01*
X85640500Y-73782337D01*
X85640500Y-73537663D01*
X85608564Y-73295083D01*
X85545238Y-73058746D01*
X85451605Y-72832697D01*
X85451599Y-72832688D01*
X85451598Y-72832684D01*
X85329267Y-72620801D01*
X85211024Y-72466704D01*
X85185423Y-72400484D01*
X85199688Y-72330935D01*
X85211024Y-72313296D01*
X85329267Y-72159198D01*
X85331912Y-72154618D01*
X85451605Y-71947303D01*
X85545238Y-71721254D01*
X85608564Y-71484917D01*
X85640500Y-71242337D01*
X85640500Y-70997663D01*
X85608564Y-70755083D01*
X85545238Y-70518746D01*
X85451605Y-70292697D01*
X85451598Y-70292685D01*
X85451598Y-70292684D01*
X85329267Y-70080801D01*
X85211024Y-69926704D01*
X85185423Y-69860484D01*
X85199688Y-69790935D01*
X85211024Y-69773296D01*
X85329267Y-69619198D01*
X85394413Y-69506363D01*
X85451605Y-69407303D01*
X85545238Y-69181254D01*
X85608564Y-68944917D01*
X85640500Y-68702337D01*
X85640500Y-68457663D01*
X85608564Y-68215083D01*
X85545238Y-67978746D01*
X85451605Y-67752697D01*
X85451599Y-67752688D01*
X85451598Y-67752684D01*
X85329267Y-67540801D01*
X85211024Y-67386704D01*
X85185423Y-67320484D01*
X85199688Y-67250935D01*
X85211024Y-67233296D01*
X85329267Y-67079198D01*
X85451598Y-66867315D01*
X85451597Y-66867315D01*
X85451605Y-66867303D01*
X85545238Y-66641254D01*
X85608564Y-66404917D01*
X85640500Y-66162337D01*
X85640500Y-65917663D01*
X85608564Y-65675083D01*
X85545238Y-65438746D01*
X85451605Y-65212697D01*
X85451599Y-65212688D01*
X85451598Y-65212684D01*
X85329267Y-65000801D01*
X85211024Y-64846704D01*
X85185423Y-64780484D01*
X85199688Y-64710935D01*
X85211024Y-64693296D01*
X85329267Y-64539198D01*
X85451598Y-64327315D01*
X85451597Y-64327315D01*
X85451605Y-64327303D01*
X85545238Y-64101254D01*
X85608564Y-63864917D01*
X85640500Y-63622337D01*
X85640500Y-63377663D01*
X85608564Y-63135083D01*
X85545238Y-62898746D01*
X85483381Y-62749410D01*
X92983500Y-62749410D01*
X92983500Y-63250589D01*
X93019252Y-63750497D01*
X93019255Y-63750526D01*
X93090578Y-64246581D01*
X93090580Y-64246594D01*
X93090581Y-64246596D01*
X93197116Y-64736333D01*
X93197118Y-64736340D01*
X93197119Y-64736344D01*
X93338318Y-65217222D01*
X93513463Y-65686803D01*
X93513466Y-65686810D01*
X93721672Y-66142717D01*
X93961863Y-66582595D01*
X93999561Y-66641254D01*
X94232826Y-67004220D01*
X94533178Y-67405444D01*
X94861388Y-67784218D01*
X94861393Y-67784223D01*
X94861400Y-67784231D01*
X95215768Y-68138599D01*
X95215775Y-68138605D01*
X95215782Y-68138612D01*
X95594556Y-68466822D01*
X95995780Y-68767174D01*
X96417407Y-69038138D01*
X96857291Y-69278332D01*
X97313190Y-69486534D01*
X97782779Y-69661682D01*
X98263667Y-69802884D01*
X98753404Y-69909419D01*
X98753418Y-69909421D01*
X99249473Y-69980744D01*
X99249502Y-69980747D01*
X99448925Y-69995009D01*
X99749405Y-70016500D01*
X99749411Y-70016500D01*
X100250589Y-70016500D01*
X100250595Y-70016500D01*
X100584528Y-69992616D01*
X100750497Y-69980747D01*
X100750503Y-69980746D01*
X100750508Y-69980746D01*
X100750511Y-69980745D01*
X100750526Y-69980744D01*
X101142212Y-69924427D01*
X101246596Y-69909419D01*
X101736333Y-69802884D01*
X102217221Y-69661682D01*
X102686810Y-69486534D01*
X103142709Y-69278332D01*
X103582593Y-69038138D01*
X104004220Y-68767174D01*
X104405444Y-68466822D01*
X104784218Y-68138612D01*
X105138612Y-67784218D01*
X105466822Y-67405444D01*
X105767174Y-67004220D01*
X106038138Y-66582593D01*
X106278332Y-66142709D01*
X106486534Y-65686810D01*
X106661682Y-65217221D01*
X106802884Y-64736333D01*
X106909419Y-64246596D01*
X106930316Y-64101253D01*
X106980744Y-63750526D01*
X106980747Y-63750497D01*
X106992616Y-63584528D01*
X107016500Y-63250595D01*
X107016500Y-62749405D01*
X106984838Y-62306704D01*
X106980747Y-62249502D01*
X106980744Y-62249473D01*
X106909421Y-61753418D01*
X106909419Y-61753404D01*
X106802884Y-61263667D01*
X106677797Y-60837660D01*
X114419500Y-60837660D01*
X114419500Y-61082339D01*
X114451434Y-61324910D01*
X114451436Y-61324917D01*
X114514762Y-61561254D01*
X114608395Y-61787303D01*
X114608396Y-61787304D01*
X114608401Y-61787315D01*
X114730729Y-61999193D01*
X114848976Y-62153296D01*
X114874576Y-62219517D01*
X114860311Y-62289065D01*
X114848976Y-62306704D01*
X114730729Y-62460806D01*
X114608401Y-62672684D01*
X114608396Y-62672695D01*
X114514762Y-62898746D01*
X114451434Y-63135089D01*
X114419500Y-63377660D01*
X114419500Y-63622339D01*
X114451434Y-63864910D01*
X114451436Y-63864917D01*
X114514762Y-64101254D01*
X114608395Y-64327303D01*
X114608396Y-64327304D01*
X114608401Y-64327315D01*
X114730729Y-64539193D01*
X114848976Y-64693296D01*
X114874576Y-64759517D01*
X114860311Y-64829065D01*
X114848976Y-64846704D01*
X114730729Y-65000806D01*
X114608401Y-65212684D01*
X114608396Y-65212695D01*
X114514762Y-65438746D01*
X114451434Y-65675089D01*
X114419500Y-65917660D01*
X114419500Y-66162339D01*
X114451434Y-66404910D01*
X114451436Y-66404917D01*
X114514762Y-66641254D01*
X114608395Y-66867303D01*
X114608396Y-66867304D01*
X114608401Y-66867315D01*
X114730729Y-67079193D01*
X114848976Y-67233296D01*
X114874576Y-67299517D01*
X114860311Y-67369065D01*
X114848976Y-67386704D01*
X114730729Y-67540806D01*
X114608401Y-67752684D01*
X114608396Y-67752695D01*
X114514762Y-67978746D01*
X114451434Y-68215089D01*
X114419500Y-68457660D01*
X114419500Y-68702339D01*
X114451434Y-68944910D01*
X114451436Y-68944917D01*
X114514762Y-69181254D01*
X114608395Y-69407303D01*
X114608396Y-69407304D01*
X114608401Y-69407315D01*
X114730729Y-69619193D01*
X114848976Y-69773296D01*
X114874576Y-69839517D01*
X114860311Y-69909065D01*
X114848976Y-69926704D01*
X114730729Y-70080806D01*
X114608401Y-70292684D01*
X114608396Y-70292695D01*
X114514762Y-70518746D01*
X114451434Y-70755089D01*
X114419500Y-70997660D01*
X114419500Y-71242339D01*
X114451434Y-71484910D01*
X114451436Y-71484917D01*
X114514762Y-71721254D01*
X114608395Y-71947303D01*
X114608396Y-71947304D01*
X114608401Y-71947315D01*
X114730729Y-72159193D01*
X114848976Y-72313296D01*
X114874576Y-72379517D01*
X114860311Y-72449065D01*
X114848976Y-72466704D01*
X114730729Y-72620806D01*
X114608401Y-72832684D01*
X114608396Y-72832695D01*
X114608395Y-72832697D01*
X114605117Y-72840611D01*
X114514762Y-73058746D01*
X114451434Y-73295089D01*
X114419500Y-73537660D01*
X114419500Y-73782339D01*
X114451434Y-74024910D01*
X114451436Y-74024917D01*
X114514762Y-74261254D01*
X114608395Y-74487303D01*
X114608396Y-74487304D01*
X114608401Y-74487315D01*
X114730729Y-74699193D01*
X114848976Y-74853296D01*
X114874576Y-74919517D01*
X114860311Y-74989065D01*
X114848976Y-75006704D01*
X114730729Y-75160806D01*
X114608401Y-75372684D01*
X114608396Y-75372695D01*
X114514762Y-75598746D01*
X114451434Y-75835089D01*
X114419500Y-76077660D01*
X114419500Y-76322339D01*
X114451434Y-76564910D01*
X114451436Y-76564917D01*
X114514762Y-76801254D01*
X114608395Y-77027303D01*
X114608396Y-77027304D01*
X114608401Y-77027315D01*
X114730729Y-77239193D01*
X114848976Y-77393296D01*
X114874576Y-77459517D01*
X114860311Y-77529065D01*
X114848976Y-77546704D01*
X114730729Y-77700806D01*
X114608401Y-77912684D01*
X114608396Y-77912695D01*
X114608395Y-77912697D01*
X114534592Y-78090873D01*
X114514762Y-78138746D01*
X114451434Y-78375089D01*
X114419500Y-78617660D01*
X114419500Y-78862339D01*
X114451434Y-79104910D01*
X114451436Y-79104917D01*
X114514762Y-79341254D01*
X114608395Y-79567303D01*
X114608396Y-79567304D01*
X114608401Y-79567315D01*
X114730729Y-79779193D01*
X114848976Y-79933296D01*
X114874576Y-79999517D01*
X114860311Y-80069065D01*
X114848976Y-80086704D01*
X114730729Y-80240806D01*
X114608401Y-80452684D01*
X114608396Y-80452695D01*
X114514762Y-80678746D01*
X114451434Y-80915089D01*
X114419500Y-81157660D01*
X114419500Y-81402339D01*
X114451434Y-81644910D01*
X114451436Y-81644917D01*
X114514762Y-81881254D01*
X114608395Y-82107303D01*
X114608396Y-82107304D01*
X114608401Y-82107314D01*
X114655899Y-82189583D01*
X114672637Y-82258578D01*
X114649417Y-82325670D01*
X114644180Y-82332515D01*
X114586727Y-82402523D01*
X114586721Y-82402531D01*
X114492334Y-82579116D01*
X114492332Y-82579122D01*
X114434206Y-82770736D01*
X114434206Y-82770739D01*
X114419500Y-82920057D01*
X114419500Y-84719942D01*
X114434206Y-84869260D01*
X114434206Y-84869263D01*
X114492332Y-85060877D01*
X114492334Y-85060883D01*
X114586720Y-85237466D01*
X114586722Y-85237469D01*
X114713748Y-85392252D01*
X114868531Y-85519278D01*
X115045120Y-85613667D01*
X115236731Y-85671792D01*
X115236736Y-85671792D01*
X115236738Y-85671793D01*
X115346069Y-85682560D01*
X115386066Y-85686500D01*
X115386075Y-85686500D01*
X117185925Y-85686500D01*
X117185934Y-85686500D01*
X117283179Y-85676922D01*
X117335260Y-85671793D01*
X117335263Y-85671793D01*
X117335264Y-85671792D01*
X117335269Y-85671792D01*
X117526880Y-85613667D01*
X117703469Y-85519278D01*
X117858252Y-85392252D01*
X117985278Y-85237469D01*
X118079667Y-85060880D01*
X118137792Y-84869269D01*
X118152500Y-84719934D01*
X118152500Y-82920066D01*
X118137793Y-82770739D01*
X118137793Y-82770736D01*
X118137792Y-82770733D01*
X118137792Y-82770731D01*
X118079667Y-82579120D01*
X117985278Y-82402531D01*
X117927817Y-82332514D01*
X117900065Y-82267169D01*
X117912047Y-82197190D01*
X117916088Y-82189604D01*
X117963605Y-82107303D01*
X118057238Y-81881254D01*
X118120564Y-81644917D01*
X118152500Y-81402337D01*
X118152500Y-81157663D01*
X118120564Y-80915083D01*
X118057238Y-80678746D01*
X117963605Y-80452697D01*
X117963599Y-80452688D01*
X117963598Y-80452684D01*
X117841267Y-80240801D01*
X117723024Y-80086704D01*
X117697423Y-80020484D01*
X117711688Y-79950935D01*
X117723024Y-79933296D01*
X117841267Y-79779198D01*
X117963598Y-79567315D01*
X117963597Y-79567315D01*
X117963605Y-79567303D01*
X118057238Y-79341254D01*
X118120564Y-79104917D01*
X118152500Y-78862337D01*
X118152500Y-78617663D01*
X118120564Y-78375083D01*
X118057238Y-78138746D01*
X117963605Y-77912697D01*
X117963599Y-77912688D01*
X117963598Y-77912684D01*
X117841267Y-77700801D01*
X117723024Y-77546704D01*
X117697423Y-77480484D01*
X117711688Y-77410935D01*
X117723024Y-77393296D01*
X117803880Y-77287922D01*
X117841268Y-77239197D01*
X117963605Y-77027303D01*
X118057238Y-76801254D01*
X118120564Y-76564917D01*
X118152500Y-76322337D01*
X118152500Y-76077663D01*
X118120564Y-75835083D01*
X118057238Y-75598746D01*
X117963605Y-75372697D01*
X117963599Y-75372688D01*
X117963598Y-75372684D01*
X117841267Y-75160801D01*
X117723024Y-75006704D01*
X117697423Y-74940484D01*
X117711688Y-74870935D01*
X117723024Y-74853296D01*
X117841267Y-74699198D01*
X117847875Y-74687754D01*
X117963605Y-74487303D01*
X118057238Y-74261254D01*
X118120564Y-74024917D01*
X118152500Y-73782337D01*
X118152500Y-73537663D01*
X118120564Y-73295083D01*
X118087091Y-73170158D01*
X133262300Y-73170158D01*
X133262300Y-74125242D01*
X133272837Y-74259125D01*
X133272837Y-74259128D01*
X133272838Y-74259129D01*
X133328539Y-74480185D01*
X133328542Y-74480194D01*
X133422818Y-74687749D01*
X133422820Y-74687752D01*
X133422821Y-74687754D01*
X133440415Y-74713149D01*
X133552649Y-74875151D01*
X133552657Y-74875160D01*
X133713839Y-75036342D01*
X133713846Y-75036348D01*
X133713850Y-75036352D01*
X133790555Y-75089492D01*
X133835159Y-75144726D01*
X133844800Y-75193064D01*
X133844800Y-77473812D01*
X133844800Y-77683788D01*
X133872337Y-77857647D01*
X133877649Y-77891183D01*
X133914360Y-78004169D01*
X133942534Y-78090878D01*
X134037861Y-78277968D01*
X134037863Y-78277971D01*
X134062640Y-78312073D01*
X134161282Y-78447843D01*
X134161284Y-78447845D01*
X134161286Y-78447848D01*
X134530951Y-78817513D01*
X134530954Y-78817515D01*
X134530957Y-78817518D01*
X134700832Y-78940939D01*
X134887922Y-79036266D01*
X135087621Y-79101152D01*
X135295012Y-79134000D01*
X135295015Y-79134000D01*
X135504985Y-79134000D01*
X135504988Y-79134000D01*
X135712379Y-79101152D01*
X135912078Y-79036266D01*
X136099168Y-78940939D01*
X136269043Y-78817518D01*
X136417518Y-78669043D01*
X136540939Y-78499168D01*
X136636266Y-78312078D01*
X136701152Y-78112379D01*
X136734000Y-77904988D01*
X136734000Y-77695012D01*
X136701152Y-77487621D01*
X136636266Y-77287922D01*
X136540939Y-77100832D01*
X136540937Y-77100828D01*
X136536862Y-77095219D01*
X136513005Y-77028350D01*
X136512800Y-77021161D01*
X136512800Y-75193064D01*
X136514274Y-75188043D01*
X136513209Y-75182922D01*
X136524173Y-75154328D01*
X136532802Y-75124943D01*
X136537262Y-75120196D01*
X136538629Y-75116632D01*
X136557960Y-75098168D01*
X136564220Y-75091507D01*
X136565598Y-75090494D01*
X136643750Y-75036352D01*
X136655980Y-75024121D01*
X136663713Y-75018443D01*
X136688432Y-75009480D01*
X136711510Y-74996879D01*
X136728112Y-74995094D01*
X136730458Y-74994244D01*
X136732245Y-74994650D01*
X136738293Y-74994000D01*
X137468797Y-74994000D01*
X137536918Y-75014002D01*
X137583411Y-75067658D01*
X137593515Y-75137932D01*
X137577916Y-75183000D01*
X137468401Y-75372684D01*
X137468396Y-75372695D01*
X137374762Y-75598746D01*
X137311434Y-75835089D01*
X137279500Y-76077660D01*
X137279500Y-76322339D01*
X137311434Y-76564910D01*
X137311436Y-76564917D01*
X137374762Y-76801254D01*
X137468395Y-77027303D01*
X137468396Y-77027304D01*
X137468401Y-77027315D01*
X137590729Y-77239193D01*
X137708976Y-77393296D01*
X137734576Y-77459517D01*
X137720311Y-77529065D01*
X137708976Y-77546704D01*
X137590729Y-77700806D01*
X137468401Y-77912684D01*
X137468396Y-77912695D01*
X137468395Y-77912697D01*
X137394592Y-78090873D01*
X137374762Y-78138746D01*
X137311434Y-78375089D01*
X137279500Y-78617660D01*
X137279500Y-78862339D01*
X137311434Y-79104910D01*
X137311436Y-79104917D01*
X137374762Y-79341254D01*
X137468395Y-79567303D01*
X137468396Y-79567304D01*
X137468401Y-79567315D01*
X137590729Y-79779193D01*
X137708976Y-79933296D01*
X137734576Y-79999517D01*
X137720311Y-80069065D01*
X137708976Y-80086704D01*
X137590729Y-80240806D01*
X137468401Y-80452684D01*
X137468396Y-80452695D01*
X137374762Y-80678746D01*
X137311434Y-80915089D01*
X137279500Y-81157660D01*
X137279500Y-81402339D01*
X137311434Y-81644910D01*
X137311436Y-81644917D01*
X137374762Y-81881254D01*
X137468395Y-82107303D01*
X137468396Y-82107304D01*
X137468401Y-82107314D01*
X137515899Y-82189583D01*
X137532637Y-82258578D01*
X137509417Y-82325670D01*
X137504180Y-82332515D01*
X137446727Y-82402523D01*
X137446721Y-82402531D01*
X137352334Y-82579116D01*
X137352332Y-82579122D01*
X137294206Y-82770736D01*
X137294206Y-82770739D01*
X137279500Y-82920057D01*
X137279500Y-84719942D01*
X137294206Y-84869260D01*
X137294206Y-84869263D01*
X137352332Y-85060877D01*
X137352334Y-85060883D01*
X137446720Y-85237466D01*
X137446722Y-85237469D01*
X137573748Y-85392252D01*
X137728531Y-85519278D01*
X137905120Y-85613667D01*
X138096731Y-85671792D01*
X138096736Y-85671792D01*
X138096738Y-85671793D01*
X138206069Y-85682560D01*
X138246066Y-85686500D01*
X138246075Y-85686500D01*
X140045925Y-85686500D01*
X140045934Y-85686500D01*
X140143179Y-85676922D01*
X140195260Y-85671793D01*
X140195263Y-85671793D01*
X140195264Y-85671792D01*
X140195269Y-85671792D01*
X140386880Y-85613667D01*
X140563469Y-85519278D01*
X140718252Y-85392252D01*
X140845278Y-85237469D01*
X140939667Y-85060880D01*
X140997792Y-84869269D01*
X141012500Y-84719934D01*
X141012500Y-82920066D01*
X140997793Y-82770739D01*
X140997793Y-82770736D01*
X140997792Y-82770733D01*
X140997792Y-82770731D01*
X140939667Y-82579120D01*
X140845278Y-82402531D01*
X140787817Y-82332514D01*
X140760065Y-82267169D01*
X140772047Y-82197190D01*
X140776088Y-82189604D01*
X140823605Y-82107303D01*
X140917238Y-81881254D01*
X140980564Y-81644917D01*
X141012500Y-81402337D01*
X141012500Y-81157663D01*
X140980564Y-80915083D01*
X140917238Y-80678746D01*
X140823605Y-80452697D01*
X140823599Y-80452688D01*
X140823598Y-80452684D01*
X140701267Y-80240801D01*
X140583024Y-80086704D01*
X140557423Y-80020484D01*
X140571688Y-79950935D01*
X140583024Y-79933296D01*
X140701267Y-79779198D01*
X140823598Y-79567315D01*
X140823597Y-79567315D01*
X140823605Y-79567303D01*
X140917238Y-79341254D01*
X140980564Y-79104917D01*
X141012500Y-78862337D01*
X141012500Y-78617663D01*
X140980564Y-78375083D01*
X140917238Y-78138746D01*
X140823605Y-77912697D01*
X140823599Y-77912688D01*
X140823598Y-77912684D01*
X140701267Y-77700801D01*
X140583024Y-77546704D01*
X140557423Y-77480484D01*
X140571688Y-77410935D01*
X140583024Y-77393296D01*
X140663880Y-77287922D01*
X140701268Y-77239197D01*
X140823605Y-77027303D01*
X140917238Y-76801254D01*
X140980564Y-76564917D01*
X141012500Y-76322337D01*
X141012500Y-76077663D01*
X140980564Y-75835083D01*
X140917238Y-75598746D01*
X140823605Y-75372697D01*
X140823599Y-75372688D01*
X140823598Y-75372684D01*
X140701267Y-75160801D01*
X140583024Y-75006704D01*
X140557423Y-74940484D01*
X140571688Y-74870935D01*
X140583024Y-74853296D01*
X140701267Y-74699198D01*
X140707875Y-74687754D01*
X140823605Y-74487303D01*
X140917238Y-74261254D01*
X140980564Y-74024917D01*
X141012500Y-73782337D01*
X141012500Y-73537663D01*
X140980564Y-73295083D01*
X140917238Y-73058746D01*
X140823605Y-72832697D01*
X140823599Y-72832688D01*
X140823598Y-72832684D01*
X140701267Y-72620801D01*
X140583024Y-72466704D01*
X140557423Y-72400484D01*
X140571688Y-72330935D01*
X140583024Y-72313296D01*
X140701267Y-72159198D01*
X140703912Y-72154618D01*
X140823605Y-71947303D01*
X140917238Y-71721254D01*
X140980564Y-71484917D01*
X141012500Y-71242337D01*
X141012500Y-70997663D01*
X140980564Y-70755083D01*
X140917238Y-70518746D01*
X140823605Y-70292697D01*
X140823598Y-70292685D01*
X140823598Y-70292684D01*
X140701267Y-70080801D01*
X140583024Y-69926704D01*
X140557423Y-69860484D01*
X140571688Y-69790935D01*
X140583024Y-69773296D01*
X140701267Y-69619198D01*
X140766413Y-69506363D01*
X140823605Y-69407303D01*
X140917238Y-69181254D01*
X140980564Y-68944917D01*
X141012500Y-68702337D01*
X141012500Y-68457663D01*
X140980564Y-68215083D01*
X140917238Y-67978746D01*
X140823605Y-67752697D01*
X140823599Y-67752688D01*
X140823598Y-67752684D01*
X140701267Y-67540801D01*
X140583024Y-67386704D01*
X140557423Y-67320484D01*
X140571688Y-67250935D01*
X140583024Y-67233296D01*
X140701267Y-67079198D01*
X140823598Y-66867315D01*
X140823597Y-66867315D01*
X140823605Y-66867303D01*
X140917238Y-66641254D01*
X140980564Y-66404917D01*
X141012500Y-66162337D01*
X141012500Y-65917663D01*
X140980564Y-65675083D01*
X140917238Y-65438746D01*
X140823605Y-65212697D01*
X140823599Y-65212688D01*
X140823598Y-65212684D01*
X140701267Y-65000801D01*
X140583024Y-64846704D01*
X140557423Y-64780484D01*
X140571688Y-64710935D01*
X140583024Y-64693296D01*
X140701267Y-64539198D01*
X140823598Y-64327315D01*
X140823597Y-64327315D01*
X140823605Y-64327303D01*
X140917238Y-64101254D01*
X140980564Y-63864917D01*
X141012500Y-63622337D01*
X141012500Y-63377663D01*
X140980564Y-63135083D01*
X140917238Y-62898746D01*
X140823605Y-62672697D01*
X140823599Y-62672688D01*
X140823598Y-62672684D01*
X140701267Y-62460801D01*
X140583024Y-62306704D01*
X140557423Y-62240484D01*
X140571688Y-62170935D01*
X140583024Y-62153296D01*
X140701267Y-61999198D01*
X140823598Y-61787315D01*
X140823597Y-61787315D01*
X140823605Y-61787303D01*
X140917238Y-61561254D01*
X140980564Y-61324917D01*
X141012500Y-61082337D01*
X141012500Y-60837663D01*
X140980564Y-60595083D01*
X140917238Y-60358746D01*
X140823605Y-60132697D01*
X140823599Y-60132688D01*
X140823598Y-60132684D01*
X140701270Y-59920806D01*
X140701268Y-59920803D01*
X140552320Y-59726690D01*
X140552314Y-59726684D01*
X140552310Y-59726679D01*
X140379320Y-59553689D01*
X140379314Y-59553684D01*
X140379310Y-59553680D01*
X140185197Y-59404732D01*
X140185196Y-59404731D01*
X140185193Y-59404729D01*
X139973315Y-59282401D01*
X139973307Y-59282397D01*
X139973303Y-59282395D01*
X139747254Y-59188762D01*
X139510917Y-59125436D01*
X139510910Y-59125434D01*
X139268339Y-59093500D01*
X139268337Y-59093500D01*
X139023663Y-59093500D01*
X139023660Y-59093500D01*
X138781089Y-59125434D01*
X138544746Y-59188762D01*
X138318695Y-59282396D01*
X138318684Y-59282401D01*
X138106806Y-59404729D01*
X137912690Y-59553680D01*
X137912679Y-59553689D01*
X137739689Y-59726679D01*
X137739680Y-59726690D01*
X137590729Y-59920806D01*
X137468401Y-60132684D01*
X137468396Y-60132695D01*
X137374762Y-60358746D01*
X137311434Y-60595089D01*
X137279500Y-60837660D01*
X137279500Y-61082339D01*
X137311434Y-61324910D01*
X137311436Y-61324917D01*
X137374762Y-61561254D01*
X137468395Y-61787303D01*
X137468396Y-61787304D01*
X137468401Y-61787315D01*
X137590729Y-61999193D01*
X137708976Y-62153296D01*
X137734576Y-62219517D01*
X137720311Y-62289065D01*
X137708976Y-62306704D01*
X137590729Y-62460806D01*
X137468401Y-62672684D01*
X137468396Y-62672695D01*
X137374762Y-62898746D01*
X137311434Y-63135089D01*
X137279500Y-63377660D01*
X137279500Y-63622339D01*
X137311434Y-63864910D01*
X137311436Y-63864917D01*
X137374762Y-64101254D01*
X137468395Y-64327303D01*
X137468396Y-64327304D01*
X137468401Y-64327315D01*
X137590729Y-64539193D01*
X137708976Y-64693296D01*
X137734576Y-64759517D01*
X137720311Y-64829065D01*
X137708976Y-64846704D01*
X137590729Y-65000806D01*
X137468401Y-65212684D01*
X137468396Y-65212695D01*
X137374762Y-65438746D01*
X137311434Y-65675089D01*
X137279500Y-65917660D01*
X137279500Y-66162339D01*
X137311434Y-66404910D01*
X137311436Y-66404917D01*
X137374762Y-66641254D01*
X137468395Y-66867303D01*
X137468396Y-66867304D01*
X137468401Y-66867315D01*
X137590729Y-67079193D01*
X137708976Y-67233296D01*
X137734576Y-67299517D01*
X137720311Y-67369065D01*
X137708976Y-67386704D01*
X137590729Y-67540806D01*
X137468401Y-67752684D01*
X137468396Y-67752695D01*
X137374762Y-67978746D01*
X137311434Y-68215089D01*
X137279500Y-68457660D01*
X137279500Y-68702339D01*
X137311434Y-68944910D01*
X137311436Y-68944917D01*
X137374762Y-69181254D01*
X137468395Y-69407303D01*
X137468396Y-69407304D01*
X137468401Y-69407315D01*
X137590729Y-69619193D01*
X137708976Y-69773296D01*
X137734576Y-69839517D01*
X137720311Y-69909065D01*
X137708976Y-69926704D01*
X137590729Y-70080806D01*
X137468401Y-70292684D01*
X137468396Y-70292695D01*
X137374762Y-70518746D01*
X137311434Y-70755089D01*
X137279500Y-70997660D01*
X137279500Y-71242339D01*
X137311434Y-71484910D01*
X137311436Y-71484917D01*
X137374762Y-71721254D01*
X137468395Y-71947303D01*
X137468396Y-71947304D01*
X137468401Y-71947315D01*
X137577916Y-72137000D01*
X137594654Y-72205995D01*
X137571434Y-72273087D01*
X137515627Y-72316974D01*
X137468797Y-72326000D01*
X136762893Y-72326000D01*
X136694772Y-72305998D01*
X136673798Y-72289095D01*
X136643760Y-72259057D01*
X136643751Y-72259049D01*
X136643750Y-72259048D01*
X136456354Y-72129221D01*
X136456352Y-72129220D01*
X136456349Y-72129218D01*
X136248794Y-72034942D01*
X136248791Y-72034941D01*
X136248789Y-72034940D01*
X136149391Y-72009894D01*
X136088222Y-71973853D01*
X136056249Y-71910464D01*
X136063622Y-71839851D01*
X136108001Y-71784434D01*
X136141693Y-71768742D01*
X136141538Y-71768337D01*
X136147378Y-71766095D01*
X136147574Y-71766004D01*
X136147705Y-71765968D01*
X136313458Y-71681512D01*
X136313461Y-71681511D01*
X136458036Y-71564436D01*
X136575111Y-71419861D01*
X136575112Y-71419858D01*
X136659569Y-71254102D01*
X136707717Y-71074410D01*
X136713800Y-70997138D01*
X136713800Y-70776700D01*
X133643800Y-70776700D01*
X133643800Y-70997138D01*
X133649882Y-71074410D01*
X133698030Y-71254102D01*
X133782487Y-71419858D01*
X133782488Y-71419861D01*
X133899563Y-71564436D01*
X134044138Y-71681511D01*
X134044141Y-71681512D01*
X134209898Y-71765970D01*
X134210030Y-71766006D01*
X134210098Y-71766048D01*
X134216062Y-71768337D01*
X134215643Y-71769427D01*
X134270653Y-71802956D01*
X134301676Y-71866816D01*
X134293249Y-71937310D01*
X134248047Y-71992058D01*
X134208208Y-72009894D01*
X134108814Y-72034939D01*
X134108805Y-72034942D01*
X133901250Y-72129218D01*
X133713848Y-72259049D01*
X133713839Y-72259057D01*
X133552657Y-72420239D01*
X133552649Y-72420248D01*
X133422818Y-72607650D01*
X133328542Y-72815205D01*
X133328540Y-72815211D01*
X133272837Y-73036275D01*
X133262300Y-73170158D01*
X118087091Y-73170158D01*
X118057238Y-73058746D01*
X117963605Y-72832697D01*
X117963599Y-72832688D01*
X117963598Y-72832684D01*
X117841267Y-72620801D01*
X117723024Y-72466704D01*
X117697423Y-72400484D01*
X117711688Y-72330935D01*
X117723024Y-72313296D01*
X117841267Y-72159198D01*
X117843912Y-72154618D01*
X117963605Y-71947303D01*
X118057238Y-71721254D01*
X118120564Y-71484917D01*
X118152500Y-71242337D01*
X118152500Y-70997663D01*
X118120564Y-70755083D01*
X118057238Y-70518746D01*
X117963605Y-70292697D01*
X117841268Y-70080803D01*
X117816298Y-70048261D01*
X133643800Y-70048261D01*
X133643800Y-70268700D01*
X134924800Y-70268700D01*
X135432800Y-70268700D01*
X136713800Y-70268700D01*
X136713800Y-70048261D01*
X136707717Y-69970989D01*
X136659569Y-69791297D01*
X136575112Y-69625541D01*
X136575111Y-69625538D01*
X136458036Y-69480963D01*
X136313461Y-69363888D01*
X136313458Y-69363887D01*
X136147702Y-69279430D01*
X135968010Y-69231282D01*
X135890739Y-69225200D01*
X135432800Y-69225200D01*
X135432800Y-70268700D01*
X134924800Y-70268700D01*
X134924800Y-69225200D01*
X134466861Y-69225200D01*
X134389589Y-69231282D01*
X134209897Y-69279430D01*
X134044141Y-69363887D01*
X134044138Y-69363888D01*
X133899563Y-69480963D01*
X133782488Y-69625538D01*
X133782487Y-69625541D01*
X133698030Y-69791297D01*
X133649882Y-69970989D01*
X133643800Y-70048261D01*
X117816298Y-70048261D01*
X117722181Y-69925606D01*
X117721374Y-69924505D01*
X117709741Y-69892346D01*
X117697423Y-69860484D01*
X117697709Y-69859085D01*
X117697224Y-69857743D01*
X117704825Y-69824395D01*
X117711688Y-69790935D01*
X117712871Y-69789093D01*
X117713002Y-69788521D01*
X117713643Y-69787891D01*
X117723024Y-69773296D01*
X117841267Y-69619198D01*
X117906413Y-69506363D01*
X117963605Y-69407303D01*
X118057238Y-69181254D01*
X118120564Y-68944917D01*
X118152500Y-68702337D01*
X118152500Y-68457663D01*
X118120564Y-68215083D01*
X118057238Y-67978746D01*
X117963605Y-67752697D01*
X117963599Y-67752688D01*
X117963598Y-67752684D01*
X117841267Y-67540801D01*
X117723024Y-67386704D01*
X117697423Y-67320484D01*
X117711688Y-67250935D01*
X117723024Y-67233296D01*
X117841267Y-67079198D01*
X117963598Y-66867315D01*
X117963597Y-66867315D01*
X117963605Y-66867303D01*
X118057238Y-66641254D01*
X118120564Y-66404917D01*
X118152500Y-66162337D01*
X118152500Y-65917663D01*
X118120564Y-65675083D01*
X118057238Y-65438746D01*
X117963605Y-65212697D01*
X117963599Y-65212688D01*
X117963598Y-65212684D01*
X117841267Y-65000801D01*
X117723024Y-64846704D01*
X117697423Y-64780484D01*
X117711688Y-64710935D01*
X117723024Y-64693296D01*
X117841267Y-64539198D01*
X117963598Y-64327315D01*
X117963597Y-64327315D01*
X117963605Y-64327303D01*
X118057238Y-64101254D01*
X118120564Y-63864917D01*
X118152500Y-63622337D01*
X118152500Y-63377663D01*
X118120564Y-63135083D01*
X118057238Y-62898746D01*
X117963605Y-62672697D01*
X117963599Y-62672688D01*
X117963598Y-62672684D01*
X117841267Y-62460801D01*
X117723024Y-62306704D01*
X117697423Y-62240484D01*
X117711688Y-62170935D01*
X117723024Y-62153296D01*
X117841267Y-61999198D01*
X117963598Y-61787315D01*
X117963597Y-61787315D01*
X117963605Y-61787303D01*
X118057238Y-61561254D01*
X118120564Y-61324917D01*
X118152500Y-61082337D01*
X118152500Y-60837663D01*
X118120564Y-60595083D01*
X118057238Y-60358746D01*
X117963605Y-60132697D01*
X117963599Y-60132688D01*
X117963598Y-60132684D01*
X117841270Y-59920806D01*
X117841268Y-59920803D01*
X117692320Y-59726690D01*
X117692314Y-59726684D01*
X117692310Y-59726679D01*
X117519320Y-59553689D01*
X117519314Y-59553684D01*
X117519310Y-59553680D01*
X117325197Y-59404732D01*
X117325196Y-59404731D01*
X117325193Y-59404729D01*
X117113315Y-59282401D01*
X117113307Y-59282397D01*
X117113303Y-59282395D01*
X116887254Y-59188762D01*
X116650917Y-59125436D01*
X116650910Y-59125434D01*
X116408339Y-59093500D01*
X116408337Y-59093500D01*
X116163663Y-59093500D01*
X116163660Y-59093500D01*
X115921089Y-59125434D01*
X115684746Y-59188762D01*
X115458695Y-59282396D01*
X115458684Y-59282401D01*
X115246806Y-59404729D01*
X115052690Y-59553680D01*
X115052679Y-59553689D01*
X114879689Y-59726679D01*
X114879680Y-59726690D01*
X114730729Y-59920806D01*
X114608401Y-60132684D01*
X114608396Y-60132695D01*
X114514762Y-60358746D01*
X114451434Y-60595089D01*
X114419500Y-60837660D01*
X106677797Y-60837660D01*
X106661682Y-60782779D01*
X106486534Y-60313190D01*
X106278332Y-59857291D01*
X106038138Y-59417407D01*
X105767174Y-58995780D01*
X105466822Y-58594556D01*
X105138612Y-58215782D01*
X105138605Y-58215775D01*
X105138599Y-58215768D01*
X104784231Y-57861400D01*
X104784223Y-57861393D01*
X104784218Y-57861388D01*
X104405444Y-57533178D01*
X104004220Y-57232826D01*
X103582593Y-56961862D01*
X103142716Y-56721672D01*
X103142717Y-56721672D01*
X103142712Y-56721670D01*
X103142709Y-56721668D01*
X102686810Y-56513466D01*
X102686803Y-56513463D01*
X102217222Y-56338318D01*
X101736344Y-56197119D01*
X101736340Y-56197118D01*
X101736333Y-56197116D01*
X101246596Y-56090581D01*
X101246594Y-56090580D01*
X101246581Y-56090578D01*
X100750526Y-56019255D01*
X100750497Y-56019252D01*
X100381204Y-55992841D01*
X100250595Y-55983500D01*
X99749405Y-55983500D01*
X99624246Y-55992451D01*
X99249502Y-56019252D01*
X99249473Y-56019255D01*
X98753418Y-56090578D01*
X98753394Y-56090583D01*
X98601381Y-56123651D01*
X98263667Y-56197116D01*
X98263661Y-56197117D01*
X98263655Y-56197119D01*
X97782777Y-56338318D01*
X97313196Y-56513463D01*
X97313189Y-56513466D01*
X96857282Y-56721672D01*
X96417404Y-56961863D01*
X95995781Y-57232825D01*
X95594558Y-57533176D01*
X95215768Y-57861400D01*
X94861400Y-58215768D01*
X94533176Y-58594558D01*
X94232825Y-58995781D01*
X93961863Y-59417404D01*
X93721672Y-59857282D01*
X93513466Y-60313189D01*
X93513463Y-60313196D01*
X93338318Y-60782777D01*
X93197119Y-61263655D01*
X93197117Y-61263661D01*
X93197116Y-61263667D01*
X93183792Y-61324917D01*
X93090583Y-61753394D01*
X93090578Y-61753418D01*
X93019255Y-62249473D01*
X93019252Y-62249502D01*
X92983500Y-62749410D01*
X85483381Y-62749410D01*
X85451605Y-62672697D01*
X85451599Y-62672688D01*
X85451598Y-62672684D01*
X85329267Y-62460801D01*
X85211024Y-62306704D01*
X85185423Y-62240484D01*
X85199688Y-62170935D01*
X85211024Y-62153296D01*
X85329267Y-61999198D01*
X85451598Y-61787315D01*
X85451597Y-61787315D01*
X85451605Y-61787303D01*
X85545238Y-61561254D01*
X85608564Y-61324917D01*
X85640500Y-61082337D01*
X85640500Y-60837663D01*
X85608564Y-60595083D01*
X85545238Y-60358746D01*
X85451605Y-60132697D01*
X85451599Y-60132688D01*
X85451598Y-60132684D01*
X85329270Y-59920806D01*
X85329268Y-59920803D01*
X85180320Y-59726690D01*
X85180314Y-59726684D01*
X85180310Y-59726679D01*
X85007320Y-59553689D01*
X85007314Y-59553684D01*
X85007310Y-59553680D01*
X84813197Y-59404732D01*
X84813196Y-59404731D01*
X84813193Y-59404729D01*
X84601315Y-59282401D01*
X84601307Y-59282397D01*
X84601303Y-59282395D01*
X84375254Y-59188762D01*
X84138917Y-59125436D01*
X84138910Y-59125434D01*
X83896339Y-59093500D01*
X83896337Y-59093500D01*
X83651663Y-59093500D01*
X83651660Y-59093500D01*
X83409089Y-59125434D01*
X83172746Y-59188762D01*
X82946695Y-59282396D01*
X82946684Y-59282401D01*
X82734806Y-59404729D01*
X82540690Y-59553680D01*
X82540679Y-59553689D01*
X82367689Y-59726679D01*
X82367680Y-59726690D01*
X82218729Y-59920806D01*
X82096401Y-60132684D01*
X82096396Y-60132695D01*
X82002762Y-60358746D01*
X81939434Y-60595089D01*
X81907500Y-60837660D01*
X81907500Y-61082339D01*
X81939434Y-61324910D01*
X81939436Y-61324917D01*
X82002762Y-61561254D01*
X82096395Y-61787303D01*
X82096396Y-61787304D01*
X82096401Y-61787315D01*
X82218729Y-61999193D01*
X82336976Y-62153296D01*
X82362576Y-62219517D01*
X82348311Y-62289065D01*
X82336976Y-62306704D01*
X82218729Y-62460806D01*
X82096401Y-62672684D01*
X82096396Y-62672695D01*
X82002762Y-62898746D01*
X81939434Y-63135089D01*
X81907500Y-63377660D01*
X81907500Y-63622339D01*
X81939434Y-63864910D01*
X81939436Y-63864917D01*
X82002762Y-64101254D01*
X82096395Y-64327303D01*
X82096396Y-64327304D01*
X82096401Y-64327315D01*
X82218729Y-64539193D01*
X82336976Y-64693296D01*
X82362576Y-64759517D01*
X82348311Y-64829065D01*
X82336976Y-64846704D01*
X82218729Y-65000806D01*
X82096401Y-65212684D01*
X82096396Y-65212695D01*
X82002762Y-65438746D01*
X81939434Y-65675089D01*
X81907500Y-65917660D01*
X81907500Y-66162339D01*
X81939434Y-66404910D01*
X81939436Y-66404917D01*
X82002762Y-66641254D01*
X82096395Y-66867303D01*
X82096396Y-66867304D01*
X82096401Y-66867315D01*
X82218729Y-67079193D01*
X82336976Y-67233296D01*
X82362576Y-67299517D01*
X82348311Y-67369065D01*
X82336976Y-67386704D01*
X82218729Y-67540806D01*
X82096401Y-67752684D01*
X82096396Y-67752695D01*
X82002762Y-67978746D01*
X81939434Y-68215089D01*
X81907500Y-68457660D01*
X81907500Y-68702339D01*
X81939434Y-68944910D01*
X81939436Y-68944917D01*
X82002762Y-69181254D01*
X82096395Y-69407303D01*
X82096396Y-69407304D01*
X82096401Y-69407315D01*
X82218729Y-69619193D01*
X82336976Y-69773296D01*
X82362576Y-69839517D01*
X82348311Y-69909065D01*
X82336976Y-69926704D01*
X82218729Y-70080806D01*
X82096401Y-70292684D01*
X82096396Y-70292695D01*
X82002762Y-70518746D01*
X81939434Y-70755089D01*
X81907500Y-70997660D01*
X81907500Y-71242339D01*
X81939434Y-71484910D01*
X81939436Y-71484917D01*
X82002762Y-71721254D01*
X82096395Y-71947303D01*
X82096396Y-71947304D01*
X82096401Y-71947314D01*
X82213480Y-72150100D01*
X82230218Y-72219095D01*
X82206998Y-72286187D01*
X82151191Y-72330074D01*
X82104361Y-72339100D01*
X81403993Y-72339100D01*
X81335872Y-72319098D01*
X81314898Y-72302195D01*
X81297160Y-72284457D01*
X81297151Y-72284449D01*
X81280751Y-72273087D01*
X81109754Y-72154621D01*
X81109752Y-72154620D01*
X81109749Y-72154618D01*
X80902194Y-72060342D01*
X80902191Y-72060341D01*
X80902189Y-72060340D01*
X80802791Y-72035294D01*
X80741622Y-71999253D01*
X80709649Y-71935864D01*
X80717022Y-71865251D01*
X80761401Y-71809834D01*
X80795093Y-71794142D01*
X80794938Y-71793737D01*
X80800778Y-71791495D01*
X80800974Y-71791404D01*
X80801105Y-71791368D01*
X80966858Y-71706912D01*
X80966861Y-71706911D01*
X81111436Y-71589836D01*
X81228511Y-71445261D01*
X81228512Y-71445258D01*
X81312969Y-71279502D01*
X81361117Y-71099810D01*
X81367200Y-71022538D01*
X81367200Y-70802100D01*
X78297200Y-70802100D01*
X78297200Y-71022538D01*
X78303282Y-71099810D01*
X78351430Y-71279502D01*
X78435887Y-71445258D01*
X78435888Y-71445261D01*
X78552963Y-71589836D01*
X78697538Y-71706911D01*
X78697541Y-71706912D01*
X78863298Y-71791370D01*
X78863430Y-71791406D01*
X78863498Y-71791448D01*
X78869462Y-71793737D01*
X78869043Y-71794827D01*
X78924053Y-71828356D01*
X78955076Y-71892216D01*
X78946649Y-71962710D01*
X78901447Y-72017458D01*
X78861608Y-72035294D01*
X78762214Y-72060339D01*
X78762205Y-72060342D01*
X78554650Y-72154618D01*
X78367248Y-72284449D01*
X78367239Y-72284457D01*
X78206057Y-72445639D01*
X78206049Y-72445648D01*
X78076218Y-72633050D01*
X77981942Y-72840605D01*
X77981940Y-72840611D01*
X77926237Y-73061675D01*
X77915700Y-73195558D01*
X62721896Y-73195558D01*
X62685238Y-73058746D01*
X62591605Y-72832697D01*
X62591599Y-72832688D01*
X62591598Y-72832684D01*
X62469267Y-72620801D01*
X62351024Y-72466704D01*
X62325423Y-72400484D01*
X62339688Y-72330935D01*
X62351024Y-72313296D01*
X62469267Y-72159198D01*
X62471912Y-72154618D01*
X62591605Y-71947303D01*
X62685238Y-71721254D01*
X62748564Y-71484917D01*
X62780500Y-71242337D01*
X62780500Y-70997663D01*
X62748564Y-70755083D01*
X62685238Y-70518746D01*
X62591605Y-70292697D01*
X62591598Y-70292685D01*
X62591598Y-70292684D01*
X62500088Y-70134184D01*
X62469267Y-70080801D01*
X62463788Y-70073661D01*
X78297200Y-70073661D01*
X78297200Y-70294100D01*
X79578200Y-70294100D01*
X80086200Y-70294100D01*
X81367200Y-70294100D01*
X81367200Y-70073661D01*
X81361117Y-69996389D01*
X81312969Y-69816697D01*
X81228512Y-69650941D01*
X81228511Y-69650938D01*
X81111436Y-69506363D01*
X80966861Y-69389288D01*
X80966858Y-69389287D01*
X80801102Y-69304830D01*
X80621410Y-69256682D01*
X80544139Y-69250600D01*
X80086200Y-69250600D01*
X80086200Y-70294100D01*
X79578200Y-70294100D01*
X79578200Y-69250600D01*
X79120261Y-69250600D01*
X79042989Y-69256682D01*
X78863297Y-69304830D01*
X78697541Y-69389287D01*
X78697538Y-69389288D01*
X78552963Y-69506363D01*
X78435888Y-69650938D01*
X78435887Y-69650941D01*
X78351430Y-69816697D01*
X78303282Y-69996389D01*
X78297200Y-70073661D01*
X62463788Y-70073661D01*
X62351024Y-69926704D01*
X62325423Y-69860484D01*
X62339688Y-69790935D01*
X62351024Y-69773296D01*
X62469267Y-69619198D01*
X62534413Y-69506363D01*
X62591605Y-69407303D01*
X62685238Y-69181254D01*
X62748564Y-68944917D01*
X62780500Y-68702337D01*
X62780500Y-68457663D01*
X62748564Y-68215083D01*
X62685238Y-67978746D01*
X62591605Y-67752697D01*
X62591599Y-67752688D01*
X62591598Y-67752684D01*
X62469267Y-67540801D01*
X62351024Y-67386704D01*
X62325423Y-67320484D01*
X62339688Y-67250935D01*
X62351024Y-67233296D01*
X62469267Y-67079198D01*
X62591598Y-66867315D01*
X62591597Y-66867315D01*
X62591605Y-66867303D01*
X62685238Y-66641254D01*
X62748564Y-66404917D01*
X62780500Y-66162337D01*
X62780500Y-65917663D01*
X62748564Y-65675083D01*
X62685238Y-65438746D01*
X62591605Y-65212697D01*
X62591599Y-65212688D01*
X62591598Y-65212684D01*
X62469267Y-65000801D01*
X62351024Y-64846704D01*
X62325423Y-64780484D01*
X62339688Y-64710935D01*
X62351024Y-64693296D01*
X62469267Y-64539198D01*
X62591598Y-64327315D01*
X62591597Y-64327315D01*
X62591605Y-64327303D01*
X62685238Y-64101254D01*
X62748564Y-63864917D01*
X62780500Y-63622337D01*
X62780500Y-63377663D01*
X62748564Y-63135083D01*
X62685238Y-62898746D01*
X62591605Y-62672697D01*
X62591599Y-62672688D01*
X62591598Y-62672684D01*
X62469267Y-62460801D01*
X62351024Y-62306704D01*
X62325423Y-62240484D01*
X62339688Y-62170935D01*
X62351024Y-62153296D01*
X62469267Y-61999198D01*
X62591598Y-61787315D01*
X62591597Y-61787315D01*
X62591605Y-61787303D01*
X62685238Y-61561254D01*
X62748564Y-61324917D01*
X62780500Y-61082337D01*
X62780500Y-60837663D01*
X62748564Y-60595083D01*
X62685238Y-60358746D01*
X62591605Y-60132697D01*
X62591599Y-60132688D01*
X62591598Y-60132684D01*
X62469270Y-59920806D01*
X62469268Y-59920803D01*
X62320320Y-59726690D01*
X62320314Y-59726684D01*
X62320310Y-59726679D01*
X62147320Y-59553689D01*
X62147314Y-59553684D01*
X62147310Y-59553680D01*
X61953197Y-59404732D01*
X61953196Y-59404731D01*
X61953193Y-59404729D01*
X61741315Y-59282401D01*
X61741307Y-59282397D01*
X61741303Y-59282395D01*
X61515254Y-59188762D01*
X61278917Y-59125436D01*
X61278910Y-59125434D01*
X61036339Y-59093500D01*
X61036337Y-59093500D01*
X60791663Y-59093500D01*
X60791660Y-59093500D01*
X60549089Y-59125434D01*
X60312746Y-59188762D01*
X60086695Y-59282396D01*
X60086684Y-59282401D01*
X59874806Y-59404729D01*
X59680690Y-59553680D01*
X59680679Y-59553689D01*
X59507689Y-59726679D01*
X59507680Y-59726690D01*
X59358729Y-59920806D01*
X59236401Y-60132684D01*
X59236396Y-60132695D01*
X59142762Y-60358746D01*
X59079434Y-60595089D01*
X59047500Y-60837660D01*
X51000000Y-60837660D01*
X51000000Y-51126000D01*
X51020002Y-51057879D01*
X51073658Y-51011386D01*
X51126000Y-51000000D01*
X148874000Y-51000000D01*
X148942121Y-51020002D01*
G37*
%TD.AperFunction*%
%TD*%
M02*
