%TF.GenerationSoftware,KiCad,Pcbnew,9.0.3*%
%TF.CreationDate,2025-11-09T14:41:51-05:00*%
%TF.ProjectId,DarkQuest_SiPM_Motherboard_11.3,4461726b-5175-4657-9374-5f5369504d5f,11.3*%
%TF.SameCoordinates,Original*%
%TF.FileFunction,Soldermask,Bot*%
%TF.FilePolarity,Negative*%
%FSLAX46Y46*%
G04 Gerber Fmt 4.6, Leading zero omitted, Abs format (unit mm)*
G04 Created by KiCad (PCBNEW 9.0.3) date 2025-11-09 14:41:51*
%MOMM*%
%LPD*%
G01*
G04 APERTURE LIST*
G04 Aperture macros list*
%AMRoundRect*
0 Rectangle with rounded corners*
0 $1 Rounding radius*
0 $2 $3 $4 $5 $6 $7 $8 $9 X,Y pos of 4 corners*
0 Add a 4 corners polygon primitive as box body*
4,1,4,$2,$3,$4,$5,$6,$7,$8,$9,$2,$3,0*
0 Add four circle primitives for the rounded corners*
1,1,$1+$1,$2,$3*
1,1,$1+$1,$4,$5*
1,1,$1+$1,$6,$7*
1,1,$1+$1,$8,$9*
0 Add four rect primitives between the rounded corners*
20,1,$1+$1,$2,$3,$4,$5,0*
20,1,$1+$1,$4,$5,$6,$7,0*
20,1,$1+$1,$6,$7,$8,$9,0*
20,1,$1+$1,$8,$9,$2,$3,0*%
G04 Aperture macros list end*
%ADD10RoundRect,0.250000X-0.650000X0.412500X-0.650000X-0.412500X0.650000X-0.412500X0.650000X0.412500X0*%
%ADD11R,1.700000X1.700000*%
%ADD12C,1.700000*%
%ADD13C,16.800000*%
%ADD14C,12.000000*%
%ADD15C,3.650000*%
%ADD16C,1.500000*%
%ADD17C,2.500000*%
G04 APERTURE END LIST*
D10*
%TO.C,C4*%
X79832200Y-70548100D03*
X79832200Y-73673100D03*
%TD*%
%TO.C,C3*%
X135178800Y-70522700D03*
X135178800Y-73647700D03*
%TD*%
D11*
%TO.C,J19*%
X139146000Y-83820000D03*
D12*
X139146000Y-81280000D03*
X139146000Y-78740000D03*
X139146000Y-76200000D03*
X139146000Y-73660000D03*
X139146000Y-71120000D03*
X139146000Y-68580000D03*
X139146000Y-66040000D03*
X139146000Y-63500000D03*
X139146000Y-60960000D03*
%TD*%
D11*
%TO.C,J20*%
X83774000Y-83820000D03*
D12*
X83774000Y-81280000D03*
X83774000Y-78740000D03*
X83774000Y-76200000D03*
X83774000Y-73660000D03*
X83774000Y-71120000D03*
X83774000Y-68580000D03*
X83774000Y-66040000D03*
X83774000Y-63500000D03*
X83774000Y-60960000D03*
%TD*%
D11*
%TO.C,J18*%
X83774000Y-139192000D03*
D12*
X83774000Y-136652000D03*
X83774000Y-134112000D03*
X83774000Y-131572000D03*
X83774000Y-129032000D03*
X83774000Y-126492000D03*
X83774000Y-123952000D03*
X83774000Y-121412000D03*
X83774000Y-118872000D03*
X83774000Y-116332000D03*
%TD*%
D11*
%TO.C,J17*%
X139146000Y-139192000D03*
D12*
X139146000Y-136652000D03*
X139146000Y-134112000D03*
X139146000Y-131572000D03*
X139146000Y-129032000D03*
X139146000Y-126492000D03*
X139146000Y-123952000D03*
X139146000Y-121412000D03*
X139146000Y-118872000D03*
X139146000Y-116332000D03*
%TD*%
D11*
%TO.C,J8*%
X60914000Y-83820000D03*
D12*
X60914000Y-81280000D03*
X60914000Y-78740000D03*
X60914000Y-76200000D03*
X60914000Y-73660000D03*
X60914000Y-71120000D03*
X60914000Y-68580000D03*
X60914000Y-66040000D03*
X60914000Y-63500000D03*
X60914000Y-60960000D03*
%TD*%
D11*
%TO.C,J7*%
X116286000Y-83820000D03*
D12*
X116286000Y-81280000D03*
X116286000Y-78740000D03*
X116286000Y-76200000D03*
X116286000Y-73660000D03*
X116286000Y-71120000D03*
X116286000Y-68580000D03*
X116286000Y-66040000D03*
X116286000Y-63500000D03*
X116286000Y-60960000D03*
%TD*%
D11*
%TO.C,J6*%
X60914000Y-139192000D03*
D12*
X60914000Y-136652000D03*
X60914000Y-134112000D03*
X60914000Y-131572000D03*
X60914000Y-129032000D03*
X60914000Y-126492000D03*
X60914000Y-123952000D03*
X60914000Y-121412000D03*
X60914000Y-118872000D03*
X60914000Y-116332000D03*
%TD*%
D13*
%TO.C,H2*%
X100000000Y-100000000D03*
%TD*%
D14*
%TO.C,H3*%
X100000000Y-137000000D03*
%TD*%
%TO.C,H4*%
X137000000Y-100000000D03*
%TD*%
%TO.C,H5*%
X63000000Y-100000000D03*
%TD*%
%TO.C,H1*%
X100000000Y-63000000D03*
%TD*%
D15*
%TO.C,J21*%
X96800000Y-124590000D03*
X96800000Y-113160000D03*
D16*
X103150000Y-123320000D03*
X105690000Y-122050000D03*
X103150000Y-120780000D03*
X105690000Y-119510000D03*
X103150000Y-118240000D03*
X105690000Y-116970000D03*
X103150000Y-115700000D03*
X105690000Y-114430000D03*
D17*
X99850000Y-126750000D03*
X99850000Y-111000000D03*
%TD*%
D10*
%TO.C,C2*%
X79730600Y-125920100D03*
X79730600Y-129045100D03*
%TD*%
%TO.C,C1*%
X135102600Y-125920100D03*
X135102600Y-129045100D03*
%TD*%
D11*
%TO.C,J5*%
X116286000Y-139192000D03*
D12*
X116286000Y-136652000D03*
X116286000Y-134112000D03*
X116286000Y-131572000D03*
X116286000Y-129032000D03*
X116286000Y-126492000D03*
X116286000Y-123952000D03*
X116286000Y-121412000D03*
X116286000Y-118872000D03*
X116286000Y-116332000D03*
%TD*%
M02*
