%TF.GenerationSoftware,KiCad,Pcbnew,9.0.3*%
%TF.CreationDate,2025-11-09T14:41:51-05:00*%
%TF.ProjectId,DarkQuest_SiPM_Motherboard_11.3,4461726b-5175-4657-9374-5f5369504d5f,11.3*%
%TF.SameCoordinates,Original*%
%TF.FileFunction,Copper,L3,Inr*%
%TF.FilePolarity,Positive*%
%FSLAX46Y46*%
G04 Gerber Fmt 4.6, Leading zero omitted, Abs format (unit mm)*
G04 Created by KiCad (PCBNEW 9.0.3) date 2025-11-09 14:41:51*
%MOMM*%
%LPD*%
G01*
G04 APERTURE LIST*
%TA.AperFunction,ComponentPad*%
%ADD10R,1.700000X1.700000*%
%TD*%
%TA.AperFunction,ComponentPad*%
%ADD11C,1.700000*%
%TD*%
%TA.AperFunction,ComponentPad*%
%ADD12C,16.800000*%
%TD*%
%TA.AperFunction,ComponentPad*%
%ADD13C,12.000000*%
%TD*%
%TA.AperFunction,WasherPad*%
%ADD14C,3.650000*%
%TD*%
%TA.AperFunction,ComponentPad*%
%ADD15C,1.500000*%
%TD*%
%TA.AperFunction,ComponentPad*%
%ADD16C,2.500000*%
%TD*%
%TA.AperFunction,ViaPad*%
%ADD17C,0.600000*%
%TD*%
%TA.AperFunction,Conductor*%
%ADD18C,0.200000*%
%TD*%
G04 APERTURE END LIST*
D10*
%TO.N,unconnected-(J19-Pin_1-Pad1)*%
%TO.C,J19*%
X139146000Y-83820000D03*
D11*
%TO.N,unconnected-(J19-Pin_2-Pad2)*%
X139146000Y-81280000D03*
%TO.N,unconnected-(J19-Pin_3-Pad3)*%
X139146000Y-78740000D03*
%TO.N,unconnected-(J19-Pin_4-Pad4)*%
X139146000Y-76200000D03*
%TO.N,/K3*%
X139146000Y-73660000D03*
%TO.N,unconnected-(J19-Pin_6-Pad6)*%
X139146000Y-71120000D03*
%TO.N,unconnected-(J19-Pin_7-Pad7)*%
X139146000Y-68580000D03*
%TO.N,unconnected-(J19-Pin_8-Pad8)*%
X139146000Y-66040000D03*
%TO.N,unconnected-(J19-Pin_9-Pad9)*%
X139146000Y-63500000D03*
%TO.N,unconnected-(J19-Pin_10-Pad10)*%
X139146000Y-60960000D03*
%TD*%
D10*
%TO.N,unconnected-(J20-Pin_1-Pad1)*%
%TO.C,J20*%
X83774000Y-83820000D03*
D11*
%TO.N,unconnected-(J20-Pin_2-Pad2)*%
X83774000Y-81280000D03*
%TO.N,unconnected-(J20-Pin_3-Pad3)*%
X83774000Y-78740000D03*
%TO.N,unconnected-(J20-Pin_4-Pad4)*%
X83774000Y-76200000D03*
%TO.N,/K4*%
X83774000Y-73660000D03*
%TO.N,unconnected-(J20-Pin_6-Pad6)*%
X83774000Y-71120000D03*
%TO.N,unconnected-(J20-Pin_7-Pad7)*%
X83774000Y-68580000D03*
%TO.N,unconnected-(J20-Pin_8-Pad8)*%
X83774000Y-66040000D03*
%TO.N,unconnected-(J20-Pin_9-Pad9)*%
X83774000Y-63500000D03*
%TO.N,unconnected-(J20-Pin_10-Pad10)*%
X83774000Y-60960000D03*
%TD*%
D10*
%TO.N,unconnected-(J18-Pin_1-Pad1)*%
%TO.C,J18*%
X83774000Y-139192000D03*
D11*
%TO.N,unconnected-(J18-Pin_2-Pad2)*%
X83774000Y-136652000D03*
%TO.N,unconnected-(J18-Pin_3-Pad3)*%
X83774000Y-134112000D03*
%TO.N,unconnected-(J18-Pin_4-Pad4)*%
X83774000Y-131572000D03*
%TO.N,/K2*%
X83774000Y-129032000D03*
%TO.N,unconnected-(J18-Pin_6-Pad6)*%
X83774000Y-126492000D03*
%TO.N,unconnected-(J18-Pin_7-Pad7)*%
X83774000Y-123952000D03*
%TO.N,unconnected-(J18-Pin_8-Pad8)*%
X83774000Y-121412000D03*
%TO.N,unconnected-(J18-Pin_9-Pad9)*%
X83774000Y-118872000D03*
%TO.N,unconnected-(J18-Pin_10-Pad10)*%
X83774000Y-116332000D03*
%TD*%
D10*
%TO.N,unconnected-(J17-Pin_1-Pad1)*%
%TO.C,J17*%
X139146000Y-139192000D03*
D11*
%TO.N,unconnected-(J17-Pin_2-Pad2)*%
X139146000Y-136652000D03*
%TO.N,unconnected-(J17-Pin_3-Pad3)*%
X139146000Y-134112000D03*
%TO.N,unconnected-(J17-Pin_4-Pad4)*%
X139146000Y-131572000D03*
%TO.N,/K1*%
X139146000Y-129032000D03*
%TO.N,unconnected-(J17-Pin_6-Pad6)*%
X139146000Y-126492000D03*
%TO.N,unconnected-(J17-Pin_7-Pad7)*%
X139146000Y-123952000D03*
%TO.N,unconnected-(J17-Pin_8-Pad8)*%
X139146000Y-121412000D03*
%TO.N,unconnected-(J17-Pin_9-Pad9)*%
X139146000Y-118872000D03*
%TO.N,unconnected-(J17-Pin_10-Pad10)*%
X139146000Y-116332000D03*
%TD*%
D10*
%TO.N,unconnected-(J8-Pin_1-Pad1)*%
%TO.C,J8*%
X60914000Y-83820000D03*
D11*
%TO.N,unconnected-(J8-Pin_2-Pad2)*%
X60914000Y-81280000D03*
%TO.N,unconnected-(J8-Pin_3-Pad3)*%
X60914000Y-78740000D03*
%TO.N,N/C*%
X60914000Y-76200000D03*
%TO.N,/A4*%
X60914000Y-73660000D03*
%TO.N,N/C*%
X60914000Y-71120000D03*
%TO.N,unconnected-(J8-Pin_7-Pad7)*%
X60914000Y-68580000D03*
%TO.N,unconnected-(J8-Pin_8-Pad8)*%
X60914000Y-66040000D03*
%TO.N,unconnected-(J8-Pin_9-Pad9)*%
X60914000Y-63500000D03*
%TO.N,unconnected-(J8-Pin_10-Pad10)*%
X60914000Y-60960000D03*
%TD*%
D10*
%TO.N,unconnected-(J7-Pin_1-Pad1)*%
%TO.C,J7*%
X116286000Y-83820000D03*
D11*
%TO.N,unconnected-(J7-Pin_2-Pad2)*%
X116286000Y-81280000D03*
%TO.N,unconnected-(J7-Pin_3-Pad3)*%
X116286000Y-78740000D03*
%TO.N,N/C*%
X116286000Y-76200000D03*
%TO.N,/A3*%
X116286000Y-73660000D03*
%TO.N,N/C*%
X116286000Y-71120000D03*
%TO.N,unconnected-(J7-Pin_7-Pad7)*%
X116286000Y-68580000D03*
%TO.N,unconnected-(J7-Pin_8-Pad8)*%
X116286000Y-66040000D03*
%TO.N,unconnected-(J7-Pin_9-Pad9)*%
X116286000Y-63500000D03*
%TO.N,unconnected-(J7-Pin_10-Pad10)*%
X116286000Y-60960000D03*
%TD*%
D10*
%TO.N,unconnected-(J6-Pin_1-Pad1)*%
%TO.C,J6*%
X60914000Y-139192000D03*
D11*
%TO.N,unconnected-(J6-Pin_2-Pad2)*%
X60914000Y-136652000D03*
%TO.N,unconnected-(J6-Pin_3-Pad3)*%
X60914000Y-134112000D03*
%TO.N,N/C*%
X60914000Y-131572000D03*
%TO.N,/A2*%
X60914000Y-129032000D03*
%TO.N,N/C*%
X60914000Y-126492000D03*
%TO.N,unconnected-(J6-Pin_7-Pad7)*%
X60914000Y-123952000D03*
%TO.N,unconnected-(J6-Pin_8-Pad8)*%
X60914000Y-121412000D03*
%TO.N,unconnected-(J6-Pin_9-Pad9)*%
X60914000Y-118872000D03*
%TO.N,unconnected-(J6-Pin_10-Pad10)*%
X60914000Y-116332000D03*
%TD*%
D12*
%TO.N,N/C*%
%TO.C,H2*%
X100000000Y-100000000D03*
%TD*%
D13*
%TO.N,N/C*%
%TO.C,H3*%
X100000000Y-137000000D03*
%TD*%
%TO.N,N/C*%
%TO.C,H4*%
X137000000Y-100000000D03*
%TD*%
%TO.N,N/C*%
%TO.C,H5*%
X63000000Y-100000000D03*
%TD*%
%TO.N,N/C*%
%TO.C,H1*%
X100000000Y-63000000D03*
%TD*%
D14*
%TO.N,*%
%TO.C,J21*%
X96800000Y-124590000D03*
X96800000Y-113160000D03*
D15*
%TO.N,/K1*%
X103150000Y-123320000D03*
%TO.N,/A1*%
X105690000Y-122050000D03*
%TO.N,/K2*%
X103150000Y-120780000D03*
%TO.N,/A3*%
X105690000Y-119510000D03*
%TO.N,/K3*%
X103150000Y-118240000D03*
%TO.N,/A2*%
X105690000Y-116970000D03*
%TO.N,/K4*%
X103150000Y-115700000D03*
%TO.N,/A4*%
X105690000Y-114430000D03*
D16*
%TO.N,GND*%
X99850000Y-126750000D03*
X99850000Y-111000000D03*
%TD*%
D10*
%TO.N,unconnected-(J5-Pin_1-Pad1)*%
%TO.C,J5*%
X116286000Y-139192000D03*
D11*
%TO.N,unconnected-(J5-Pin_2-Pad2)*%
X116286000Y-136652000D03*
%TO.N,unconnected-(J5-Pin_3-Pad3)*%
X116286000Y-134112000D03*
%TO.N,N/C*%
X116286000Y-131572000D03*
%TO.N,/A1*%
X116286000Y-129032000D03*
%TO.N,N/C*%
X116286000Y-126492000D03*
%TO.N,unconnected-(J5-Pin_7-Pad7)*%
X116286000Y-123952000D03*
%TO.N,unconnected-(J5-Pin_8-Pad8)*%
X116286000Y-121412000D03*
%TO.N,unconnected-(J5-Pin_9-Pad9)*%
X116286000Y-118872000D03*
%TO.N,unconnected-(J5-Pin_10-Pad10)*%
X116286000Y-116332000D03*
%TD*%
D17*
%TO.N,/K1*%
X135000000Y-132600000D03*
%TO.N,/K2*%
X79800000Y-133600000D03*
%TO.N,/K3*%
X98425000Y-118745000D03*
X135400000Y-77800000D03*
X99695000Y-114935000D03*
%TO.N,/K4*%
X80000000Y-77000000D03*
%TO.N,/A3*%
X113030000Y-104775000D03*
X113030000Y-100965000D03*
%TD*%
D18*
%TO.N,/K4*%
X80000000Y-77000000D02*
X80010000Y-77010000D01*
%TD*%
M02*
