%TF.GenerationSoftware,KiCad,Pcbnew,9.0.3*%
%TF.CreationDate,2025-11-09T14:41:51-05:00*%
%TF.ProjectId,DarkQuest_SiPM_Motherboard_11.3,4461726b-5175-4657-9374-5f5369504d5f,11.3*%
%TF.SameCoordinates,Original*%
%TF.FileFunction,Legend,Bot*%
%TF.FilePolarity,Positive*%
%FSLAX46Y46*%
G04 Gerber Fmt 4.6, Leading zero omitted, Abs format (unit mm)*
G04 Created by KiCad (PCBNEW 9.0.3) date 2025-11-09 14:41:51*
%MOMM*%
%LPD*%
G01*
G04 APERTURE LIST*
%ADD10C,0.150000*%
%ADD11C,0.203200*%
%ADD12C,0.100000*%
%ADD13C,0.120000*%
G04 APERTURE END LIST*
D10*
X65669104Y-143761905D02*
X65669104Y-144238095D01*
X65954819Y-143666667D02*
X64954819Y-144000000D01*
X64954819Y-144000000D02*
X65954819Y-144333333D01*
X130155792Y-85118580D02*
X130203411Y-85166200D01*
X130203411Y-85166200D02*
X130346268Y-85213819D01*
X130346268Y-85213819D02*
X130441506Y-85213819D01*
X130441506Y-85213819D02*
X130584363Y-85166200D01*
X130584363Y-85166200D02*
X130679601Y-85070961D01*
X130679601Y-85070961D02*
X130727220Y-84975723D01*
X130727220Y-84975723D02*
X130774839Y-84785247D01*
X130774839Y-84785247D02*
X130774839Y-84642390D01*
X130774839Y-84642390D02*
X130727220Y-84451914D01*
X130727220Y-84451914D02*
X130679601Y-84356676D01*
X130679601Y-84356676D02*
X130584363Y-84261438D01*
X130584363Y-84261438D02*
X130441506Y-84213819D01*
X130441506Y-84213819D02*
X130346268Y-84213819D01*
X130346268Y-84213819D02*
X130203411Y-84261438D01*
X130203411Y-84261438D02*
X130155792Y-84309057D01*
X129727220Y-85213819D02*
X129727220Y-84213819D01*
X129298649Y-85213819D02*
X129298649Y-84690009D01*
X129298649Y-84690009D02*
X129346268Y-84594771D01*
X129346268Y-84594771D02*
X129441506Y-84547152D01*
X129441506Y-84547152D02*
X129584363Y-84547152D01*
X129584363Y-84547152D02*
X129679601Y-84594771D01*
X129679601Y-84594771D02*
X129727220Y-84642390D01*
X128393887Y-85213819D02*
X128393887Y-84690009D01*
X128393887Y-84690009D02*
X128441506Y-84594771D01*
X128441506Y-84594771D02*
X128536744Y-84547152D01*
X128536744Y-84547152D02*
X128727220Y-84547152D01*
X128727220Y-84547152D02*
X128822458Y-84594771D01*
X128393887Y-85166200D02*
X128489125Y-85213819D01*
X128489125Y-85213819D02*
X128727220Y-85213819D01*
X128727220Y-85213819D02*
X128822458Y-85166200D01*
X128822458Y-85166200D02*
X128870077Y-85070961D01*
X128870077Y-85070961D02*
X128870077Y-84975723D01*
X128870077Y-84975723D02*
X128822458Y-84880485D01*
X128822458Y-84880485D02*
X128727220Y-84832866D01*
X128727220Y-84832866D02*
X128489125Y-84832866D01*
X128489125Y-84832866D02*
X128393887Y-84785247D01*
X127917696Y-84547152D02*
X127917696Y-85213819D01*
X127917696Y-84642390D02*
X127870077Y-84594771D01*
X127870077Y-84594771D02*
X127774839Y-84547152D01*
X127774839Y-84547152D02*
X127631982Y-84547152D01*
X127631982Y-84547152D02*
X127536744Y-84594771D01*
X127536744Y-84594771D02*
X127489125Y-84690009D01*
X127489125Y-84690009D02*
X127489125Y-85213819D01*
X127012934Y-84547152D02*
X127012934Y-85213819D01*
X127012934Y-84642390D02*
X126965315Y-84594771D01*
X126965315Y-84594771D02*
X126870077Y-84547152D01*
X126870077Y-84547152D02*
X126727220Y-84547152D01*
X126727220Y-84547152D02*
X126631982Y-84594771D01*
X126631982Y-84594771D02*
X126584363Y-84690009D01*
X126584363Y-84690009D02*
X126584363Y-85213819D01*
X125727220Y-85166200D02*
X125822458Y-85213819D01*
X125822458Y-85213819D02*
X126012934Y-85213819D01*
X126012934Y-85213819D02*
X126108172Y-85166200D01*
X126108172Y-85166200D02*
X126155791Y-85070961D01*
X126155791Y-85070961D02*
X126155791Y-84690009D01*
X126155791Y-84690009D02*
X126108172Y-84594771D01*
X126108172Y-84594771D02*
X126012934Y-84547152D01*
X126012934Y-84547152D02*
X125822458Y-84547152D01*
X125822458Y-84547152D02*
X125727220Y-84594771D01*
X125727220Y-84594771D02*
X125679601Y-84690009D01*
X125679601Y-84690009D02*
X125679601Y-84785247D01*
X125679601Y-84785247D02*
X126155791Y-84880485D01*
X125108172Y-85213819D02*
X125203410Y-85166200D01*
X125203410Y-85166200D02*
X125251029Y-85070961D01*
X125251029Y-85070961D02*
X125251029Y-84213819D01*
X124012933Y-84309057D02*
X123965314Y-84261438D01*
X123965314Y-84261438D02*
X123870076Y-84213819D01*
X123870076Y-84213819D02*
X123631981Y-84213819D01*
X123631981Y-84213819D02*
X123536743Y-84261438D01*
X123536743Y-84261438D02*
X123489124Y-84309057D01*
X123489124Y-84309057D02*
X123441505Y-84404295D01*
X123441505Y-84404295D02*
X123441505Y-84499533D01*
X123441505Y-84499533D02*
X123489124Y-84642390D01*
X123489124Y-84642390D02*
X124060552Y-85213819D01*
X124060552Y-85213819D02*
X123441505Y-85213819D01*
X65669104Y-55761905D02*
X65669104Y-56238095D01*
X65954819Y-55666667D02*
X64954819Y-56000000D01*
X64954819Y-56000000D02*
X65954819Y-56333333D01*
X74275792Y-84864580D02*
X74323411Y-84912200D01*
X74323411Y-84912200D02*
X74466268Y-84959819D01*
X74466268Y-84959819D02*
X74561506Y-84959819D01*
X74561506Y-84959819D02*
X74704363Y-84912200D01*
X74704363Y-84912200D02*
X74799601Y-84816961D01*
X74799601Y-84816961D02*
X74847220Y-84721723D01*
X74847220Y-84721723D02*
X74894839Y-84531247D01*
X74894839Y-84531247D02*
X74894839Y-84388390D01*
X74894839Y-84388390D02*
X74847220Y-84197914D01*
X74847220Y-84197914D02*
X74799601Y-84102676D01*
X74799601Y-84102676D02*
X74704363Y-84007438D01*
X74704363Y-84007438D02*
X74561506Y-83959819D01*
X74561506Y-83959819D02*
X74466268Y-83959819D01*
X74466268Y-83959819D02*
X74323411Y-84007438D01*
X74323411Y-84007438D02*
X74275792Y-84055057D01*
X73847220Y-84959819D02*
X73847220Y-83959819D01*
X73418649Y-84959819D02*
X73418649Y-84436009D01*
X73418649Y-84436009D02*
X73466268Y-84340771D01*
X73466268Y-84340771D02*
X73561506Y-84293152D01*
X73561506Y-84293152D02*
X73704363Y-84293152D01*
X73704363Y-84293152D02*
X73799601Y-84340771D01*
X73799601Y-84340771D02*
X73847220Y-84388390D01*
X72513887Y-84959819D02*
X72513887Y-84436009D01*
X72513887Y-84436009D02*
X72561506Y-84340771D01*
X72561506Y-84340771D02*
X72656744Y-84293152D01*
X72656744Y-84293152D02*
X72847220Y-84293152D01*
X72847220Y-84293152D02*
X72942458Y-84340771D01*
X72513887Y-84912200D02*
X72609125Y-84959819D01*
X72609125Y-84959819D02*
X72847220Y-84959819D01*
X72847220Y-84959819D02*
X72942458Y-84912200D01*
X72942458Y-84912200D02*
X72990077Y-84816961D01*
X72990077Y-84816961D02*
X72990077Y-84721723D01*
X72990077Y-84721723D02*
X72942458Y-84626485D01*
X72942458Y-84626485D02*
X72847220Y-84578866D01*
X72847220Y-84578866D02*
X72609125Y-84578866D01*
X72609125Y-84578866D02*
X72513887Y-84531247D01*
X72037696Y-84293152D02*
X72037696Y-84959819D01*
X72037696Y-84388390D02*
X71990077Y-84340771D01*
X71990077Y-84340771D02*
X71894839Y-84293152D01*
X71894839Y-84293152D02*
X71751982Y-84293152D01*
X71751982Y-84293152D02*
X71656744Y-84340771D01*
X71656744Y-84340771D02*
X71609125Y-84436009D01*
X71609125Y-84436009D02*
X71609125Y-84959819D01*
X71132934Y-84293152D02*
X71132934Y-84959819D01*
X71132934Y-84388390D02*
X71085315Y-84340771D01*
X71085315Y-84340771D02*
X70990077Y-84293152D01*
X70990077Y-84293152D02*
X70847220Y-84293152D01*
X70847220Y-84293152D02*
X70751982Y-84340771D01*
X70751982Y-84340771D02*
X70704363Y-84436009D01*
X70704363Y-84436009D02*
X70704363Y-84959819D01*
X69847220Y-84912200D02*
X69942458Y-84959819D01*
X69942458Y-84959819D02*
X70132934Y-84959819D01*
X70132934Y-84959819D02*
X70228172Y-84912200D01*
X70228172Y-84912200D02*
X70275791Y-84816961D01*
X70275791Y-84816961D02*
X70275791Y-84436009D01*
X70275791Y-84436009D02*
X70228172Y-84340771D01*
X70228172Y-84340771D02*
X70132934Y-84293152D01*
X70132934Y-84293152D02*
X69942458Y-84293152D01*
X69942458Y-84293152D02*
X69847220Y-84340771D01*
X69847220Y-84340771D02*
X69799601Y-84436009D01*
X69799601Y-84436009D02*
X69799601Y-84531247D01*
X69799601Y-84531247D02*
X70275791Y-84626485D01*
X69228172Y-84959819D02*
X69323410Y-84912200D01*
X69323410Y-84912200D02*
X69371029Y-84816961D01*
X69371029Y-84816961D02*
X69371029Y-83959819D01*
X68180552Y-83959819D02*
X67561505Y-83959819D01*
X67561505Y-83959819D02*
X67894838Y-84340771D01*
X67894838Y-84340771D02*
X67751981Y-84340771D01*
X67751981Y-84340771D02*
X67656743Y-84388390D01*
X67656743Y-84388390D02*
X67609124Y-84436009D01*
X67609124Y-84436009D02*
X67561505Y-84531247D01*
X67561505Y-84531247D02*
X67561505Y-84769342D01*
X67561505Y-84769342D02*
X67609124Y-84864580D01*
X67609124Y-84864580D02*
X67656743Y-84912200D01*
X67656743Y-84912200D02*
X67751981Y-84959819D01*
X67751981Y-84959819D02*
X68037695Y-84959819D01*
X68037695Y-84959819D02*
X68132933Y-84912200D01*
X68132933Y-84912200D02*
X68180552Y-84864580D01*
X80954819Y-55738095D02*
X79954819Y-55738095D01*
X80954819Y-56309523D02*
X80383390Y-55880952D01*
X79954819Y-56309523D02*
X80526247Y-55738095D01*
X130155792Y-116614580D02*
X130203411Y-116662200D01*
X130203411Y-116662200D02*
X130346268Y-116709819D01*
X130346268Y-116709819D02*
X130441506Y-116709819D01*
X130441506Y-116709819D02*
X130584363Y-116662200D01*
X130584363Y-116662200D02*
X130679601Y-116566961D01*
X130679601Y-116566961D02*
X130727220Y-116471723D01*
X130727220Y-116471723D02*
X130774839Y-116281247D01*
X130774839Y-116281247D02*
X130774839Y-116138390D01*
X130774839Y-116138390D02*
X130727220Y-115947914D01*
X130727220Y-115947914D02*
X130679601Y-115852676D01*
X130679601Y-115852676D02*
X130584363Y-115757438D01*
X130584363Y-115757438D02*
X130441506Y-115709819D01*
X130441506Y-115709819D02*
X130346268Y-115709819D01*
X130346268Y-115709819D02*
X130203411Y-115757438D01*
X130203411Y-115757438D02*
X130155792Y-115805057D01*
X129727220Y-116709819D02*
X129727220Y-115709819D01*
X129298649Y-116709819D02*
X129298649Y-116186009D01*
X129298649Y-116186009D02*
X129346268Y-116090771D01*
X129346268Y-116090771D02*
X129441506Y-116043152D01*
X129441506Y-116043152D02*
X129584363Y-116043152D01*
X129584363Y-116043152D02*
X129679601Y-116090771D01*
X129679601Y-116090771D02*
X129727220Y-116138390D01*
X128393887Y-116709819D02*
X128393887Y-116186009D01*
X128393887Y-116186009D02*
X128441506Y-116090771D01*
X128441506Y-116090771D02*
X128536744Y-116043152D01*
X128536744Y-116043152D02*
X128727220Y-116043152D01*
X128727220Y-116043152D02*
X128822458Y-116090771D01*
X128393887Y-116662200D02*
X128489125Y-116709819D01*
X128489125Y-116709819D02*
X128727220Y-116709819D01*
X128727220Y-116709819D02*
X128822458Y-116662200D01*
X128822458Y-116662200D02*
X128870077Y-116566961D01*
X128870077Y-116566961D02*
X128870077Y-116471723D01*
X128870077Y-116471723D02*
X128822458Y-116376485D01*
X128822458Y-116376485D02*
X128727220Y-116328866D01*
X128727220Y-116328866D02*
X128489125Y-116328866D01*
X128489125Y-116328866D02*
X128393887Y-116281247D01*
X127917696Y-116043152D02*
X127917696Y-116709819D01*
X127917696Y-116138390D02*
X127870077Y-116090771D01*
X127870077Y-116090771D02*
X127774839Y-116043152D01*
X127774839Y-116043152D02*
X127631982Y-116043152D01*
X127631982Y-116043152D02*
X127536744Y-116090771D01*
X127536744Y-116090771D02*
X127489125Y-116186009D01*
X127489125Y-116186009D02*
X127489125Y-116709819D01*
X127012934Y-116043152D02*
X127012934Y-116709819D01*
X127012934Y-116138390D02*
X126965315Y-116090771D01*
X126965315Y-116090771D02*
X126870077Y-116043152D01*
X126870077Y-116043152D02*
X126727220Y-116043152D01*
X126727220Y-116043152D02*
X126631982Y-116090771D01*
X126631982Y-116090771D02*
X126584363Y-116186009D01*
X126584363Y-116186009D02*
X126584363Y-116709819D01*
X125727220Y-116662200D02*
X125822458Y-116709819D01*
X125822458Y-116709819D02*
X126012934Y-116709819D01*
X126012934Y-116709819D02*
X126108172Y-116662200D01*
X126108172Y-116662200D02*
X126155791Y-116566961D01*
X126155791Y-116566961D02*
X126155791Y-116186009D01*
X126155791Y-116186009D02*
X126108172Y-116090771D01*
X126108172Y-116090771D02*
X126012934Y-116043152D01*
X126012934Y-116043152D02*
X125822458Y-116043152D01*
X125822458Y-116043152D02*
X125727220Y-116090771D01*
X125727220Y-116090771D02*
X125679601Y-116186009D01*
X125679601Y-116186009D02*
X125679601Y-116281247D01*
X125679601Y-116281247D02*
X126155791Y-116376485D01*
X125108172Y-116709819D02*
X125203410Y-116662200D01*
X125203410Y-116662200D02*
X125251029Y-116566961D01*
X125251029Y-116566961D02*
X125251029Y-115709819D01*
X123774838Y-115709819D02*
X123679600Y-115709819D01*
X123679600Y-115709819D02*
X123584362Y-115757438D01*
X123584362Y-115757438D02*
X123536743Y-115805057D01*
X123536743Y-115805057D02*
X123489124Y-115900295D01*
X123489124Y-115900295D02*
X123441505Y-116090771D01*
X123441505Y-116090771D02*
X123441505Y-116328866D01*
X123441505Y-116328866D02*
X123489124Y-116519342D01*
X123489124Y-116519342D02*
X123536743Y-116614580D01*
X123536743Y-116614580D02*
X123584362Y-116662200D01*
X123584362Y-116662200D02*
X123679600Y-116709819D01*
X123679600Y-116709819D02*
X123774838Y-116709819D01*
X123774838Y-116709819D02*
X123870076Y-116662200D01*
X123870076Y-116662200D02*
X123917695Y-116614580D01*
X123917695Y-116614580D02*
X123965314Y-116519342D01*
X123965314Y-116519342D02*
X124012933Y-116328866D01*
X124012933Y-116328866D02*
X124012933Y-116090771D01*
X124012933Y-116090771D02*
X123965314Y-115900295D01*
X123965314Y-115900295D02*
X123917695Y-115805057D01*
X123917695Y-115805057D02*
X123870076Y-115757438D01*
X123870076Y-115757438D02*
X123774838Y-115709819D01*
X121169104Y-55761905D02*
X121169104Y-56238095D01*
X121454819Y-55666667D02*
X120454819Y-56000000D01*
X120454819Y-56000000D02*
X121454819Y-56333333D01*
X80954819Y-143738095D02*
X79954819Y-143738095D01*
X80954819Y-144309523D02*
X80383390Y-143880952D01*
X79954819Y-144309523D02*
X80526247Y-143738095D01*
D11*
X142912887Y-107805618D02*
X142670030Y-107881808D01*
X142670030Y-107881808D02*
X142589077Y-107957999D01*
X142589077Y-107957999D02*
X142508125Y-108110380D01*
X142508125Y-108110380D02*
X142508125Y-108338951D01*
X142508125Y-108338951D02*
X142589077Y-108491332D01*
X142589077Y-108491332D02*
X142670030Y-108567523D01*
X142670030Y-108567523D02*
X142831935Y-108643713D01*
X142831935Y-108643713D02*
X143479554Y-108643713D01*
X143479554Y-108643713D02*
X143479554Y-107043713D01*
X143479554Y-107043713D02*
X142912887Y-107043713D01*
X142912887Y-107043713D02*
X142750982Y-107119903D01*
X142750982Y-107119903D02*
X142670030Y-107196094D01*
X142670030Y-107196094D02*
X142589077Y-107348475D01*
X142589077Y-107348475D02*
X142589077Y-107500856D01*
X142589077Y-107500856D02*
X142670030Y-107653237D01*
X142670030Y-107653237D02*
X142750982Y-107729427D01*
X142750982Y-107729427D02*
X142912887Y-107805618D01*
X142912887Y-107805618D02*
X143479554Y-107805618D01*
X141779554Y-107043713D02*
X141779554Y-108338951D01*
X141779554Y-108338951D02*
X141698601Y-108491332D01*
X141698601Y-108491332D02*
X141617649Y-108567523D01*
X141617649Y-108567523D02*
X141455744Y-108643713D01*
X141455744Y-108643713D02*
X141131935Y-108643713D01*
X141131935Y-108643713D02*
X140970030Y-108567523D01*
X140970030Y-108567523D02*
X140889077Y-108491332D01*
X140889077Y-108491332D02*
X140808125Y-108338951D01*
X140808125Y-108338951D02*
X140808125Y-107043713D01*
X138703364Y-108643713D02*
X138703364Y-107043713D01*
X138703364Y-107043713D02*
X138298602Y-107043713D01*
X138298602Y-107043713D02*
X138055745Y-107119903D01*
X138055745Y-107119903D02*
X137893840Y-107272284D01*
X137893840Y-107272284D02*
X137812887Y-107424665D01*
X137812887Y-107424665D02*
X137731935Y-107729427D01*
X137731935Y-107729427D02*
X137731935Y-107957999D01*
X137731935Y-107957999D02*
X137812887Y-108262761D01*
X137812887Y-108262761D02*
X137893840Y-108415142D01*
X137893840Y-108415142D02*
X138055745Y-108567523D01*
X138055745Y-108567523D02*
X138298602Y-108643713D01*
X138298602Y-108643713D02*
X138703364Y-108643713D01*
X136274792Y-108643713D02*
X136274792Y-107805618D01*
X136274792Y-107805618D02*
X136355745Y-107653237D01*
X136355745Y-107653237D02*
X136517649Y-107577046D01*
X136517649Y-107577046D02*
X136841459Y-107577046D01*
X136841459Y-107577046D02*
X137003364Y-107653237D01*
X136274792Y-108567523D02*
X136436697Y-108643713D01*
X136436697Y-108643713D02*
X136841459Y-108643713D01*
X136841459Y-108643713D02*
X137003364Y-108567523D01*
X137003364Y-108567523D02*
X137084316Y-108415142D01*
X137084316Y-108415142D02*
X137084316Y-108262761D01*
X137084316Y-108262761D02*
X137003364Y-108110380D01*
X137003364Y-108110380D02*
X136841459Y-108034189D01*
X136841459Y-108034189D02*
X136436697Y-108034189D01*
X136436697Y-108034189D02*
X136274792Y-107957999D01*
X135465269Y-108643713D02*
X135465269Y-107577046D01*
X135465269Y-107881808D02*
X135384316Y-107729427D01*
X135384316Y-107729427D02*
X135303364Y-107653237D01*
X135303364Y-107653237D02*
X135141459Y-107577046D01*
X135141459Y-107577046D02*
X134979554Y-107577046D01*
X134412888Y-108643713D02*
X134412888Y-107043713D01*
X134250983Y-108034189D02*
X133765269Y-108643713D01*
X133765269Y-107577046D02*
X134412888Y-108186570D01*
X131903364Y-108796094D02*
X132065269Y-108719903D01*
X132065269Y-108719903D02*
X132227174Y-108567523D01*
X132227174Y-108567523D02*
X132470031Y-108338951D01*
X132470031Y-108338951D02*
X132631936Y-108262761D01*
X132631936Y-108262761D02*
X132793840Y-108262761D01*
X132712888Y-108643713D02*
X132874793Y-108567523D01*
X132874793Y-108567523D02*
X133036698Y-108415142D01*
X133036698Y-108415142D02*
X133117650Y-108110380D01*
X133117650Y-108110380D02*
X133117650Y-107577046D01*
X133117650Y-107577046D02*
X133036698Y-107272284D01*
X133036698Y-107272284D02*
X132874793Y-107119903D01*
X132874793Y-107119903D02*
X132712888Y-107043713D01*
X132712888Y-107043713D02*
X132389079Y-107043713D01*
X132389079Y-107043713D02*
X132227174Y-107119903D01*
X132227174Y-107119903D02*
X132065269Y-107272284D01*
X132065269Y-107272284D02*
X131984317Y-107577046D01*
X131984317Y-107577046D02*
X131984317Y-108110380D01*
X131984317Y-108110380D02*
X132065269Y-108415142D01*
X132065269Y-108415142D02*
X132227174Y-108567523D01*
X132227174Y-108567523D02*
X132389079Y-108643713D01*
X132389079Y-108643713D02*
X132712888Y-108643713D01*
X130527174Y-107577046D02*
X130527174Y-108643713D01*
X131255746Y-107577046D02*
X131255746Y-108415142D01*
X131255746Y-108415142D02*
X131174793Y-108567523D01*
X131174793Y-108567523D02*
X131012888Y-108643713D01*
X131012888Y-108643713D02*
X130770031Y-108643713D01*
X130770031Y-108643713D02*
X130608127Y-108567523D01*
X130608127Y-108567523D02*
X130527174Y-108491332D01*
X129070032Y-108567523D02*
X129231936Y-108643713D01*
X129231936Y-108643713D02*
X129555746Y-108643713D01*
X129555746Y-108643713D02*
X129717651Y-108567523D01*
X129717651Y-108567523D02*
X129798603Y-108415142D01*
X129798603Y-108415142D02*
X129798603Y-107805618D01*
X129798603Y-107805618D02*
X129717651Y-107653237D01*
X129717651Y-107653237D02*
X129555746Y-107577046D01*
X129555746Y-107577046D02*
X129231936Y-107577046D01*
X129231936Y-107577046D02*
X129070032Y-107653237D01*
X129070032Y-107653237D02*
X128989079Y-107805618D01*
X128989079Y-107805618D02*
X128989079Y-107957999D01*
X128989079Y-107957999D02*
X129798603Y-108110380D01*
X128341460Y-108567523D02*
X128179555Y-108643713D01*
X128179555Y-108643713D02*
X127855746Y-108643713D01*
X127855746Y-108643713D02*
X127693841Y-108567523D01*
X127693841Y-108567523D02*
X127612889Y-108415142D01*
X127612889Y-108415142D02*
X127612889Y-108338951D01*
X127612889Y-108338951D02*
X127693841Y-108186570D01*
X127693841Y-108186570D02*
X127855746Y-108110380D01*
X127855746Y-108110380D02*
X128098603Y-108110380D01*
X128098603Y-108110380D02*
X128260508Y-108034189D01*
X128260508Y-108034189D02*
X128341460Y-107881808D01*
X128341460Y-107881808D02*
X128341460Y-107805618D01*
X128341460Y-107805618D02*
X128260508Y-107653237D01*
X128260508Y-107653237D02*
X128098603Y-107577046D01*
X128098603Y-107577046D02*
X127855746Y-107577046D01*
X127855746Y-107577046D02*
X127693841Y-107653237D01*
X127127175Y-107577046D02*
X126479556Y-107577046D01*
X126884318Y-107043713D02*
X126884318Y-108415142D01*
X126884318Y-108415142D02*
X126803365Y-108567523D01*
X126803365Y-108567523D02*
X126641460Y-108643713D01*
X126641460Y-108643713D02*
X126479556Y-108643713D01*
X143479554Y-110381528D02*
X142912887Y-110381528D01*
X142670030Y-111219623D02*
X143479554Y-111219623D01*
X143479554Y-111219623D02*
X143479554Y-109619623D01*
X143479554Y-109619623D02*
X142670030Y-109619623D01*
X141941459Y-111219623D02*
X141941459Y-109619623D01*
X141941459Y-109619623D02*
X141374792Y-110762480D01*
X141374792Y-110762480D02*
X140808125Y-109619623D01*
X140808125Y-109619623D02*
X140808125Y-111219623D01*
X139027173Y-111067242D02*
X139108125Y-111143433D01*
X139108125Y-111143433D02*
X139350983Y-111219623D01*
X139350983Y-111219623D02*
X139512887Y-111219623D01*
X139512887Y-111219623D02*
X139755744Y-111143433D01*
X139755744Y-111143433D02*
X139917649Y-110991052D01*
X139917649Y-110991052D02*
X139998602Y-110838671D01*
X139998602Y-110838671D02*
X140079554Y-110533909D01*
X140079554Y-110533909D02*
X140079554Y-110305337D01*
X140079554Y-110305337D02*
X139998602Y-110000575D01*
X139998602Y-110000575D02*
X139917649Y-109848194D01*
X139917649Y-109848194D02*
X139755744Y-109695813D01*
X139755744Y-109695813D02*
X139512887Y-109619623D01*
X139512887Y-109619623D02*
X139350983Y-109619623D01*
X139350983Y-109619623D02*
X139108125Y-109695813D01*
X139108125Y-109695813D02*
X139027173Y-109772004D01*
X138379554Y-110762480D02*
X137570030Y-110762480D01*
X138541459Y-111219623D02*
X137974792Y-109619623D01*
X137974792Y-109619623D02*
X137408125Y-111219623D01*
X136031935Y-111219623D02*
X136841459Y-111219623D01*
X136841459Y-111219623D02*
X136841459Y-109619623D01*
X133036697Y-111372004D02*
X133198602Y-111295813D01*
X133198602Y-111295813D02*
X133360507Y-111143433D01*
X133360507Y-111143433D02*
X133603364Y-110914861D01*
X133603364Y-110914861D02*
X133765269Y-110838671D01*
X133765269Y-110838671D02*
X133927173Y-110838671D01*
X133846221Y-111219623D02*
X134008126Y-111143433D01*
X134008126Y-111143433D02*
X134170031Y-110991052D01*
X134170031Y-110991052D02*
X134250983Y-110686290D01*
X134250983Y-110686290D02*
X134250983Y-110152956D01*
X134250983Y-110152956D02*
X134170031Y-109848194D01*
X134170031Y-109848194D02*
X134008126Y-109695813D01*
X134008126Y-109695813D02*
X133846221Y-109619623D01*
X133846221Y-109619623D02*
X133522412Y-109619623D01*
X133522412Y-109619623D02*
X133360507Y-109695813D01*
X133360507Y-109695813D02*
X133198602Y-109848194D01*
X133198602Y-109848194D02*
X133117650Y-110152956D01*
X133117650Y-110152956D02*
X133117650Y-110686290D01*
X133117650Y-110686290D02*
X133198602Y-110991052D01*
X133198602Y-110991052D02*
X133360507Y-111143433D01*
X133360507Y-111143433D02*
X133522412Y-111219623D01*
X133522412Y-111219623D02*
X133846221Y-111219623D01*
X131660507Y-110152956D02*
X131660507Y-111219623D01*
X132389079Y-110152956D02*
X132389079Y-110991052D01*
X132389079Y-110991052D02*
X132308126Y-111143433D01*
X132308126Y-111143433D02*
X132146221Y-111219623D01*
X132146221Y-111219623D02*
X131903364Y-111219623D01*
X131903364Y-111219623D02*
X131741460Y-111143433D01*
X131741460Y-111143433D02*
X131660507Y-111067242D01*
X130122412Y-111219623D02*
X130122412Y-110381528D01*
X130122412Y-110381528D02*
X130203365Y-110229147D01*
X130203365Y-110229147D02*
X130365269Y-110152956D01*
X130365269Y-110152956D02*
X130689079Y-110152956D01*
X130689079Y-110152956D02*
X130850984Y-110229147D01*
X130122412Y-111143433D02*
X130284317Y-111219623D01*
X130284317Y-111219623D02*
X130689079Y-111219623D01*
X130689079Y-111219623D02*
X130850984Y-111143433D01*
X130850984Y-111143433D02*
X130931936Y-110991052D01*
X130931936Y-110991052D02*
X130931936Y-110838671D01*
X130931936Y-110838671D02*
X130850984Y-110686290D01*
X130850984Y-110686290D02*
X130689079Y-110610099D01*
X130689079Y-110610099D02*
X130284317Y-110610099D01*
X130284317Y-110610099D02*
X130122412Y-110533909D01*
X128584317Y-111219623D02*
X128584317Y-109619623D01*
X128584317Y-111143433D02*
X128746222Y-111219623D01*
X128746222Y-111219623D02*
X129070031Y-111219623D01*
X129070031Y-111219623D02*
X129231936Y-111143433D01*
X129231936Y-111143433D02*
X129312889Y-111067242D01*
X129312889Y-111067242D02*
X129393841Y-110914861D01*
X129393841Y-110914861D02*
X129393841Y-110457718D01*
X129393841Y-110457718D02*
X129312889Y-110305337D01*
X129312889Y-110305337D02*
X129231936Y-110229147D01*
X129231936Y-110229147D02*
X129070031Y-110152956D01*
X129070031Y-110152956D02*
X128746222Y-110152956D01*
X128746222Y-110152956D02*
X128584317Y-110229147D01*
X126560508Y-111143433D02*
X126317651Y-111219623D01*
X126317651Y-111219623D02*
X125912889Y-111219623D01*
X125912889Y-111219623D02*
X125750984Y-111143433D01*
X125750984Y-111143433D02*
X125670032Y-111067242D01*
X125670032Y-111067242D02*
X125589079Y-110914861D01*
X125589079Y-110914861D02*
X125589079Y-110762480D01*
X125589079Y-110762480D02*
X125670032Y-110610099D01*
X125670032Y-110610099D02*
X125750984Y-110533909D01*
X125750984Y-110533909D02*
X125912889Y-110457718D01*
X125912889Y-110457718D02*
X126236698Y-110381528D01*
X126236698Y-110381528D02*
X126398603Y-110305337D01*
X126398603Y-110305337D02*
X126479556Y-110229147D01*
X126479556Y-110229147D02*
X126560508Y-110076766D01*
X126560508Y-110076766D02*
X126560508Y-109924385D01*
X126560508Y-109924385D02*
X126479556Y-109772004D01*
X126479556Y-109772004D02*
X126398603Y-109695813D01*
X126398603Y-109695813D02*
X126236698Y-109619623D01*
X126236698Y-109619623D02*
X125831937Y-109619623D01*
X125831937Y-109619623D02*
X125589079Y-109695813D01*
X124860508Y-111219623D02*
X124860508Y-110152956D01*
X124860508Y-109619623D02*
X124941460Y-109695813D01*
X124941460Y-109695813D02*
X124860508Y-109772004D01*
X124860508Y-109772004D02*
X124779555Y-109695813D01*
X124779555Y-109695813D02*
X124860508Y-109619623D01*
X124860508Y-109619623D02*
X124860508Y-109772004D01*
X124050984Y-111219623D02*
X124050984Y-109619623D01*
X124050984Y-109619623D02*
X123403365Y-109619623D01*
X123403365Y-109619623D02*
X123241460Y-109695813D01*
X123241460Y-109695813D02*
X123160507Y-109772004D01*
X123160507Y-109772004D02*
X123079555Y-109924385D01*
X123079555Y-109924385D02*
X123079555Y-110152956D01*
X123079555Y-110152956D02*
X123160507Y-110305337D01*
X123160507Y-110305337D02*
X123241460Y-110381528D01*
X123241460Y-110381528D02*
X123403365Y-110457718D01*
X123403365Y-110457718D02*
X124050984Y-110457718D01*
X122350984Y-111219623D02*
X122350984Y-109619623D01*
X122350984Y-109619623D02*
X121784317Y-110762480D01*
X121784317Y-110762480D02*
X121217650Y-109619623D01*
X121217650Y-109619623D02*
X121217650Y-111219623D01*
X119112889Y-111219623D02*
X119112889Y-109619623D01*
X119112889Y-109619623D02*
X118546222Y-110762480D01*
X118546222Y-110762480D02*
X117979555Y-109619623D01*
X117979555Y-109619623D02*
X117979555Y-111219623D01*
X116927174Y-111219623D02*
X117089079Y-111143433D01*
X117089079Y-111143433D02*
X117170032Y-111067242D01*
X117170032Y-111067242D02*
X117250984Y-110914861D01*
X117250984Y-110914861D02*
X117250984Y-110457718D01*
X117250984Y-110457718D02*
X117170032Y-110305337D01*
X117170032Y-110305337D02*
X117089079Y-110229147D01*
X117089079Y-110229147D02*
X116927174Y-110152956D01*
X116927174Y-110152956D02*
X116684317Y-110152956D01*
X116684317Y-110152956D02*
X116522413Y-110229147D01*
X116522413Y-110229147D02*
X116441460Y-110305337D01*
X116441460Y-110305337D02*
X116360508Y-110457718D01*
X116360508Y-110457718D02*
X116360508Y-110914861D01*
X116360508Y-110914861D02*
X116441460Y-111067242D01*
X116441460Y-111067242D02*
X116522413Y-111143433D01*
X116522413Y-111143433D02*
X116684317Y-111219623D01*
X116684317Y-111219623D02*
X116927174Y-111219623D01*
X115874794Y-110152956D02*
X115227175Y-110152956D01*
X115631937Y-109619623D02*
X115631937Y-110991052D01*
X115631937Y-110991052D02*
X115550984Y-111143433D01*
X115550984Y-111143433D02*
X115389079Y-111219623D01*
X115389079Y-111219623D02*
X115227175Y-111219623D01*
X114660508Y-111219623D02*
X114660508Y-109619623D01*
X113931936Y-111219623D02*
X113931936Y-110381528D01*
X113931936Y-110381528D02*
X114012889Y-110229147D01*
X114012889Y-110229147D02*
X114174793Y-110152956D01*
X114174793Y-110152956D02*
X114417650Y-110152956D01*
X114417650Y-110152956D02*
X114579555Y-110229147D01*
X114579555Y-110229147D02*
X114660508Y-110305337D01*
X112474794Y-111143433D02*
X112636698Y-111219623D01*
X112636698Y-111219623D02*
X112960508Y-111219623D01*
X112960508Y-111219623D02*
X113122413Y-111143433D01*
X113122413Y-111143433D02*
X113203365Y-110991052D01*
X113203365Y-110991052D02*
X113203365Y-110381528D01*
X113203365Y-110381528D02*
X113122413Y-110229147D01*
X113122413Y-110229147D02*
X112960508Y-110152956D01*
X112960508Y-110152956D02*
X112636698Y-110152956D01*
X112636698Y-110152956D02*
X112474794Y-110229147D01*
X112474794Y-110229147D02*
X112393841Y-110381528D01*
X112393841Y-110381528D02*
X112393841Y-110533909D01*
X112393841Y-110533909D02*
X113203365Y-110686290D01*
X111665270Y-111219623D02*
X111665270Y-110152956D01*
X111665270Y-110457718D02*
X111584317Y-110305337D01*
X111584317Y-110305337D02*
X111503365Y-110229147D01*
X111503365Y-110229147D02*
X111341460Y-110152956D01*
X111341460Y-110152956D02*
X111179555Y-110152956D01*
X110612889Y-111219623D02*
X110612889Y-109619623D01*
X110612889Y-110229147D02*
X110450984Y-110152956D01*
X110450984Y-110152956D02*
X110127174Y-110152956D01*
X110127174Y-110152956D02*
X109965270Y-110229147D01*
X109965270Y-110229147D02*
X109884317Y-110305337D01*
X109884317Y-110305337D02*
X109803365Y-110457718D01*
X109803365Y-110457718D02*
X109803365Y-110914861D01*
X109803365Y-110914861D02*
X109884317Y-111067242D01*
X109884317Y-111067242D02*
X109965270Y-111143433D01*
X109965270Y-111143433D02*
X110127174Y-111219623D01*
X110127174Y-111219623D02*
X110450984Y-111219623D01*
X110450984Y-111219623D02*
X110612889Y-111143433D01*
X108831936Y-111219623D02*
X108993841Y-111143433D01*
X108993841Y-111143433D02*
X109074794Y-111067242D01*
X109074794Y-111067242D02*
X109155746Y-110914861D01*
X109155746Y-110914861D02*
X109155746Y-110457718D01*
X109155746Y-110457718D02*
X109074794Y-110305337D01*
X109074794Y-110305337D02*
X108993841Y-110229147D01*
X108993841Y-110229147D02*
X108831936Y-110152956D01*
X108831936Y-110152956D02*
X108589079Y-110152956D01*
X108589079Y-110152956D02*
X108427175Y-110229147D01*
X108427175Y-110229147D02*
X108346222Y-110305337D01*
X108346222Y-110305337D02*
X108265270Y-110457718D01*
X108265270Y-110457718D02*
X108265270Y-110914861D01*
X108265270Y-110914861D02*
X108346222Y-111067242D01*
X108346222Y-111067242D02*
X108427175Y-111143433D01*
X108427175Y-111143433D02*
X108589079Y-111219623D01*
X108589079Y-111219623D02*
X108831936Y-111219623D01*
X106808127Y-111219623D02*
X106808127Y-110381528D01*
X106808127Y-110381528D02*
X106889080Y-110229147D01*
X106889080Y-110229147D02*
X107050984Y-110152956D01*
X107050984Y-110152956D02*
X107374794Y-110152956D01*
X107374794Y-110152956D02*
X107536699Y-110229147D01*
X106808127Y-111143433D02*
X106970032Y-111219623D01*
X106970032Y-111219623D02*
X107374794Y-111219623D01*
X107374794Y-111219623D02*
X107536699Y-111143433D01*
X107536699Y-111143433D02*
X107617651Y-110991052D01*
X107617651Y-110991052D02*
X107617651Y-110838671D01*
X107617651Y-110838671D02*
X107536699Y-110686290D01*
X107536699Y-110686290D02*
X107374794Y-110610099D01*
X107374794Y-110610099D02*
X106970032Y-110610099D01*
X106970032Y-110610099D02*
X106808127Y-110533909D01*
X105998604Y-111219623D02*
X105998604Y-110152956D01*
X105998604Y-110457718D02*
X105917651Y-110305337D01*
X105917651Y-110305337D02*
X105836699Y-110229147D01*
X105836699Y-110229147D02*
X105674794Y-110152956D01*
X105674794Y-110152956D02*
X105512889Y-110152956D01*
X104217651Y-111219623D02*
X104217651Y-109619623D01*
X104217651Y-111143433D02*
X104379556Y-111219623D01*
X104379556Y-111219623D02*
X104703365Y-111219623D01*
X104703365Y-111219623D02*
X104865270Y-111143433D01*
X104865270Y-111143433D02*
X104946223Y-111067242D01*
X104946223Y-111067242D02*
X105027175Y-110914861D01*
X105027175Y-110914861D02*
X105027175Y-110457718D01*
X105027175Y-110457718D02*
X104946223Y-110305337D01*
X104946223Y-110305337D02*
X104865270Y-110229147D01*
X104865270Y-110229147D02*
X104703365Y-110152956D01*
X104703365Y-110152956D02*
X104379556Y-110152956D01*
X104379556Y-110152956D02*
X104217651Y-110229147D01*
X143560506Y-112347914D02*
X143479554Y-112271723D01*
X143479554Y-112271723D02*
X143317649Y-112195533D01*
X143317649Y-112195533D02*
X142912887Y-112195533D01*
X142912887Y-112195533D02*
X142750982Y-112271723D01*
X142750982Y-112271723D02*
X142670030Y-112347914D01*
X142670030Y-112347914D02*
X142589077Y-112500295D01*
X142589077Y-112500295D02*
X142589077Y-112652676D01*
X142589077Y-112652676D02*
X142670030Y-112881247D01*
X142670030Y-112881247D02*
X143641458Y-113795533D01*
X143641458Y-113795533D02*
X142589077Y-113795533D01*
X141536696Y-112195533D02*
X141374791Y-112195533D01*
X141374791Y-112195533D02*
X141212887Y-112271723D01*
X141212887Y-112271723D02*
X141131934Y-112347914D01*
X141131934Y-112347914D02*
X141050982Y-112500295D01*
X141050982Y-112500295D02*
X140970029Y-112805057D01*
X140970029Y-112805057D02*
X140970029Y-113186009D01*
X140970029Y-113186009D02*
X141050982Y-113490771D01*
X141050982Y-113490771D02*
X141131934Y-113643152D01*
X141131934Y-113643152D02*
X141212887Y-113719343D01*
X141212887Y-113719343D02*
X141374791Y-113795533D01*
X141374791Y-113795533D02*
X141536696Y-113795533D01*
X141536696Y-113795533D02*
X141698601Y-113719343D01*
X141698601Y-113719343D02*
X141779553Y-113643152D01*
X141779553Y-113643152D02*
X141860506Y-113490771D01*
X141860506Y-113490771D02*
X141941458Y-113186009D01*
X141941458Y-113186009D02*
X141941458Y-112805057D01*
X141941458Y-112805057D02*
X141860506Y-112500295D01*
X141860506Y-112500295D02*
X141779553Y-112347914D01*
X141779553Y-112347914D02*
X141698601Y-112271723D01*
X141698601Y-112271723D02*
X141536696Y-112195533D01*
X140322410Y-112347914D02*
X140241458Y-112271723D01*
X140241458Y-112271723D02*
X140079553Y-112195533D01*
X140079553Y-112195533D02*
X139674791Y-112195533D01*
X139674791Y-112195533D02*
X139512886Y-112271723D01*
X139512886Y-112271723D02*
X139431934Y-112347914D01*
X139431934Y-112347914D02*
X139350981Y-112500295D01*
X139350981Y-112500295D02*
X139350981Y-112652676D01*
X139350981Y-112652676D02*
X139431934Y-112881247D01*
X139431934Y-112881247D02*
X140403362Y-113795533D01*
X140403362Y-113795533D02*
X139350981Y-113795533D01*
X137812886Y-112195533D02*
X138622410Y-112195533D01*
X138622410Y-112195533D02*
X138703362Y-112957438D01*
X138703362Y-112957438D02*
X138622410Y-112881247D01*
X138622410Y-112881247D02*
X138460505Y-112805057D01*
X138460505Y-112805057D02*
X138055743Y-112805057D01*
X138055743Y-112805057D02*
X137893838Y-112881247D01*
X137893838Y-112881247D02*
X137812886Y-112957438D01*
X137812886Y-112957438D02*
X137731933Y-113109819D01*
X137731933Y-113109819D02*
X137731933Y-113490771D01*
X137731933Y-113490771D02*
X137812886Y-113643152D01*
X137812886Y-113643152D02*
X137893838Y-113719343D01*
X137893838Y-113719343D02*
X138055743Y-113795533D01*
X138055743Y-113795533D02*
X138460505Y-113795533D01*
X138460505Y-113795533D02*
X138622410Y-113719343D01*
X138622410Y-113719343D02*
X138703362Y-113643152D01*
X137003362Y-113186009D02*
X135708124Y-113186009D01*
X134008123Y-113795533D02*
X134979552Y-113795533D01*
X134493838Y-113795533D02*
X134493838Y-112195533D01*
X134493838Y-112195533D02*
X134655742Y-112424104D01*
X134655742Y-112424104D02*
X134817647Y-112576485D01*
X134817647Y-112576485D02*
X134979552Y-112652676D01*
X132389075Y-113795533D02*
X133360504Y-113795533D01*
X132874790Y-113795533D02*
X132874790Y-112195533D01*
X132874790Y-112195533D02*
X133036694Y-112424104D01*
X133036694Y-112424104D02*
X133198599Y-112576485D01*
X133198599Y-112576485D02*
X133360504Y-112652676D01*
X128098599Y-113795533D02*
X128665266Y-113033628D01*
X129070028Y-113795533D02*
X129070028Y-112195533D01*
X129070028Y-112195533D02*
X128422409Y-112195533D01*
X128422409Y-112195533D02*
X128260504Y-112271723D01*
X128260504Y-112271723D02*
X128179551Y-112347914D01*
X128179551Y-112347914D02*
X128098599Y-112500295D01*
X128098599Y-112500295D02*
X128098599Y-112728866D01*
X128098599Y-112728866D02*
X128179551Y-112881247D01*
X128179551Y-112881247D02*
X128260504Y-112957438D01*
X128260504Y-112957438D02*
X128422409Y-113033628D01*
X128422409Y-113033628D02*
X129070028Y-113033628D01*
X126722409Y-113719343D02*
X126884313Y-113795533D01*
X126884313Y-113795533D02*
X127208123Y-113795533D01*
X127208123Y-113795533D02*
X127370028Y-113719343D01*
X127370028Y-113719343D02*
X127450980Y-113566962D01*
X127450980Y-113566962D02*
X127450980Y-112957438D01*
X127450980Y-112957438D02*
X127370028Y-112805057D01*
X127370028Y-112805057D02*
X127208123Y-112728866D01*
X127208123Y-112728866D02*
X126884313Y-112728866D01*
X126884313Y-112728866D02*
X126722409Y-112805057D01*
X126722409Y-112805057D02*
X126641456Y-112957438D01*
X126641456Y-112957438D02*
X126641456Y-113109819D01*
X126641456Y-113109819D02*
X127450980Y-113262200D01*
X126074789Y-112728866D02*
X125670027Y-113795533D01*
X125670027Y-113795533D02*
X125265266Y-112728866D01*
X122431932Y-113795533D02*
X123403361Y-113795533D01*
X122917647Y-113795533D02*
X122917647Y-112195533D01*
X122917647Y-112195533D02*
X123079551Y-112424104D01*
X123079551Y-112424104D02*
X123241456Y-112576485D01*
X123241456Y-112576485D02*
X123403361Y-112652676D01*
X120812884Y-113795533D02*
X121784313Y-113795533D01*
X121298599Y-113795533D02*
X121298599Y-112195533D01*
X121298599Y-112195533D02*
X121460503Y-112424104D01*
X121460503Y-112424104D02*
X121622408Y-112576485D01*
X121622408Y-112576485D02*
X121784313Y-112652676D01*
X120084313Y-113643152D02*
X120003360Y-113719343D01*
X120003360Y-113719343D02*
X120084313Y-113795533D01*
X120084313Y-113795533D02*
X120165265Y-113719343D01*
X120165265Y-113719343D02*
X120084313Y-113643152D01*
X120084313Y-113643152D02*
X120084313Y-113795533D01*
X119436693Y-112195533D02*
X118384312Y-112195533D01*
X118384312Y-112195533D02*
X118950979Y-112805057D01*
X118950979Y-112805057D02*
X118708122Y-112805057D01*
X118708122Y-112805057D02*
X118546217Y-112881247D01*
X118546217Y-112881247D02*
X118465265Y-112957438D01*
X118465265Y-112957438D02*
X118384312Y-113109819D01*
X118384312Y-113109819D02*
X118384312Y-113490771D01*
X118384312Y-113490771D02*
X118465265Y-113643152D01*
X118465265Y-113643152D02*
X118546217Y-113719343D01*
X118546217Y-113719343D02*
X118708122Y-113795533D01*
X118708122Y-113795533D02*
X119193836Y-113795533D01*
X119193836Y-113795533D02*
X119355741Y-113719343D01*
X119355741Y-113719343D02*
X119436693Y-113643152D01*
D10*
X74529792Y-116868580D02*
X74577411Y-116916200D01*
X74577411Y-116916200D02*
X74720268Y-116963819D01*
X74720268Y-116963819D02*
X74815506Y-116963819D01*
X74815506Y-116963819D02*
X74958363Y-116916200D01*
X74958363Y-116916200D02*
X75053601Y-116820961D01*
X75053601Y-116820961D02*
X75101220Y-116725723D01*
X75101220Y-116725723D02*
X75148839Y-116535247D01*
X75148839Y-116535247D02*
X75148839Y-116392390D01*
X75148839Y-116392390D02*
X75101220Y-116201914D01*
X75101220Y-116201914D02*
X75053601Y-116106676D01*
X75053601Y-116106676D02*
X74958363Y-116011438D01*
X74958363Y-116011438D02*
X74815506Y-115963819D01*
X74815506Y-115963819D02*
X74720268Y-115963819D01*
X74720268Y-115963819D02*
X74577411Y-116011438D01*
X74577411Y-116011438D02*
X74529792Y-116059057D01*
X74101220Y-116963819D02*
X74101220Y-115963819D01*
X73672649Y-116963819D02*
X73672649Y-116440009D01*
X73672649Y-116440009D02*
X73720268Y-116344771D01*
X73720268Y-116344771D02*
X73815506Y-116297152D01*
X73815506Y-116297152D02*
X73958363Y-116297152D01*
X73958363Y-116297152D02*
X74053601Y-116344771D01*
X74053601Y-116344771D02*
X74101220Y-116392390D01*
X72767887Y-116963819D02*
X72767887Y-116440009D01*
X72767887Y-116440009D02*
X72815506Y-116344771D01*
X72815506Y-116344771D02*
X72910744Y-116297152D01*
X72910744Y-116297152D02*
X73101220Y-116297152D01*
X73101220Y-116297152D02*
X73196458Y-116344771D01*
X72767887Y-116916200D02*
X72863125Y-116963819D01*
X72863125Y-116963819D02*
X73101220Y-116963819D01*
X73101220Y-116963819D02*
X73196458Y-116916200D01*
X73196458Y-116916200D02*
X73244077Y-116820961D01*
X73244077Y-116820961D02*
X73244077Y-116725723D01*
X73244077Y-116725723D02*
X73196458Y-116630485D01*
X73196458Y-116630485D02*
X73101220Y-116582866D01*
X73101220Y-116582866D02*
X72863125Y-116582866D01*
X72863125Y-116582866D02*
X72767887Y-116535247D01*
X72291696Y-116297152D02*
X72291696Y-116963819D01*
X72291696Y-116392390D02*
X72244077Y-116344771D01*
X72244077Y-116344771D02*
X72148839Y-116297152D01*
X72148839Y-116297152D02*
X72005982Y-116297152D01*
X72005982Y-116297152D02*
X71910744Y-116344771D01*
X71910744Y-116344771D02*
X71863125Y-116440009D01*
X71863125Y-116440009D02*
X71863125Y-116963819D01*
X71386934Y-116297152D02*
X71386934Y-116963819D01*
X71386934Y-116392390D02*
X71339315Y-116344771D01*
X71339315Y-116344771D02*
X71244077Y-116297152D01*
X71244077Y-116297152D02*
X71101220Y-116297152D01*
X71101220Y-116297152D02*
X71005982Y-116344771D01*
X71005982Y-116344771D02*
X70958363Y-116440009D01*
X70958363Y-116440009D02*
X70958363Y-116963819D01*
X70101220Y-116916200D02*
X70196458Y-116963819D01*
X70196458Y-116963819D02*
X70386934Y-116963819D01*
X70386934Y-116963819D02*
X70482172Y-116916200D01*
X70482172Y-116916200D02*
X70529791Y-116820961D01*
X70529791Y-116820961D02*
X70529791Y-116440009D01*
X70529791Y-116440009D02*
X70482172Y-116344771D01*
X70482172Y-116344771D02*
X70386934Y-116297152D01*
X70386934Y-116297152D02*
X70196458Y-116297152D01*
X70196458Y-116297152D02*
X70101220Y-116344771D01*
X70101220Y-116344771D02*
X70053601Y-116440009D01*
X70053601Y-116440009D02*
X70053601Y-116535247D01*
X70053601Y-116535247D02*
X70529791Y-116630485D01*
X69482172Y-116963819D02*
X69577410Y-116916200D01*
X69577410Y-116916200D02*
X69625029Y-116820961D01*
X69625029Y-116820961D02*
X69625029Y-115963819D01*
X67815505Y-116963819D02*
X68386933Y-116963819D01*
X68101219Y-116963819D02*
X68101219Y-115963819D01*
X68101219Y-115963819D02*
X68196457Y-116106676D01*
X68196457Y-116106676D02*
X68291695Y-116201914D01*
X68291695Y-116201914D02*
X68386933Y-116249533D01*
X137454819Y-143738095D02*
X136454819Y-143738095D01*
X137454819Y-144309523D02*
X136883390Y-143880952D01*
X136454819Y-144309523D02*
X137026247Y-143738095D01*
X121169104Y-143761905D02*
X121169104Y-144238095D01*
X121454819Y-143666667D02*
X120454819Y-144000000D01*
X120454819Y-144000000D02*
X121454819Y-144333333D01*
X136954819Y-55738095D02*
X135954819Y-55738095D01*
X136954819Y-56309523D02*
X136383390Y-55880952D01*
X135954819Y-56309523D02*
X136526247Y-55738095D01*
X78341780Y-71943933D02*
X78389400Y-71896314D01*
X78389400Y-71896314D02*
X78437019Y-71753457D01*
X78437019Y-71753457D02*
X78437019Y-71658219D01*
X78437019Y-71658219D02*
X78389400Y-71515362D01*
X78389400Y-71515362D02*
X78294161Y-71420124D01*
X78294161Y-71420124D02*
X78198923Y-71372505D01*
X78198923Y-71372505D02*
X78008447Y-71324886D01*
X78008447Y-71324886D02*
X77865590Y-71324886D01*
X77865590Y-71324886D02*
X77675114Y-71372505D01*
X77675114Y-71372505D02*
X77579876Y-71420124D01*
X77579876Y-71420124D02*
X77484638Y-71515362D01*
X77484638Y-71515362D02*
X77437019Y-71658219D01*
X77437019Y-71658219D02*
X77437019Y-71753457D01*
X77437019Y-71753457D02*
X77484638Y-71896314D01*
X77484638Y-71896314D02*
X77532257Y-71943933D01*
X77770352Y-72801076D02*
X78437019Y-72801076D01*
X77389400Y-72562981D02*
X78103685Y-72324886D01*
X78103685Y-72324886D02*
X78103685Y-72943933D01*
X133688380Y-71918533D02*
X133736000Y-71870914D01*
X133736000Y-71870914D02*
X133783619Y-71728057D01*
X133783619Y-71728057D02*
X133783619Y-71632819D01*
X133783619Y-71632819D02*
X133736000Y-71489962D01*
X133736000Y-71489962D02*
X133640761Y-71394724D01*
X133640761Y-71394724D02*
X133545523Y-71347105D01*
X133545523Y-71347105D02*
X133355047Y-71299486D01*
X133355047Y-71299486D02*
X133212190Y-71299486D01*
X133212190Y-71299486D02*
X133021714Y-71347105D01*
X133021714Y-71347105D02*
X132926476Y-71394724D01*
X132926476Y-71394724D02*
X132831238Y-71489962D01*
X132831238Y-71489962D02*
X132783619Y-71632819D01*
X132783619Y-71632819D02*
X132783619Y-71728057D01*
X132783619Y-71728057D02*
X132831238Y-71870914D01*
X132831238Y-71870914D02*
X132878857Y-71918533D01*
X132783619Y-72251867D02*
X132783619Y-72870914D01*
X132783619Y-72870914D02*
X133164571Y-72537581D01*
X133164571Y-72537581D02*
X133164571Y-72680438D01*
X133164571Y-72680438D02*
X133212190Y-72775676D01*
X133212190Y-72775676D02*
X133259809Y-72823295D01*
X133259809Y-72823295D02*
X133355047Y-72870914D01*
X133355047Y-72870914D02*
X133593142Y-72870914D01*
X133593142Y-72870914D02*
X133688380Y-72823295D01*
X133688380Y-72823295D02*
X133736000Y-72775676D01*
X133736000Y-72775676D02*
X133783619Y-72680438D01*
X133783619Y-72680438D02*
X133783619Y-72394724D01*
X133783619Y-72394724D02*
X133736000Y-72299486D01*
X133736000Y-72299486D02*
X133688380Y-72251867D01*
D12*
X89842580Y-119684523D02*
X89128295Y-119684523D01*
X89128295Y-119684523D02*
X88985438Y-119732142D01*
X88985438Y-119732142D02*
X88890200Y-119827380D01*
X88890200Y-119827380D02*
X88842580Y-119970237D01*
X88842580Y-119970237D02*
X88842580Y-120065475D01*
X89747342Y-119255951D02*
X89794961Y-119208332D01*
X89794961Y-119208332D02*
X89842580Y-119113094D01*
X89842580Y-119113094D02*
X89842580Y-118874999D01*
X89842580Y-118874999D02*
X89794961Y-118779761D01*
X89794961Y-118779761D02*
X89747342Y-118732142D01*
X89747342Y-118732142D02*
X89652104Y-118684523D01*
X89652104Y-118684523D02*
X89556866Y-118684523D01*
X89556866Y-118684523D02*
X89414009Y-118732142D01*
X89414009Y-118732142D02*
X88842580Y-119303570D01*
X88842580Y-119303570D02*
X88842580Y-118684523D01*
X88842580Y-117732142D02*
X88842580Y-118303570D01*
X88842580Y-118017856D02*
X89842580Y-118017856D01*
X89842580Y-118017856D02*
X89699723Y-118113094D01*
X89699723Y-118113094D02*
X89604485Y-118208332D01*
X89604485Y-118208332D02*
X89556866Y-118303570D01*
D10*
X78240180Y-127315933D02*
X78287800Y-127268314D01*
X78287800Y-127268314D02*
X78335419Y-127125457D01*
X78335419Y-127125457D02*
X78335419Y-127030219D01*
X78335419Y-127030219D02*
X78287800Y-126887362D01*
X78287800Y-126887362D02*
X78192561Y-126792124D01*
X78192561Y-126792124D02*
X78097323Y-126744505D01*
X78097323Y-126744505D02*
X77906847Y-126696886D01*
X77906847Y-126696886D02*
X77763990Y-126696886D01*
X77763990Y-126696886D02*
X77573514Y-126744505D01*
X77573514Y-126744505D02*
X77478276Y-126792124D01*
X77478276Y-126792124D02*
X77383038Y-126887362D01*
X77383038Y-126887362D02*
X77335419Y-127030219D01*
X77335419Y-127030219D02*
X77335419Y-127125457D01*
X77335419Y-127125457D02*
X77383038Y-127268314D01*
X77383038Y-127268314D02*
X77430657Y-127315933D01*
X77430657Y-127696886D02*
X77383038Y-127744505D01*
X77383038Y-127744505D02*
X77335419Y-127839743D01*
X77335419Y-127839743D02*
X77335419Y-128077838D01*
X77335419Y-128077838D02*
X77383038Y-128173076D01*
X77383038Y-128173076D02*
X77430657Y-128220695D01*
X77430657Y-128220695D02*
X77525895Y-128268314D01*
X77525895Y-128268314D02*
X77621133Y-128268314D01*
X77621133Y-128268314D02*
X77763990Y-128220695D01*
X77763990Y-128220695D02*
X78335419Y-127649267D01*
X78335419Y-127649267D02*
X78335419Y-128268314D01*
X133612180Y-127315933D02*
X133659800Y-127268314D01*
X133659800Y-127268314D02*
X133707419Y-127125457D01*
X133707419Y-127125457D02*
X133707419Y-127030219D01*
X133707419Y-127030219D02*
X133659800Y-126887362D01*
X133659800Y-126887362D02*
X133564561Y-126792124D01*
X133564561Y-126792124D02*
X133469323Y-126744505D01*
X133469323Y-126744505D02*
X133278847Y-126696886D01*
X133278847Y-126696886D02*
X133135990Y-126696886D01*
X133135990Y-126696886D02*
X132945514Y-126744505D01*
X132945514Y-126744505D02*
X132850276Y-126792124D01*
X132850276Y-126792124D02*
X132755038Y-126887362D01*
X132755038Y-126887362D02*
X132707419Y-127030219D01*
X132707419Y-127030219D02*
X132707419Y-127125457D01*
X132707419Y-127125457D02*
X132755038Y-127268314D01*
X132755038Y-127268314D02*
X132802657Y-127315933D01*
X133707419Y-128268314D02*
X133707419Y-127696886D01*
X133707419Y-127982600D02*
X132707419Y-127982600D01*
X132707419Y-127982600D02*
X132850276Y-127887362D01*
X132850276Y-127887362D02*
X132945514Y-127792124D01*
X132945514Y-127792124D02*
X132993133Y-127696886D01*
D13*
%TO.C,C4*%
X78922200Y-71399348D02*
X78922200Y-72821852D01*
X80742200Y-71399348D02*
X80742200Y-72821852D01*
%TO.C,C3*%
X136088800Y-71373948D02*
X136088800Y-72796452D01*
X134268800Y-71373948D02*
X134268800Y-72796452D01*
%TO.C,J21*%
D12*
X90650000Y-126875000D02*
X107350000Y-126875000D01*
X107350000Y-110875000D01*
X90650000Y-110875000D01*
X90650000Y-126875000D01*
D13*
%TO.C,C2*%
X78820600Y-126771348D02*
X78820600Y-128193852D01*
X80640600Y-126771348D02*
X80640600Y-128193852D01*
%TO.C,C1*%
X134192600Y-126771348D02*
X134192600Y-128193852D01*
X136012600Y-126771348D02*
X136012600Y-128193852D01*
%TD*%
M02*
