%TF.GenerationSoftware,KiCad,Pcbnew,9.0.3*%
%TF.CreationDate,2025-11-09T14:41:51-05:00*%
%TF.ProjectId,DarkQuest_SiPM_Motherboard_11.3,4461726b-5175-4657-9374-5f5369504d5f,11.3*%
%TF.SameCoordinates,Original*%
%TF.FileFunction,Copper,L1,Top*%
%TF.FilePolarity,Positive*%
%FSLAX46Y46*%
G04 Gerber Fmt 4.6, Leading zero omitted, Abs format (unit mm)*
G04 Created by KiCad (PCBNEW 9.0.3) date 2025-11-09 14:41:51*
%MOMM*%
%LPD*%
G01*
G04 APERTURE LIST*
%TA.AperFunction,ComponentPad*%
%ADD10R,1.700000X1.700000*%
%TD*%
%TA.AperFunction,ComponentPad*%
%ADD11C,1.700000*%
%TD*%
%TA.AperFunction,ComponentPad*%
%ADD12C,16.800000*%
%TD*%
%TA.AperFunction,ComponentPad*%
%ADD13C,12.000000*%
%TD*%
%TA.AperFunction,WasherPad*%
%ADD14C,3.650000*%
%TD*%
%TA.AperFunction,ComponentPad*%
%ADD15C,1.500000*%
%TD*%
%TA.AperFunction,ComponentPad*%
%ADD16C,2.500000*%
%TD*%
%TA.AperFunction,ViaPad*%
%ADD17C,0.600000*%
%TD*%
%TA.AperFunction,Conductor*%
%ADD18C,0.635000*%
%TD*%
G04 APERTURE END LIST*
D10*
%TO.P,J19,1,Pin_1*%
%TO.N,unconnected-(J19-Pin_1-Pad1)*%
X139146000Y-83820000D03*
D11*
%TO.P,J19,2,Pin_2*%
%TO.N,unconnected-(J19-Pin_2-Pad2)*%
X139146000Y-81280000D03*
%TO.P,J19,3,Pin_3*%
%TO.N,unconnected-(J19-Pin_3-Pad3)*%
X139146000Y-78740000D03*
%TO.P,J19,4,Pin_4*%
%TO.N,unconnected-(J19-Pin_4-Pad4)*%
X139146000Y-76200000D03*
%TO.P,J19,5,Pin_5*%
%TO.N,/K3*%
X139146000Y-73660000D03*
%TO.P,J19,6,Pin_6*%
%TO.N,unconnected-(J19-Pin_6-Pad6)*%
X139146000Y-71120000D03*
%TO.P,J19,7,Pin_7*%
%TO.N,unconnected-(J19-Pin_7-Pad7)*%
X139146000Y-68580000D03*
%TO.P,J19,8,Pin_8*%
%TO.N,unconnected-(J19-Pin_8-Pad8)*%
X139146000Y-66040000D03*
%TO.P,J19,9,Pin_9*%
%TO.N,unconnected-(J19-Pin_9-Pad9)*%
X139146000Y-63500000D03*
%TO.P,J19,10,Pin_10*%
%TO.N,unconnected-(J19-Pin_10-Pad10)*%
X139146000Y-60960000D03*
%TD*%
D10*
%TO.P,J20,1,Pin_1*%
%TO.N,unconnected-(J20-Pin_1-Pad1)*%
X83774000Y-83820000D03*
D11*
%TO.P,J20,2,Pin_2*%
%TO.N,unconnected-(J20-Pin_2-Pad2)*%
X83774000Y-81280000D03*
%TO.P,J20,3,Pin_3*%
%TO.N,unconnected-(J20-Pin_3-Pad3)*%
X83774000Y-78740000D03*
%TO.P,J20,4,Pin_4*%
%TO.N,unconnected-(J20-Pin_4-Pad4)*%
X83774000Y-76200000D03*
%TO.P,J20,5,Pin_5*%
%TO.N,/K4*%
X83774000Y-73660000D03*
%TO.P,J20,6,Pin_6*%
%TO.N,unconnected-(J20-Pin_6-Pad6)*%
X83774000Y-71120000D03*
%TO.P,J20,7,Pin_7*%
%TO.N,unconnected-(J20-Pin_7-Pad7)*%
X83774000Y-68580000D03*
%TO.P,J20,8,Pin_8*%
%TO.N,unconnected-(J20-Pin_8-Pad8)*%
X83774000Y-66040000D03*
%TO.P,J20,9,Pin_9*%
%TO.N,unconnected-(J20-Pin_9-Pad9)*%
X83774000Y-63500000D03*
%TO.P,J20,10,Pin_10*%
%TO.N,unconnected-(J20-Pin_10-Pad10)*%
X83774000Y-60960000D03*
%TD*%
D10*
%TO.P,J18,1,Pin_1*%
%TO.N,unconnected-(J18-Pin_1-Pad1)*%
X83774000Y-139192000D03*
D11*
%TO.P,J18,2,Pin_2*%
%TO.N,unconnected-(J18-Pin_2-Pad2)*%
X83774000Y-136652000D03*
%TO.P,J18,3,Pin_3*%
%TO.N,unconnected-(J18-Pin_3-Pad3)*%
X83774000Y-134112000D03*
%TO.P,J18,4,Pin_4*%
%TO.N,unconnected-(J18-Pin_4-Pad4)*%
X83774000Y-131572000D03*
%TO.P,J18,5,Pin_5*%
%TO.N,/K2*%
X83774000Y-129032000D03*
%TO.P,J18,6,Pin_6*%
%TO.N,unconnected-(J18-Pin_6-Pad6)*%
X83774000Y-126492000D03*
%TO.P,J18,7,Pin_7*%
%TO.N,unconnected-(J18-Pin_7-Pad7)*%
X83774000Y-123952000D03*
%TO.P,J18,8,Pin_8*%
%TO.N,unconnected-(J18-Pin_8-Pad8)*%
X83774000Y-121412000D03*
%TO.P,J18,9,Pin_9*%
%TO.N,unconnected-(J18-Pin_9-Pad9)*%
X83774000Y-118872000D03*
%TO.P,J18,10,Pin_10*%
%TO.N,unconnected-(J18-Pin_10-Pad10)*%
X83774000Y-116332000D03*
%TD*%
D10*
%TO.P,J17,1,Pin_1*%
%TO.N,unconnected-(J17-Pin_1-Pad1)*%
X139146000Y-139192000D03*
D11*
%TO.P,J17,2,Pin_2*%
%TO.N,unconnected-(J17-Pin_2-Pad2)*%
X139146000Y-136652000D03*
%TO.P,J17,3,Pin_3*%
%TO.N,unconnected-(J17-Pin_3-Pad3)*%
X139146000Y-134112000D03*
%TO.P,J17,4,Pin_4*%
%TO.N,unconnected-(J17-Pin_4-Pad4)*%
X139146000Y-131572000D03*
%TO.P,J17,5,Pin_5*%
%TO.N,/K1*%
X139146000Y-129032000D03*
%TO.P,J17,6,Pin_6*%
%TO.N,unconnected-(J17-Pin_6-Pad6)*%
X139146000Y-126492000D03*
%TO.P,J17,7,Pin_7*%
%TO.N,unconnected-(J17-Pin_7-Pad7)*%
X139146000Y-123952000D03*
%TO.P,J17,8,Pin_8*%
%TO.N,unconnected-(J17-Pin_8-Pad8)*%
X139146000Y-121412000D03*
%TO.P,J17,9,Pin_9*%
%TO.N,unconnected-(J17-Pin_9-Pad9)*%
X139146000Y-118872000D03*
%TO.P,J17,10,Pin_10*%
%TO.N,unconnected-(J17-Pin_10-Pad10)*%
X139146000Y-116332000D03*
%TD*%
D10*
%TO.P,J8,1,Pin_1*%
%TO.N,unconnected-(J8-Pin_1-Pad1)*%
X60914000Y-83820000D03*
D11*
%TO.P,J8,2,Pin_2*%
%TO.N,unconnected-(J8-Pin_2-Pad2)*%
X60914000Y-81280000D03*
%TO.P,J8,3,Pin_3*%
%TO.N,unconnected-(J8-Pin_3-Pad3)*%
X60914000Y-78740000D03*
%TO.P,J8,4,Pin_4*%
%TO.N,N/C*%
X60914000Y-76200000D03*
%TO.P,J8,5,Pin_5*%
%TO.N,/A4*%
X60914000Y-73660000D03*
%TO.P,J8,6,Pin_6*%
%TO.N,N/C*%
X60914000Y-71120000D03*
%TO.P,J8,7,Pin_7*%
%TO.N,unconnected-(J8-Pin_7-Pad7)*%
X60914000Y-68580000D03*
%TO.P,J8,8,Pin_8*%
%TO.N,unconnected-(J8-Pin_8-Pad8)*%
X60914000Y-66040000D03*
%TO.P,J8,9,Pin_9*%
%TO.N,unconnected-(J8-Pin_9-Pad9)*%
X60914000Y-63500000D03*
%TO.P,J8,10,Pin_10*%
%TO.N,unconnected-(J8-Pin_10-Pad10)*%
X60914000Y-60960000D03*
%TD*%
D10*
%TO.P,J7,1,Pin_1*%
%TO.N,unconnected-(J7-Pin_1-Pad1)*%
X116286000Y-83820000D03*
D11*
%TO.P,J7,2,Pin_2*%
%TO.N,unconnected-(J7-Pin_2-Pad2)*%
X116286000Y-81280000D03*
%TO.P,J7,3,Pin_3*%
%TO.N,unconnected-(J7-Pin_3-Pad3)*%
X116286000Y-78740000D03*
%TO.P,J7,4,Pin_4*%
%TO.N,N/C*%
X116286000Y-76200000D03*
%TO.P,J7,5,Pin_5*%
%TO.N,/A3*%
X116286000Y-73660000D03*
%TO.P,J7,6,Pin_6*%
%TO.N,N/C*%
X116286000Y-71120000D03*
%TO.P,J7,7,Pin_7*%
%TO.N,unconnected-(J7-Pin_7-Pad7)*%
X116286000Y-68580000D03*
%TO.P,J7,8,Pin_8*%
%TO.N,unconnected-(J7-Pin_8-Pad8)*%
X116286000Y-66040000D03*
%TO.P,J7,9,Pin_9*%
%TO.N,unconnected-(J7-Pin_9-Pad9)*%
X116286000Y-63500000D03*
%TO.P,J7,10,Pin_10*%
%TO.N,unconnected-(J7-Pin_10-Pad10)*%
X116286000Y-60960000D03*
%TD*%
D10*
%TO.P,J6,1,Pin_1*%
%TO.N,unconnected-(J6-Pin_1-Pad1)*%
X60914000Y-139192000D03*
D11*
%TO.P,J6,2,Pin_2*%
%TO.N,unconnected-(J6-Pin_2-Pad2)*%
X60914000Y-136652000D03*
%TO.P,J6,3,Pin_3*%
%TO.N,unconnected-(J6-Pin_3-Pad3)*%
X60914000Y-134112000D03*
%TO.P,J6,4,Pin_4*%
%TO.N,N/C*%
X60914000Y-131572000D03*
%TO.P,J6,5,Pin_5*%
%TO.N,/A2*%
X60914000Y-129032000D03*
%TO.P,J6,6,Pin_6*%
%TO.N,N/C*%
X60914000Y-126492000D03*
%TO.P,J6,7,Pin_7*%
%TO.N,unconnected-(J6-Pin_7-Pad7)*%
X60914000Y-123952000D03*
%TO.P,J6,8,Pin_8*%
%TO.N,unconnected-(J6-Pin_8-Pad8)*%
X60914000Y-121412000D03*
%TO.P,J6,9,Pin_9*%
%TO.N,unconnected-(J6-Pin_9-Pad9)*%
X60914000Y-118872000D03*
%TO.P,J6,10,Pin_10*%
%TO.N,unconnected-(J6-Pin_10-Pad10)*%
X60914000Y-116332000D03*
%TD*%
D12*
%TO.P,H2,1*%
%TO.N,N/C*%
X100000000Y-100000000D03*
%TD*%
D13*
%TO.P,H3,1*%
%TO.N,N/C*%
X100000000Y-137000000D03*
%TD*%
%TO.P,H4,1*%
%TO.N,N/C*%
X137000000Y-100000000D03*
%TD*%
%TO.P,H5,1*%
%TO.N,N/C*%
X63000000Y-100000000D03*
%TD*%
%TO.P,H1,1*%
%TO.N,N/C*%
X100000000Y-63000000D03*
%TD*%
D14*
%TO.P,J21,*%
%TO.N,*%
X96800000Y-124590000D03*
X96800000Y-113160000D03*
D15*
%TO.P,J21,1*%
%TO.N,/K1*%
X103150000Y-123320000D03*
%TO.P,J21,2*%
%TO.N,/A1*%
X105690000Y-122050000D03*
%TO.P,J21,3*%
%TO.N,/K2*%
X103150000Y-120780000D03*
%TO.P,J21,4*%
%TO.N,/A3*%
X105690000Y-119510000D03*
%TO.P,J21,5*%
%TO.N,/K3*%
X103150000Y-118240000D03*
%TO.P,J21,6*%
%TO.N,/A2*%
X105690000Y-116970000D03*
%TO.P,J21,7*%
%TO.N,/K4*%
X103150000Y-115700000D03*
%TO.P,J21,8*%
%TO.N,/A4*%
X105690000Y-114430000D03*
D16*
%TO.P,J21,SH*%
%TO.N,GND*%
X99850000Y-126750000D03*
X99850000Y-111000000D03*
%TD*%
D10*
%TO.P,J5,1,Pin_1*%
%TO.N,unconnected-(J5-Pin_1-Pad1)*%
X116286000Y-139192000D03*
D11*
%TO.P,J5,2,Pin_2*%
%TO.N,unconnected-(J5-Pin_2-Pad2)*%
X116286000Y-136652000D03*
%TO.P,J5,3,Pin_3*%
%TO.N,unconnected-(J5-Pin_3-Pad3)*%
X116286000Y-134112000D03*
%TO.P,J5,4,Pin_4*%
%TO.N,N/C*%
X116286000Y-131572000D03*
%TO.P,J5,5,Pin_5*%
%TO.N,/A1*%
X116286000Y-129032000D03*
%TO.P,J5,6,Pin_6*%
%TO.N,N/C*%
X116286000Y-126492000D03*
%TO.P,J5,7,Pin_7*%
%TO.N,unconnected-(J5-Pin_7-Pad7)*%
X116286000Y-123952000D03*
%TO.P,J5,8,Pin_8*%
%TO.N,unconnected-(J5-Pin_8-Pad8)*%
X116286000Y-121412000D03*
%TO.P,J5,9,Pin_9*%
%TO.N,unconnected-(J5-Pin_9-Pad9)*%
X116286000Y-118872000D03*
%TO.P,J5,10,Pin_10*%
%TO.N,unconnected-(J5-Pin_10-Pad10)*%
X116286000Y-116332000D03*
%TD*%
D17*
%TO.N,/K1*%
X135000000Y-132600000D03*
%TO.N,/K2*%
X79800000Y-133600000D03*
%TO.N,/K3*%
X98425000Y-118745000D03*
X135400000Y-77800000D03*
X99695000Y-114935000D03*
%TO.N,/K4*%
X80000000Y-77000000D03*
%TO.N,/A3*%
X113030000Y-104775000D03*
X113030000Y-100965000D03*
%TD*%
D18*
%TO.N,/A2*%
X77297000Y-145415000D02*
X60914000Y-129032000D01*
X81280000Y-145415000D02*
X77297000Y-145415000D01*
X97155000Y-129540000D02*
X81280000Y-145415000D01*
X100330000Y-129540000D02*
X97155000Y-129540000D01*
X101600000Y-128270000D02*
X100330000Y-129540000D01*
X101600000Y-127501037D02*
X101600000Y-128270000D01*
X101618500Y-126017463D02*
X101618500Y-127482537D01*
X101600000Y-125998963D02*
X101618500Y-126017463D01*
X101600000Y-124126930D02*
X101600000Y-125998963D01*
X101881500Y-123845430D02*
X101600000Y-124126930D01*
X101881500Y-122794570D02*
X101881500Y-123845430D01*
X104008500Y-122051500D02*
X102624570Y-122051500D01*
X104421500Y-121638500D02*
X104008500Y-122051500D01*
X104421500Y-118238500D02*
X104421500Y-121638500D01*
X105690000Y-116970000D02*
X104421500Y-118238500D01*
X102624570Y-122051500D02*
X101881500Y-122794570D01*
X101618500Y-127482537D02*
X101600000Y-127501037D01*
%TO.N,/K1*%
X114935000Y-141605000D02*
X103150000Y-129820000D01*
X103150000Y-129820000D02*
X103150000Y-123320000D01*
X135000000Y-132600000D02*
X125995000Y-141605000D01*
X125995000Y-141605000D02*
X114935000Y-141605000D01*
%TO.N,/A1*%
X116286000Y-129032000D02*
X112672000Y-129032000D01*
X112672000Y-129032000D02*
X105690000Y-122050000D01*
%TO.N,/K2*%
X74930000Y-133350000D02*
X74930000Y-117475000D01*
X79800000Y-133600000D02*
X79800000Y-134195000D01*
X78740000Y-135255000D02*
X76835000Y-135255000D01*
X79800000Y-134195000D02*
X78740000Y-135255000D01*
X93980000Y-121920000D02*
X101573788Y-121920000D01*
X78740000Y-113665000D02*
X85725000Y-113665000D01*
X101573788Y-121920000D02*
X102713788Y-120780000D01*
X74930000Y-117475000D02*
X78740000Y-113665000D01*
X102713788Y-120780000D02*
X103150000Y-120780000D01*
X85725000Y-113665000D02*
X93980000Y-121920000D01*
X76835000Y-135255000D02*
X74930000Y-133350000D01*
%TO.N,/K3*%
X98425000Y-118745000D02*
X98425000Y-119380000D01*
X135400000Y-77800000D02*
X135400000Y-80617717D01*
X101082717Y-114935000D02*
X99695000Y-114935000D01*
X101375000Y-120015000D02*
X103150000Y-118240000D01*
X98425000Y-119380000D02*
X99060000Y-120015000D01*
X135400000Y-80617717D02*
X101082717Y-114935000D01*
X99060000Y-120015000D02*
X101375000Y-120015000D01*
%TO.N,/K4*%
X101500000Y-115700000D02*
X103150000Y-115700000D01*
X80000000Y-103495000D02*
X93345000Y-116840000D01*
X100360000Y-116840000D02*
X101500000Y-115700000D01*
X93345000Y-116840000D02*
X100360000Y-116840000D01*
X80000000Y-77000000D02*
X80000000Y-103495000D01*
%TO.N,/A4*%
X103148500Y-116971500D02*
X103151500Y-116968500D01*
X60914000Y-73660000D02*
X61163200Y-73660000D01*
X61163200Y-73660000D02*
X64389000Y-76885800D01*
X104418500Y-116225430D02*
X104418500Y-115701500D01*
X103675430Y-116968500D02*
X104418500Y-116225430D01*
X91765000Y-117800000D02*
X100640000Y-117800000D01*
X100640000Y-117800000D02*
X101468500Y-116971500D01*
X103151500Y-116968500D02*
X103675430Y-116968500D01*
X64389000Y-90424000D02*
X91765000Y-117800000D01*
X101468500Y-116971500D02*
X103148500Y-116971500D01*
X64389000Y-76885800D02*
X64389000Y-90424000D01*
X104418500Y-115701500D02*
X105690000Y-114430000D01*
%TO.N,/A3*%
X113030000Y-74295000D02*
X113030000Y-100965000D01*
X113030000Y-112170000D02*
X105690000Y-119510000D01*
X116286000Y-73660000D02*
X113665000Y-73660000D01*
X113665000Y-73660000D02*
X113030000Y-74295000D01*
X113030000Y-104775000D02*
X113030000Y-112170000D01*
%TD*%
M02*
